<svg xmlns="http://www.w3.org/2000/svg" xmlns:xlink="http://www.w3.org/1999/xlink" xmlns:lucid="lucid" width="1515.41" height="1623.13"><g transform="translate(2261 292.3984375)" lucid:page-tab-id="0_0"><path d="M-2500-500h2000v2000h-2000z" fill="#fff"/><path d="M-2260-194a6 6 0 0 1 6-6h1501.4a6 6 0 0 1 6 6v1517.74a6 6 0 0 1-6 6H-2254a6 6 0 0 1-6-6z" stroke="#3a414a" stroke-width="2" fill="#fff"/><path d="M-2260-286.4a6 6 0 0 1 6-6h347.3a6 6 0 0 1 6 6v68.4a6 6 0 0 1-6 6H-2254a6 6 0 0 1-6-6z" fill="#3a414a"/><use xlink:href="#a" transform="matrix(1,0,0,1,-2244,-276.3984375) translate(0 39.05078125)"/><path d="M-2046.84-120c18.47 0 33.45 14.97 33.45 33.44 0 18.48-14.96 33.45-33.44 33.45h-66.88c-18.48 0-33.45-14.98-33.45-33.46 0-18.47 14.97-33.44 33.45-33.44z" stroke="#1071e5" stroke-width="4" fill="#6db1ff"/><use xlink:href="#b" transform="matrix(1,0,0,1,-2142.16796875,-115) translate(36.951171875 35.77777777777778)"/><path d="M-2146.1 178.4a6 6 0 0 1 6-6h119.65a6 6 0 0 1 6 6v87.16a6 6 0 0 1-6 6h-119.66a6 6 0 0 1-6-6z" stroke="#1071e5" stroke-width="4" fill="#cfe4ff"/><use xlink:href="#c" transform="matrix(1,0,0,1,-2134.1114668715845,184.40901491769552) translate(28.055989583333332 31.02777777777778)"/><use xlink:href="#d" transform="matrix(1,0,0,1,-2134.1114668715845,184.40901491769552) translate(25.70138888888889 63.29340277777778)"/><path d="M-1780.56 152.9a6 6 0 0 1 6-6h187.44a6 6 0 0 1 6 6v138.18a6 6 0 0 1-6 6h-187.44a6 6 0 0 1-6-6z" stroke="#1071e5" stroke-width="4" fill="#cfe4ff"/><use xlink:href="#e" transform="matrix(1,0,0,1,-1768.5598958333335,158.88802083333337) translate(65.26236979166667 57.24652777777778)"/><use xlink:href="#f" transform="matrix(1,0,0,1,-1768.5598958333335,158.88802083333337) translate(8.279947916666686 89.51215277777777)"/><path d="M-1378.37 162.28a6 6 0 0 1 6-6h162.5a6 6 0 0 1 6 6v119.4a6 6 0 0 1-6 6h-162.5a6 6 0 0 1-6-6z" stroke="#1071e5" stroke-width="4" fill="#cfe4ff"/><use xlink:href="#g" transform="matrix(1,0,0,1,-1366.3648892873407,168.27620241769552) translate(41.889973958333336 28.27777777777778)"/><use xlink:href="#h" transform="matrix(1,0,0,1,-1366.3648892873407,168.27620241769552) translate(23.747612847222236 60.54340277777778)"/><use xlink:href="#i" transform="matrix(1,0,0,1,-1366.3648892873407,168.27620241769552) translate(37.89691840277778 92.80902777777777)"/><path d="M-985.6 173.95a6 6 0 0 1 6-6h131.5a6 6 0 0 1 6 6v96.07a6 6 0 0 1-6 6h-131.5a6 6 0 0 1-6-6z" stroke="#1071e5" stroke-width="4" fill="#cfe4ff"/><use xlink:href="#j" transform="matrix(1,0,0,1,-973.6010395321039,179.9500894847394) translate(39.49761284722222 34.80902777777778)"/><use xlink:href="#k" transform="matrix(1,0,0,1,-973.6010395321039,179.9500894847394) translate(8.247612847222236 67.07465277777777)"/><path d="M-1001.1 512.47a6 6 0 0 1 6-6h162.5a6 6 0 0 1 6 6V631.9a6 6 0 0 1-6 6h-162.5a6 6 0 0 1-6-6z" stroke="#1071e5" stroke-width="4" fill="#cfe4ff"/><use xlink:href="#l" transform="matrix(1,0,0,1,-989.1024305555557,518.4718364197531) translate(33.19856770833334 45.15277777777778)"/><use xlink:href="#m" transform="matrix(1,0,0,1,-989.1024305555557,518.4718364197531) translate(97.423828125 45.15277777777778)"/><use xlink:href="#n" transform="matrix(1,0,0,1,-989.1024305555557,518.4718364197531) translate(1.5308159722222285 77.41840277777777)"/><use xlink:href="#o" transform="matrix(1,0,0,1,-989.1024305555557,518.4718364197531) translate(90.4631076388889 77.41840277777777)"/><path d="M-1378.37 512.47a6 6 0 0 1 6-6h162.5a6 6 0 0 1 6 6V631.9a6 6 0 0 1-6 6h-162.5a6 6 0 0 1-6-6z" stroke="#1071e5" stroke-width="4" fill="#cfe4ff"/><use xlink:href="#p" transform="matrix(1,0,0,1,-1366.3648892873407,518.4718364197531) translate(11.567708333333343 45.15277777777778)"/><use xlink:href="#q" transform="matrix(1,0,0,1,-1366.3648892873407,518.4718364197531) translate(85.30902777777777 45.15277777777778)"/><use xlink:href="#r" transform="matrix(1,0,0,1,-1366.3648892873407,518.4718364197531) translate(19.60807291666667 77.41840277777777)"/><use xlink:href="#s" transform="matrix(1,0,0,1,-1366.3648892873407,518.4718364197531) translate(44.36935763888889 77.41840277777777)"/><path d="M-1780.56 503.08a6 6 0 0 1 6-6h187.44a6 6 0 0 1 6 6v138.2a6 6 0 0 1-6 6h-187.44a6 6 0 0 1-6-6z" stroke="#1071e5" stroke-width="4" fill="#cfe4ff"/><use xlink:href="#t" transform="matrix(1,0,0,1,-1768.5598958333335,509.0836548353909) translate(34.723090277777786 57.24652777777778)"/><use xlink:href="#f" transform="matrix(1,0,0,1,-1768.5598958333335,509.0836548353909) translate(8.279947916666686 89.51215277777777)"/><path d="M-2180 503.08a6 6 0 0 1 6-6h187.44a6 6 0 0 1 6 6v138.2a6 6 0 0 1-6 6H-2174a6 6 0 0 1-6-6z" stroke="#1071e5" stroke-width="4" fill="#cfe4ff"/><use xlink:href="#u" transform="matrix(1,0,0,1,-2168,509.0836548353909) translate(46.51236979166667 57.24652777777778)"/><use xlink:href="#f" transform="matrix(1,0,0,1,-2168,509.0836548353909) translate(8.279947916666686 89.51215277777777)"/><path d="M-2167.53 855.35a6 6 0 0 1 6-6h162.5a6 6 0 0 1 6 6v119.42a6 6 0 0 1-6 6h-162.5a6 6 0 0 1-6-6z" stroke="#1071e5" stroke-width="4" fill="#cfe4ff"/><use xlink:href="#v" transform="matrix(1,0,0,1,-2155.5337260928964,861.3539684070645) translate(5.9253472222222285 45.15277777777778)"/><use xlink:href="#w" transform="matrix(1,0,0,1,-2155.5337260928964,861.3539684070645) translate(88.4123263888889 45.15277777777778)"/><use xlink:href="#x" transform="matrix(1,0,0,1,-2155.5337260928964,861.3539684070645) translate(48.43836805555556 77.41840277777777)"/><path d="M-1768.1 855.35a6 6 0 0 1 6-6h162.5a6 6 0 0 1 6 6v119.42a6 6 0 0 1-6 6h-162.5a6 6 0 0 1-6-6z" stroke="#1071e5" stroke-width="4" fill="#cfe4ff"/><use xlink:href="#y" transform="matrix(1,0,0,1,-1756.0936219262296,861.3539684070645) translate(15.186414930555557 45.15277777777778)"/><use xlink:href="#z" transform="matrix(1,0,0,1,-1756.0936219262296,861.3539684070645) translate(57.71028645833333 45.15277777777778)"/><use xlink:href="#A" transform="matrix(1,0,0,1,-1756.0936219262296,861.3539684070645) translate(35.71592881944445 77.41840277777777)"/><path d="M-1381.12 853.28a6 6 0 0 1 6-6h168.02a6 6 0 0 1 6 6v123.57a6 6 0 0 1-6 6h-168.02a6 6 0 0 1-6-6z" stroke="#1071e5" stroke-width="4" fill="#cfe4ff"/><use xlink:href="#v" transform="matrix(1,0,0,1,-1369.1197916666667,859.2792888374486) translate(3.2992621527777715 49.52777777777778)"/><use xlink:href="#B" transform="matrix(1,0,0,1,-1369.1197916666667,859.2792888374486) translate(85.78624131944444 49.52777777777778)"/><use xlink:href="#C" transform="matrix(1,0,0,1,-1369.1197916666667,859.2792888374486) translate(45.573567708333336 81.79340277777777)"/><path d="M-1257.67 1182.85c18.47 0 33.45 14.97 33.45 33.44 0 18.46-14.98 33.44-33.45 33.44h-66.88c-18.48 0-33.45-14.98-33.45-33.45 0-18.48 14.97-33.45 33.44-33.45z" stroke="#1071e5" stroke-width="4" fill="#6db1ff"/><use xlink:href="#D" transform="matrix(1,0,0,1,-1352.9991319444446,1187.8479188100137) translate(41.95334201388889 35.77777777777778)"/><path d="M-2080.28-49.1v196.77" stroke="#3a414a" stroke-width="4" fill="none"/><path d="M-2078.3-49.06h-3.95v-2.05h3.95z" stroke="#3a414a" stroke-width=".05" fill="#3a414a"/><path d="M-2080.28 163.94l-4.63-14.27h9.26z" stroke="#3a414a" stroke-width="4" fill="#3a414a"/><path d="M-2010.45 222h205.15" stroke="#3a414a" stroke-width="4" fill="none"/><path d="M-2010.4 223.96h-2.05V220h2.05z" stroke="#3a414a" stroke-width=".05" fill="#3a414a"/><path d="M-1789.03 222l-14.27 4.62v-9.27z" stroke="#3a414a" stroke-width="4" fill="#3a414a"/><path d="M-1577.12 222h174.02" stroke="#3a414a" stroke-width="4" fill="none"/><path d="M-1577.07 223.96h-2.05V220h2.05z" stroke="#3a414a" stroke-width=".05" fill="#3a414a"/><path d="M-1386.84 222l-14.26 4.62v-9.27z" stroke="#3a414a" stroke-width="4" fill="#3a414a"/><use xlink:href="#E" transform="matrix(1,0,0,1,-1529.4298405603372,196.4754211676955) translate(0 17.22222222222222)"/><path d="M-1199.86 222h189.52" stroke="#3a414a" stroke-width="4" fill="none"/><path d="M-1199.8 223.96h-2.06V220h2.05z" stroke="#3a414a" stroke-width=".05" fill="#3a414a"/><path d="M-994.07 222l-14.27 4.62v-9.27z" stroke="#3a414a" stroke-width="4" fill="#3a414a"/><path d="M-913.85 280.02v201.7" stroke="#3a414a" stroke-width="4" fill="none"/><path d="M-911.87 280.07h-3.95v-2.05h3.95z" stroke="#3a414a" stroke-width=".05" fill="#3a414a"/><path d="M-913.85 498l-4.63-14.27h9.27z" stroke="#3a414a" stroke-width="4" fill="#3a414a"/><path d="M-1005.1 572.18h-174.02" stroke="#3a414a" stroke-width="4" fill="none"/><path d="M-1003.1 574.16h-2.05v-3.95h2.05z" stroke="#3a414a" stroke-width=".05" fill="#3a414a"/><path d="M-1195.38 572.18l14.26-4.63v9.27z" stroke="#3a414a" stroke-width="4" fill="#3a414a"/><path d="M-1382.37 572.18h-174" stroke="#3a414a" stroke-width="4" fill="none"/><path d="M-1380.37 574.16h-2.05v-3.95h2.06z" stroke="#3a414a" stroke-width=".05" fill="#3a414a"/><path d="M-1572.65 572.18l14.27-4.63v9.27z" stroke="#3a414a" stroke-width="4" fill="#3a414a"/><path d="M-1930.25 574.16h-25.57v-3.95h25.57zm145.7 0h-46.32v-3.95h46.3z" stroke="#3a414a" stroke-width=".05" fill="#3a414a"/><path d="M-1782.56 574.16h-2.05v-3.95h2.04z" fill="#3a414a"/><path stroke="#3a414a" stroke-width=".05" fill="#3a414a"/><path d="M-1957.82 576.82l-14.27-4.64 14.28-4.63z" fill="#3a414a"/><path d="M-1955.85 579.53l-22.63-7.35 22.63-7.35zm-9.85-7.35l5.9 1.92v-3.84z" stroke="#3a414a" stroke-width=".05" fill="#3a414a"/><use xlink:href="#E" transform="matrix(1,0,0,1,-1930.2473959166668,561.4262635030864) translate(0 17.22222222222222)"/><path d="M-2080.28 651.28v173.34" stroke="#3a414a" stroke-width="4" fill="none"/><path d="M-2078.3 651.33h-3.95v-2.05h3.95z" stroke="#3a414a" stroke-width=".05" fill="#3a414a"/><path d="M-2080.28 840.88l-4.63-14.26h9.26z" stroke="#3a414a" stroke-width="4" fill="#3a414a"/><path d="M-1989.03 915.06h196.2" stroke="#3a414a" stroke-width="4" fill="none"/><path d="M-1988.97 917.04h-2.06v-3.95h2.06z" stroke="#3a414a" stroke-width=".05" fill="#3a414a"/><path d="M-1776.57 915.06l-14.26 4.64v-9.27z" stroke="#3a414a" stroke-width="4" fill="#3a414a"/><path d="M-1589.6 915.06h183.74" stroke="#3a414a" stroke-width="4" fill="none"/><path d="M-1589.54 917.04h-2.05v-3.95h2.06z" stroke="#3a414a" stroke-width=".05" fill="#3a414a"/><path d="M-1389.6 915.06l-14.26 4.64v-9.27z" stroke="#3a414a" stroke-width="4" fill="#3a414a"/><path d="M-1291.1 986.85v171.26" stroke="#3a414a" stroke-width="4" fill="none"/><path d="M-1289.14 986.9h-3.95v-2.05h3.96z" stroke="#3a414a" stroke-width=".05" fill="#3a414a"/><path d="M-1291.1 1174.38l-4.65-14.27h9.27z" stroke="#3a414a" stroke-width="4" fill="#3a414a"/><path d="M-2260-194a6 6 0 0 1 6-6h1501.4a6 6 0 0 1 6 6v1517.74a6 6 0 0 1-6 6H-2254a6 6 0 0 1-6-6z" stroke="#3a414a" stroke-width="2" fill="#fff"/><path d="M-2260-286.4a6 6 0 0 1 6-6h347.3a6 6 0 0 1 6 6v68.4a6 6 0 0 1-6 6H-2254a6 6 0 0 1-6-6z" fill="#3a414a"/><use xlink:href="#a" transform="matrix(1,0,0,1,-2244,-276.3984375) translate(0 39.05078125)"/><path d="M-2046.84-120c18.47 0 33.45 14.97 33.45 33.44 0 18.48-14.96 33.45-33.44 33.45h-66.88c-18.48 0-33.45-14.98-33.45-33.46 0-18.47 14.97-33.44 33.45-33.44z" stroke="#1071e5" stroke-width="4" fill="#6db1ff"/><use xlink:href="#b" transform="matrix(1,0,0,1,-2142.16796875,-115) translate(36.951171875 35.77777777777778)"/><path d="M-2146.1 178.4a6 6 0 0 1 6-6h119.65a6 6 0 0 1 6 6v87.16a6 6 0 0 1-6 6h-119.66a6 6 0 0 1-6-6z" stroke="#1071e5" stroke-width="4" fill="#cfe4ff"/><use xlink:href="#c" transform="matrix(1,0,0,1,-2134.1114668715845,184.40901491769552) translate(28.055989583333332 31.02777777777778)"/><use xlink:href="#d" transform="matrix(1,0,0,1,-2134.1114668715845,184.40901491769552) translate(25.70138888888889 63.29340277777778)"/><path d="M-1780.56 152.9a6 6 0 0 1 6-6h187.44a6 6 0 0 1 6 6v138.18a6 6 0 0 1-6 6h-187.44a6 6 0 0 1-6-6z" stroke="#1071e5" stroke-width="4" fill="#cfe4ff"/><use xlink:href="#e" transform="matrix(1,0,0,1,-1768.5598958333335,158.88802083333337) translate(65.26236979166667 57.24652777777778)"/><use xlink:href="#f" transform="matrix(1,0,0,1,-1768.5598958333335,158.88802083333337) translate(8.279947916666686 89.51215277777777)"/><path d="M-1378.37 162.28a6 6 0 0 1 6-6h162.5a6 6 0 0 1 6 6v119.4a6 6 0 0 1-6 6h-162.5a6 6 0 0 1-6-6z" stroke="#1071e5" stroke-width="4" fill="#cfe4ff"/><use xlink:href="#g" transform="matrix(1,0,0,1,-1366.3648892873407,168.27620241769552) translate(41.889973958333336 28.27777777777778)"/><use xlink:href="#h" transform="matrix(1,0,0,1,-1366.3648892873407,168.27620241769552) translate(23.747612847222236 60.54340277777778)"/><use xlink:href="#i" transform="matrix(1,0,0,1,-1366.3648892873407,168.27620241769552) translate(37.89691840277778 92.80902777777777)"/><path d="M-985.6 173.95a6 6 0 0 1 6-6h131.5a6 6 0 0 1 6 6v96.07a6 6 0 0 1-6 6h-131.5a6 6 0 0 1-6-6z" stroke="#1071e5" stroke-width="4" fill="#cfe4ff"/><use xlink:href="#j" transform="matrix(1,0,0,1,-973.6010395321039,179.9500894847394) translate(39.49761284722222 34.80902777777778)"/><use xlink:href="#k" transform="matrix(1,0,0,1,-973.6010395321039,179.9500894847394) translate(8.247612847222236 67.07465277777777)"/><path d="M-1001.1 512.47a6 6 0 0 1 6-6h162.5a6 6 0 0 1 6 6V631.9a6 6 0 0 1-6 6h-162.5a6 6 0 0 1-6-6z" stroke="#1071e5" stroke-width="4" fill="#cfe4ff"/><use xlink:href="#l" transform="matrix(1,0,0,1,-989.1024305555557,518.4718364197531) translate(33.19856770833334 45.15277777777778)"/><use xlink:href="#m" transform="matrix(1,0,0,1,-989.1024305555557,518.4718364197531) translate(97.423828125 45.15277777777778)"/><use xlink:href="#n" transform="matrix(1,0,0,1,-989.1024305555557,518.4718364197531) translate(1.5308159722222285 77.41840277777777)"/><use xlink:href="#o" transform="matrix(1,0,0,1,-989.1024305555557,518.4718364197531) translate(90.4631076388889 77.41840277777777)"/><path d="M-1378.37 512.47a6 6 0 0 1 6-6h162.5a6 6 0 0 1 6 6V631.9a6 6 0 0 1-6 6h-162.5a6 6 0 0 1-6-6z" stroke="#1071e5" stroke-width="4" fill="#cfe4ff"/><use xlink:href="#p" transform="matrix(1,0,0,1,-1366.3648892873407,518.4718364197531) translate(11.567708333333343 45.15277777777778)"/><use xlink:href="#q" transform="matrix(1,0,0,1,-1366.3648892873407,518.4718364197531) translate(85.30902777777777 45.15277777777778)"/><use xlink:href="#r" transform="matrix(1,0,0,1,-1366.3648892873407,518.4718364197531) translate(19.60807291666667 77.41840277777777)"/><use xlink:href="#s" transform="matrix(1,0,0,1,-1366.3648892873407,518.4718364197531) translate(44.36935763888889 77.41840277777777)"/><path d="M-1780.56 503.08a6 6 0 0 1 6-6h187.44a6 6 0 0 1 6 6v138.2a6 6 0 0 1-6 6h-187.44a6 6 0 0 1-6-6z" stroke="#1071e5" stroke-width="4" fill="#cfe4ff"/><use xlink:href="#t" transform="matrix(1,0,0,1,-1768.5598958333335,509.0836548353909) translate(34.723090277777786 57.24652777777778)"/><use xlink:href="#f" transform="matrix(1,0,0,1,-1768.5598958333335,509.0836548353909) translate(8.279947916666686 89.51215277777777)"/><path d="M-2180 503.08a6 6 0 0 1 6-6h187.44a6 6 0 0 1 6 6v138.2a6 6 0 0 1-6 6H-2174a6 6 0 0 1-6-6z" stroke="#1071e5" stroke-width="4" fill="#cfe4ff"/><use xlink:href="#u" transform="matrix(1,0,0,1,-2168,509.0836548353909) translate(46.51236979166667 57.24652777777778)"/><use xlink:href="#f" transform="matrix(1,0,0,1,-2168,509.0836548353909) translate(8.279947916666686 89.51215277777777)"/><path d="M-2167.53 855.35a6 6 0 0 1 6-6h162.5a6 6 0 0 1 6 6v119.42a6 6 0 0 1-6 6h-162.5a6 6 0 0 1-6-6z" stroke="#1071e5" stroke-width="4" fill="#cfe4ff"/><use xlink:href="#v" transform="matrix(1,0,0,1,-2155.5337260928964,861.3539684070645) translate(5.9253472222222285 45.15277777777778)"/><use xlink:href="#w" transform="matrix(1,0,0,1,-2155.5337260928964,861.3539684070645) translate(88.4123263888889 45.15277777777778)"/><use xlink:href="#x" transform="matrix(1,0,0,1,-2155.5337260928964,861.3539684070645) translate(48.43836805555556 77.41840277777777)"/><path d="M-1768.1 855.35a6 6 0 0 1 6-6h162.5a6 6 0 0 1 6 6v119.42a6 6 0 0 1-6 6h-162.5a6 6 0 0 1-6-6z" stroke="#1071e5" stroke-width="4" fill="#cfe4ff"/><use xlink:href="#y" transform="matrix(1,0,0,1,-1756.0936219262296,861.3539684070645) translate(15.186414930555557 45.15277777777778)"/><use xlink:href="#z" transform="matrix(1,0,0,1,-1756.0936219262296,861.3539684070645) translate(57.71028645833333 45.15277777777778)"/><use xlink:href="#A" transform="matrix(1,0,0,1,-1756.0936219262296,861.3539684070645) translate(35.71592881944445 77.41840277777777)"/><path d="M-1381.12 853.28a6 6 0 0 1 6-6h168.02a6 6 0 0 1 6 6v123.57a6 6 0 0 1-6 6h-168.02a6 6 0 0 1-6-6z" stroke="#1071e5" stroke-width="4" fill="#cfe4ff"/><use xlink:href="#v" transform="matrix(1,0,0,1,-1369.1197916666667,859.2792888374486) translate(3.2992621527777715 49.52777777777778)"/><use xlink:href="#B" transform="matrix(1,0,0,1,-1369.1197916666667,859.2792888374486) translate(85.78624131944444 49.52777777777778)"/><use xlink:href="#C" transform="matrix(1,0,0,1,-1369.1197916666667,859.2792888374486) translate(45.573567708333336 81.79340277777777)"/><path d="M-1257.67 1182.85c18.47 0 33.45 14.97 33.45 33.44 0 18.46-14.98 33.44-33.45 33.44h-66.88c-18.48 0-33.45-14.98-33.45-33.45 0-18.48 14.97-33.45 33.44-33.45z" stroke="#1071e5" stroke-width="4" fill="#6db1ff"/><use xlink:href="#D" transform="matrix(1,0,0,1,-1352.9991319444446,1187.8479188100137) translate(41.95334201388889 35.77777777777778)"/><path d="M-2080.28-49.1v196.77" stroke="#3a414a" stroke-width="4" fill="none"/><path d="M-2078.3-49.06h-3.95v-2.05h3.95z" stroke="#3a414a" stroke-width=".05" fill="#3a414a"/><path d="M-2080.28 163.94l-4.63-14.27h9.26z" stroke="#3a414a" stroke-width="4" fill="#3a414a"/><path d="M-2010.45 222h205.15" stroke="#3a414a" stroke-width="4" fill="none"/><path d="M-2010.4 223.96h-2.05V220h2.05z" stroke="#3a414a" stroke-width=".05" fill="#3a414a"/><path d="M-1789.03 222l-14.27 4.62v-9.27z" stroke="#3a414a" stroke-width="4" fill="#3a414a"/><path d="M-1577.12 222h174.02" stroke="#3a414a" stroke-width="4" fill="none"/><path d="M-1577.07 223.96h-2.05V220h2.05z" stroke="#3a414a" stroke-width=".05" fill="#3a414a"/><path d="M-1386.84 222l-14.26 4.62v-9.27z" stroke="#3a414a" stroke-width="4" fill="#3a414a"/><g><use xlink:href="#E" transform="matrix(1,0,0,1,-1529.4298405603372,196.4754211676955) translate(0 17.22222222222222)"/></g><path d="M-1199.86 222h189.52" stroke="#3a414a" stroke-width="4" fill="none"/><path d="M-1199.8 223.96h-2.06V220h2.05z" stroke="#3a414a" stroke-width=".05" fill="#3a414a"/><path d="M-994.07 222l-14.27 4.62v-9.27z" stroke="#3a414a" stroke-width="4" fill="#3a414a"/><path d="M-913.85 280.02v201.7" stroke="#3a414a" stroke-width="4" fill="none"/><path d="M-911.87 280.07h-3.95v-2.05h3.95z" stroke="#3a414a" stroke-width=".05" fill="#3a414a"/><path d="M-913.85 498l-4.63-14.27h9.27z" stroke="#3a414a" stroke-width="4" fill="#3a414a"/><path d="M-1005.1 572.18h-174.02" stroke="#3a414a" stroke-width="4" fill="none"/><path d="M-1003.1 574.16h-2.05v-3.95h2.05z" stroke="#3a414a" stroke-width=".05" fill="#3a414a"/><path d="M-1195.38 572.18l14.26-4.63v9.27z" stroke="#3a414a" stroke-width="4" fill="#3a414a"/><path d="M-1382.37 572.18h-174" stroke="#3a414a" stroke-width="4" fill="none"/><path d="M-1380.37 574.16h-2.05v-3.95h2.06z" stroke="#3a414a" stroke-width=".05" fill="#3a414a"/><path d="M-1572.65 572.18l14.27-4.63v9.27z" stroke="#3a414a" stroke-width="4" fill="#3a414a"/><path d="M-1930.25 574.16h-25.57v-3.95h25.57zm145.7 0h-46.32v-3.95h46.3z" stroke="#3a414a" stroke-width=".05" fill="#3a414a"/><path d="M-1782.56 574.16h-2.05v-3.95h2.04z" fill="#3a414a"/><path stroke="#3a414a" stroke-width=".05" fill="#3a414a"/><path d="M-1957.82 576.82l-14.27-4.64 14.28-4.63z" fill="#3a414a"/><path d="M-1955.85 579.53l-22.63-7.35 22.63-7.35zm-9.85-7.35l5.9 1.92v-3.84z" stroke="#3a414a" stroke-width=".05" fill="#3a414a"/><g><use xlink:href="#E" transform="matrix(1,0,0,1,-1930.2473959166668,561.4262635030864) translate(0 17.22222222222222)"/></g><path d="M-2080.28 651.28v173.34" stroke="#3a414a" stroke-width="4" fill="none"/><path d="M-2078.3 651.33h-3.95v-2.05h3.95z" stroke="#3a414a" stroke-width=".05" fill="#3a414a"/><path d="M-2080.28 840.88l-4.63-14.26h9.26z" stroke="#3a414a" stroke-width="4" fill="#3a414a"/><path d="M-1989.03 915.06h196.2" stroke="#3a414a" stroke-width="4" fill="none"/><path d="M-1988.97 917.04h-2.06v-3.95h2.06z" stroke="#3a414a" stroke-width=".05" fill="#3a414a"/><path d="M-1776.57 915.06l-14.26 4.64v-9.27z" stroke="#3a414a" stroke-width="4" fill="#3a414a"/><path d="M-1589.6 915.06h183.74" stroke="#3a414a" stroke-width="4" fill="none"/><path d="M-1589.54 917.04h-2.05v-3.95h2.06z" stroke="#3a414a" stroke-width=".05" fill="#3a414a"/><path d="M-1389.6 915.06l-14.26 4.64v-9.27z" stroke="#3a414a" stroke-width="4" fill="#3a414a"/><path d="M-1291.1 986.85v171.26" stroke="#3a414a" stroke-width="4" fill="none"/><path d="M-1289.14 986.9h-3.95v-2.05h3.96z" stroke="#3a414a" stroke-width=".05" fill="#3a414a"/><path d="M-1291.1 1174.38l-4.65-14.27h9.27z" stroke="#3a414a" stroke-width="4" fill="#3a414a"/><defs><path fill="#fff" d="M763 24c-353 0-583-224-583-531v-983h190v968c0 214 149 370 393 370 243 0 391-156 391-370v-968h190v983c0 307-230 531-581 531" id="F"/><path fill="#fff" d="M338-670V0H158v-1118h173l1 207c72-158 192-221 342-221 226 0 378 139 378 422V0H872v-695c0-172-96-275-252-275-161 0-282 109-282 300" id="G"/><path fill="#fff" d="M577 24c-279 0-473-224-473-580 0-354 195-576 474-576 218 0 287 134 324 193h14v-551h180V0H922v-173h-20C865-111 790 24 577 24zm27-161c203 0 314-172 314-421 0-247-108-413-314-413-212 0-317 181-317 413 0 235 108 421 317 421" id="H"/><path fill="#fff" d="M613 24c-304 0-509-231-509-576 0-350 205-580 509-580 305 0 511 230 511 580 0 345-206 576-511 576zm0-161c226 0 329-195 329-415 0-222-103-419-329-419-223 0-326 196-326 419 0 220 103 415 326 415" id="I"/><path fill="#fff" d="M934 0v166H0V0h934" id="J"/><path fill="#fff" d="M180 0v-1490h510c348 0 508 194 508 460 0 198-88 351-276 417L1256 0h-220L726-579c-117 2-238 0-356 1V0H180zm190-747h312c235 0 327-108 327-283 0-177-92-293-329-293H370v576" id="K"/><path fill="#fff" d="M628 24c-324 0-524-230-524-574 0-343 198-582 503-582 237 0 487 146 487 559v75H286c9 234 145 362 343 362 132 0 231-58 273-172l174 48C1024-91 857 24 628 24zM287-650h624c-17-190-120-322-304-322-192 0-309 151-320 322" id="L"/><path fill="#fff" d="M180 0v-1490h901v168H370v510h643v168H370V0H180" id="M"/><path fill="#fff" d="M338-1490V0H158v-1490h180" id="N"/><path fill="#fff" d="M409 0L70-1118h191c89 329 165 560 243 925 75-353 154-601 240-925h192c85 325 161 564 235 922 77-354 157-598 244-922h191L1267 0h-179c-86-307-176-590-250-913C763-588 675-308 588 0H409" id="O"/><g id="a"><use transform="matrix(0.01953125,0,0,0.01953125,0,0)" xlink:href="#F"/><use transform="matrix(0.01953125,0,0,0.01953125,29.765625,0)" xlink:href="#G"/><use transform="matrix(0.01953125,0,0,0.01953125,53.3984375,0)" xlink:href="#H"/><use transform="matrix(0.01953125,0,0,0.01953125,77.890625,0)" xlink:href="#I"/><use transform="matrix(0.01953125,0,0,0.01953125,101.875,0)" xlink:href="#J"/><use transform="matrix(0.01953125,0,0,0.01953125,121.46484375,0)" xlink:href="#K"/><use transform="matrix(0.01953125,0,0,0.01953125,146.62109375,0)" xlink:href="#L"/><use transform="matrix(0.01953125,0,0,0.01953125,169.94140625,0)" xlink:href="#H"/><use transform="matrix(0.01953125,0,0,0.01953125,194.43359375,0)" xlink:href="#I"/><use transform="matrix(0.01953125,0,0,0.01953125,218.41796875,0)" xlink:href="#J"/><use transform="matrix(0.01953125,0,0,0.01953125,238.0078125,0)" xlink:href="#M"/><use transform="matrix(0.01953125,0,0,0.01953125,261.62109375,0)" xlink:href="#N"/><use transform="matrix(0.01953125,0,0,0.01953125,271.30859375,0)" xlink:href="#I"/><use transform="matrix(0.01953125,0,0,0.01953125,294.5703125,0)" xlink:href="#O"/></g><path d="M657 26c-323 0-524-166-541-416h195c15 169 171 246 346 246 202 0 356-106 356-265 5-203-294-238-475-293-239-73-380-191-380-389 0-252 224-419 512-419 294 0 499 171 508 396H992c-17-145-151-228-328-228-193 0-321 102-321 242 0 156 175 211 284 241l149 41c160 44 422 134 422 412 0 244-197 432-541 432" id="P"/><path d="M598-1118v154H368v674c0 100 37 144 132 144 23 0 62-6 92-12L629-6c-37 13-88 20-134 20-193 0-307-107-307-290v-688H20v-154h168v-266h180v266h230" id="Q"/><path d="M471 26C259 26 90-98 90-318c0-256 228-303 435-329 202-27 287-16 287-108 0-139-79-219-234-219-161 0-248 86-283 164l-173-57c86-203 278-265 451-265 150 0 419 46 419 395V0H815v-152h-12C765-73 660 26 471 26zm31-159c199 0 310-134 310-271v-155c-30 35-226 55-295 64-131 17-246 59-246 186 0 116 97 176 231 176" id="R"/><path d="M158 0v-1118h174v172h12c41-113 157-188 290-188 26 0 70 2 91 3v181c-11-2-60-10-108-10-161 0-279 109-279 260V0H158" id="S"/><g id="b"><use transform="matrix(0.010850694444444444,0,0,0.010850694444444444,0,0)" xlink:href="#P"/><use transform="matrix(0.010850694444444444,0,0,0.010850694444444444,14.2578125,0)" xlink:href="#Q"/><use transform="matrix(0.010850694444444444,0,0,0.010850694444444444,21.63628472222222,0)" xlink:href="#R"/><use transform="matrix(0.010850694444444444,0,0,0.010850694444444444,34.11458333333333,0)" xlink:href="#S"/><use transform="matrix(0.010850694444444444,0,0,0.010850694444444444,42.827690972222214,0)" xlink:href="#Q"/></g><path d="M783 20c-382 0-661-292-661-764 0-473 279-766 661-766 302 0 548 182 601 489h-190c-42-204-217-313-411-313-268 0-476 208-476 590 0 381 209 588 476 588 195 0 369-110 411-313h190c-52 303-296 489-601 489" id="T"/><path d="M338-1490V0H158v-1490h180" id="U"/><path d="M158 0v-1118h180V0H158zm91-1301c-68 0-125-53-125-119s57-119 125-119c69 0 126 53 126 119s-57 119-126 119" id="V"/><path d="M613 24c-304 0-509-231-509-576 0-350 205-580 509-580 216 0 392 114 453 309l-173 49c-33-115-133-197-280-197-223 0-326 196-326 419 0 220 103 415 326 415 150 0 252-85 285-206l172 49C1010-95 832 24 613 24" id="W"/><path d="M158 0v-1490h180v865h22l478-493h223L593-638 1096 0H865L456-523 338-412V0H158" id="X"/><g id="c"><use transform="matrix(0.010850694444444444,0,0,0.010850694444444444,0,0)" xlink:href="#T"/><use transform="matrix(0.010850694444444444,0,0,0.010850694444444444,16.23263888888889,0)" xlink:href="#U"/><use transform="matrix(0.010850694444444444,0,0,0.010850694444444444,21.614583333333336,0)" xlink:href="#V"/><use transform="matrix(0.010850694444444444,0,0,0.010850694444444444,26.99652777777778,0)" xlink:href="#W"/><use transform="matrix(0.010850694444444444,0,0,0.010850694444444444,39.69184027777778,0)" xlink:href="#X"/></g><path d="M763 24c-353 0-583-224-583-531v-983h190v968c0 214 149 370 393 370 243 0 391-156 391-370v-968h190v983c0 307-230 531-581 531" id="Y"/><path d="M338-670V0H158v-1118h173l1 207c72-158 192-221 342-221 226 0 378 139 378 422V0H872v-695c0-172-96-275-252-275-161 0-282 109-282 300" id="Z"/><path d="M577 24c-279 0-473-224-473-580 0-354 195-576 474-576 218 0 287 134 324 193h14v-551h180V0H922v-173h-20C865-111 790 24 577 24zm27-161c203 0 314-172 314-421 0-247-108-413-314-413-212 0-317 181-317 413 0 235 108 421 317 421" id="aa"/><path d="M613 24c-304 0-509-231-509-576 0-350 205-580 509-580 305 0 511 230 511 580 0 345-206 576-511 576zm0-161c226 0 329-195 329-415 0-222-103-419-329-419-223 0-326 196-326 419 0 220 103 415 326 415" id="ab"/><g id="d"><use transform="matrix(0.010850694444444444,0,0,0.010850694444444444,0,0)" xlink:href="#Y"/><use transform="matrix(0.010850694444444444,0,0,0.010850694444444444,16.536458333333332,0)" xlink:href="#Z"/><use transform="matrix(0.010850694444444444,0,0,0.010850694444444444,29.665798611111104,0)" xlink:href="#aa"/><use transform="matrix(0.010850694444444444,0,0,0.010850694444444444,43.27256944444444,0)" xlink:href="#ab"/></g><path d="M180 0v-1490h908v168H370v486h669v168H370v500h727V0H180" id="ac"/><path d="M158 0v-1118h175l1 205c55-151 181-225 313-225 147 0 245 90 285 228 53-141 190-228 352-228 194 0 352 125 352 384V0h-181v-749c0-161-105-225-225-225-151 0-243 103-243 244V0H807v-767c0-124-93-207-219-207-131 0-250 92-250 270V0H158" id="ad"/><g id="e"><use transform="matrix(0.010850694444444444,0,0,0.010850694444444444,0,0)" xlink:href="#ac"/><use transform="matrix(0.010850694444444444,0,0,0.010850694444444444,13.35720486111111,0)" xlink:href="#ad"/><use transform="matrix(0.010850694444444444,0,0,0.010850694444444444,32.82335069444444,0)" xlink:href="#V"/><use transform="matrix(0.010850694444444444,0,0,0.010850694444444444,38.205295138888886,0)" xlink:href="#Q"/></g><path d="M158 418v-1536h174v179h20c37-59 106-193 324-193 279 0 474 222 474 576 0 356-194 580-473 580-213 0-288-135-325-197h-14v591H158zm492-555c209 0 317-186 317-421 0-232-105-413-317-413-206 0-314 166-314 413 0 249 111 421 314 421" id="ae"/><path d="M628 24c-324 0-524-230-524-574 0-343 198-582 503-582 237 0 487 146 487 559v75H286c9 234 145 362 343 362 132 0 231-58 273-172l174 48C1024-91 857 24 628 24zM287-650h624c-17-190-120-322-304-322-192 0-309 151-320 322" id="af"/><path d="M295 13c-75 0-135-60-135-135s60-135 135-135 135 60 135 135S370 13 295 13zm0-809c-75 0-135-60-135-135s60-135 135-135 135 60 135 135-60 135-135 135" id="ag"/><path d="M537 14c-226 0-379-139-379-422v-710h180v695c0 172 97 275 253 275 160 0 281-109 281-300v-670h181V0H879v-209C806-46 684 14 537 14" id="ah"/><g id="f"><use transform="matrix(0.010850694444444444,0,0,0.010850694444444444,0,0)" xlink:href="#ab"/><use transform="matrix(0.010850694444444444,0,0,0.010850694444444444,13.324652777777777,0)" xlink:href="#ae"/><use transform="matrix(0.010850694444444444,0,0,0.010850694444444444,26.931423611111104,0)" xlink:href="#af"/><use transform="matrix(0.010850694444444444,0,0,0.010850694444444444,39.88715277777777,0)" xlink:href="#S"/><use transform="matrix(0.010850694444444444,0,0,0.010850694444444444,48.253038194444436,0)" xlink:href="#R"/><use transform="matrix(0.010850694444444444,0,0,0.010850694444444444,60.73133680555554,0)" xlink:href="#Q"/><use transform="matrix(0.010850694444444444,0,0,0.010850694444444444,68.00130208333331,0)" xlink:href="#V"/><use transform="matrix(0.010850694444444444,0,0,0.010850694444444444,73.38324652777776,0)" xlink:href="#ab"/><use transform="matrix(0.010850694444444444,0,0,0.010850694444444444,86.70789930555553,0)" xlink:href="#Z"/><use transform="matrix(0.010850694444444444,0,0,0.010850694444444444,99.83723958333329,0)" xlink:href="#ag"/><use transform="matrix(0.010850694444444444,0,0,0.010850694444444444,106.23914930555553,0)" xlink:href="#ah"/><use transform="matrix(0.010850694444444444,0,0,0.010850694444444444,119.37934027777773,0)" xlink:href="#Z"/><use transform="matrix(0.010850694444444444,0,0,0.010850694444444444,132.50868055555551,0)" xlink:href="#aa"/><use transform="matrix(0.010850694444444444,0,0,0.010850694444444444,146.11545138888886,0)" xlink:href="#ab"/></g><path d="M338-670V0H158v-1490h180v566c73-149 190-208 336-208 226 0 379 139 379 422V0H872v-695c0-172-96-275-252-275-161 0-282 109-282 300" id="ai"/><g id="g"><use transform="matrix(0.010850694444444444,0,0,0.010850694444444444,0,0)" xlink:href="#T"/><use transform="matrix(0.010850694444444444,0,0,0.010850694444444444,16.23263888888889,0)" xlink:href="#ai"/><use transform="matrix(0.010850694444444444,0,0,0.010850694444444444,29.37282986111111,0)" xlink:href="#af"/><use transform="matrix(0.010850694444444444,0,0,0.010850694444444444,42.32855902777778,0)" xlink:href="#W"/><use transform="matrix(0.010850694444444444,0,0,0.010850694444444444,55.02387152777778,0)" xlink:href="#X"/></g><path d="M784 20c-382 0-662-292-662-764 0-473 280-766 662-766s660 293 660 766c0 472-278 764-660 764zm0-176c266 0 475-207 475-588 0-383-209-590-475-590-268 0-477 208-477 590 0 380 209 588 477 588" id="aj"/><g id="h"><use transform="matrix(0.010850694444444444,0,0,0.010850694444444444,0,0)" xlink:href="#aj"/><use transform="matrix(0.010850694444444444,0,0,0.010850694444444444,16.9921875,0)" xlink:href="#ae"/><use transform="matrix(0.010850694444444444,0,0,0.010850694444444444,30.598958333333332,0)" xlink:href="#af"/><use transform="matrix(0.010850694444444444,0,0,0.010850694444444444,43.5546875,0)" xlink:href="#S"/><use transform="matrix(0.010850694444444444,0,0,0.010850694444444444,51.920572916666664,0)" xlink:href="#R"/><use transform="matrix(0.010850694444444444,0,0,0.010850694444444444,64.39887152777777,0)" xlink:href="#Q"/><use transform="matrix(0.010850694444444444,0,0,0.010850694444444444,71.66883680555554,0)" xlink:href="#V"/><use transform="matrix(0.010850694444444444,0,0,0.010850694444444444,77.05078124999999,0)" xlink:href="#ab"/><use transform="matrix(0.010850694444444444,0,0,0.010850694444444444,90.37543402777776,0)" xlink:href="#Z"/></g><path d="M180 0v-1490h190v644h782v-644h190V0h-190v-678H370V0H180" id="ak"/><path d="M538 24C308 24 148-78 108-271l171-41c32 123 123 178 257 178 156 0 256-77 256-169 0-77-54-128-164-154l-186-44c-203-48-300-148-300-305 0-192 176-326 414-326 230 0 351 112 402 269l-163 42c-31-80-94-158-238-158-133 0-233 69-233 162 0 83 57 129 188 160l169 40c203 48 298 149 298 302 0 196-179 339-441 339" id="al"/><path d="M140 405l46-156c120 36 205 19 263-150l32-93L54-1118h197c107 313 237 620 324 950 87-331 219-637 326-950h196L606 167c-68 178-176 259-334 259-64 0-113-12-132-21" id="am"/><g id="i"><use transform="matrix(0.010850694444444444,0,0,0.010850694444444444,0,0)" xlink:href="#ak"/><use transform="matrix(0.010850694444444444,0,0,0.010850694444444444,16.514756944444443,0)" xlink:href="#V"/><use transform="matrix(0.010850694444444444,0,0,0.010850694444444444,21.896701388888886,0)" xlink:href="#al"/><use transform="matrix(0.010850694444444444,0,0,0.010850694444444444,33.62630208333333,0)" xlink:href="#Q"/><use transform="matrix(0.010850694444444444,0,0,0.010850694444444444,40.67925347222222,0)" xlink:href="#ab"/><use transform="matrix(0.010850694444444444,0,0,0.010850694444444444,54.00390625,0)" xlink:href="#S"/><use transform="matrix(0.010850694444444444,0,0,0.010850694444444444,62.717013888888886,0)" xlink:href="#am"/></g><path d="M180 0v-1490h510c348 0 508 209 508 474 0 266-160 477-507 477H370V0H180zm190-706h312c236 0 327-133 327-310 0-176-91-307-329-307H370v617" id="an"/><g id="j"><use transform="matrix(0.010850694444444444,0,0,0.010850694444444444,0,0)" xlink:href="#an"/><use transform="matrix(0.010850694444444444,0,0,0.010850694444444444,14.073350694444445,0)" xlink:href="#ab"/><use transform="matrix(0.010850694444444444,0,0,0.010850694444444444,27.39800347222222,0)" xlink:href="#ae"/></g><g id="k"><use transform="matrix(0.010850694444444444,0,0,0.010850694444444444,0,0)" xlink:href="#aj"/><use transform="matrix(0.010850694444444444,0,0,0.010850694444444444,16.9921875,0)" xlink:href="#ae"/><use transform="matrix(0.010850694444444444,0,0,0.010850694444444444,30.598958333333332,0)" xlink:href="#af"/><use transform="matrix(0.010850694444444444,0,0,0.010850694444444444,43.5546875,0)" xlink:href="#S"/><use transform="matrix(0.010850694444444444,0,0,0.010850694444444444,51.920572916666664,0)" xlink:href="#R"/><use transform="matrix(0.010850694444444444,0,0,0.010850694444444444,64.39887152777777,0)" xlink:href="#Q"/><use transform="matrix(0.010850694444444444,0,0,0.010850694444444444,71.66883680555554,0)" xlink:href="#V"/><use transform="matrix(0.010850694444444444,0,0,0.010850694444444444,77.05078124999999,0)" xlink:href="#ab"/><use transform="matrix(0.010850694444444444,0,0,0.010850694444444444,90.37543402777776,0)" xlink:href="#Z"/></g><path d="M180 0v-1490h270l367 940c28 72 75 218 110 339 35-117 81-264 110-339l362-940h271V0h-187c2-448-5-837 7-1287-157 497-311 829-483 1287H842C666-458 514-784 354-1284c12 438 5 843 7 1284H180" id="ao"/><path d="M481 0L54-1118h197c107 314 236 620 325 951 87-331 217-637 324-951h197L670 0H481" id="ap"/><g id="l"><use transform="matrix(0.010850694444444444,0,0,0.010850694444444444,0,0)" xlink:href="#ao"/><use transform="matrix(0.010850694444444444,0,0,0.010850694444444444,20.07378472222222,0)" xlink:href="#ab"/><use transform="matrix(0.010850694444444444,0,0,0.010850694444444444,32.96440972222222,0)" xlink:href="#ap"/><use transform="matrix(0.010850694444444444,0,0,0.010850694444444444,45.01953125,0)" xlink:href="#af"/></g><g id="m"><use transform="matrix(0.010850694444444444,0,0,0.010850694444444444,0,0)" xlink:href="#Q"/><use transform="matrix(0.010850694444444444,0,0,0.010850694444444444,7.052951388888888,0)" xlink:href="#ab"/></g><g id="n"><use transform="matrix(0.010850694444444444,0,0,0.010850694444444444,0,0)" xlink:href="#Y"/><use transform="matrix(0.010850694444444444,0,0,0.010850694444444444,16.536458333333332,0)" xlink:href="#Z"/><use transform="matrix(0.010850694444444444,0,0,0.010850694444444444,29.665798611111104,0)" xlink:href="#aa"/><use transform="matrix(0.010850694444444444,0,0,0.010850694444444444,43.27256944444444,0)" xlink:href="#ab"/><use transform="matrix(0.010850694444444444,0,0,0.010850694444444444,56.59722222222222,0)" xlink:href="#Z"/><use transform="matrix(0.010850694444444444,0,0,0.010850694444444444,69.7265625,0)" xlink:href="#af"/></g><g id="o"><use transform="matrix(0.010850694444444444,0,0,0.010850694444444444,0,0)" xlink:href="#P"/><use transform="matrix(0.010850694444444444,0,0,0.010850694444444444,14.2578125,0)" xlink:href="#Q"/><use transform="matrix(0.010850694444444444,0,0,0.010850694444444444,21.63628472222222,0)" xlink:href="#R"/><use transform="matrix(0.010850694444444444,0,0,0.010850694444444444,34.11458333333333,0)" xlink:href="#W"/><use transform="matrix(0.010850694444444444,0,0,0.010850694444444444,46.80989583333333,0)" xlink:href="#X"/></g><path d="M180 0v-1490h510c348 0 508 194 508 460 0 198-88 351-276 417L1256 0h-220L726-579c-117 2-238 0-356 1V0H180zm190-747h312c235 0 327-108 327-283 0-177-92-293-329-293H370v576" id="aq"/><g id="p"><use transform="matrix(0.010850694444444444,0,0,0.010850694444444444,0,0)" xlink:href="#aq"/><use transform="matrix(0.010850694444444444,0,0,0.010850694444444444,13.975694444444445,0)" xlink:href="#af"/><use transform="matrix(0.010850694444444444,0,0,0.010850694444444444,26.49739583333333,0)" xlink:href="#ap"/><use transform="matrix(0.010850694444444444,0,0,0.010850694444444444,38.55251736111111,0)" xlink:href="#af"/><use transform="matrix(0.010850694444444444,0,0,0.010850694444444444,51.50824652777778,0)" xlink:href="#S"/><use transform="matrix(0.010850694444444444,0,0,0.010850694444444444,60.22135416666666,0)" xlink:href="#Q"/></g><g id="q"><use transform="matrix(0.010850694444444444,0,0,0.010850694444444444,0,0)" xlink:href="#P"/><use transform="matrix(0.010850694444444444,0,0,0.010850694444444444,14.2578125,0)" xlink:href="#Q"/><use transform="matrix(0.010850694444444444,0,0,0.010850694444444444,21.63628472222222,0)" xlink:href="#R"/><use transform="matrix(0.010850694444444444,0,0,0.010850694444444444,34.11458333333333,0)" xlink:href="#Q"/><use transform="matrix(0.010850694444444444,0,0,0.010850694444444444,41.16753472222222,0)" xlink:href="#af"/></g><g id="r"><use transform="matrix(0.010850694444444444,0,0,0.010850694444444444,0,0)" xlink:href="#V"/><use transform="matrix(0.010850694444444444,0,0,0.010850694444444444,5.381944444444445,0)" xlink:href="#Z"/></g><g id="s"><use transform="matrix(0.010850694444444444,0,0,0.010850694444444444,0,0)" xlink:href="#ao"/><use transform="matrix(0.010850694444444444,0,0,0.010850694444444444,20.07378472222222,0)" xlink:href="#af"/><use transform="matrix(0.010850694444444444,0,0,0.010850694444444444,33.029513888888886,0)" xlink:href="#ad"/><use transform="matrix(0.010850694444444444,0,0,0.010850694444444444,52.49565972222221,0)" xlink:href="#ab"/><use transform="matrix(0.010850694444444444,0,0,0.010850694444444444,65.82031249999999,0)" xlink:href="#S"/><use transform="matrix(0.010850694444444444,0,0,0.010850694444444444,74.53342013888889,0)" xlink:href="#am"/></g><path d="M180 0v-1490h528c311 0 458 177 458 395 0 191-114 278-244 313v14c139 9 302 137 302 371 0 225-148 397-499 397H180zm190-168h350c232 0 321-102 321-231 0-149-120-277-311-277H370v508zm0-668h328c160 0 286-101 286-255 0-129-87-231-280-231H370v486" id="ar"/><g id="t"><use transform="matrix(0.010850694444444444,0,0,0.010850694444444444,0,0)" xlink:href="#ar"/><use transform="matrix(0.010850694444444444,0,0,0.010850694444444444,14.539930555555555,0)" xlink:href="#S"/><use transform="matrix(0.010850694444444444,0,0,0.010850694444444444,22.53689236111111,0)" xlink:href="#ab"/><use transform="matrix(0.010850694444444444,0,0,0.010850694444444444,36.07855902777778,0)" xlink:href="#R"/><use transform="matrix(0.010850694444444444,0,0,0.010850694444444444,48.556857638888886,0)" xlink:href="#aa"/><use transform="matrix(0.010850694444444444,0,0,0.010850694444444444,62.16362847222221,0)" xlink:href="#W"/><use transform="matrix(0.010850694444444444,0,0,0.010850694444444444,75.0759548611111,0)" xlink:href="#R"/><use transform="matrix(0.010850694444444444,0,0,0.010850694444444444,87.55425347222221,0)" xlink:href="#al"/><use transform="matrix(0.010850694444444444,0,0,0.010850694444444444,99.28385416666666,0)" xlink:href="#Q"/></g><g id="u"><use transform="matrix(0.010850694444444444,0,0,0.010850694444444444,0,0)" xlink:href="#aq"/><use transform="matrix(0.010850694444444444,0,0,0.010850694444444444,13.975694444444445,0)" xlink:href="#af"/><use transform="matrix(0.010850694444444444,0,0,0.010850694444444444,26.931423611111104,0)" xlink:href="#W"/><use transform="matrix(0.010850694444444444,0,0,0.010850694444444444,39.62673611111111,0)" xlink:href="#af"/><use transform="matrix(0.010850694444444444,0,0,0.010850694444444444,52.58246527777778,0)" xlink:href="#V"/><use transform="matrix(0.010850694444444444,0,0,0.010850694444444444,57.96440972222221,0)" xlink:href="#ap"/><use transform="matrix(0.010850694444444444,0,0,0.010850694444444444,70.01953124999999,0)" xlink:href="#af"/></g><g id="v"><use transform="matrix(0.010850694444444444,0,0,0.010850694444444444,0,0)" xlink:href="#Y"/><use transform="matrix(0.010850694444444444,0,0,0.010850694444444444,16.536458333333332,0)" xlink:href="#ae"/><use transform="matrix(0.010850694444444444,0,0,0.010850694444444444,30.143229166666664,0)" xlink:href="#aa"/><use transform="matrix(0.010850694444444444,0,0,0.010850694444444444,43.75,0)" xlink:href="#R"/><use transform="matrix(0.010850694444444444,0,0,0.010850694444444444,56.22829861111112,0)" xlink:href="#Q"/><use transform="matrix(0.010850694444444444,0,0,0.010850694444444444,63.28125000000001,0)" xlink:href="#af"/></g><path d="M180 0v-1490h190v1322h690V0H180" id="as"/><g id="w"><use transform="matrix(0.010850694444444444,0,0,0.010850694444444444,0,0)" xlink:href="#as"/><use transform="matrix(0.010850694444444444,0,0,0.010850694444444444,12.565104166666666,0)" xlink:href="#ab"/><use transform="matrix(0.010850694444444444,0,0,0.010850694444444444,25.889756944444443,0)" xlink:href="#W"/><use transform="matrix(0.010850694444444444,0,0,0.010850694444444444,38.80208333333333,0)" xlink:href="#R"/><use transform="matrix(0.010850694444444444,0,0,0.010850694444444444,51.28038194444444,0)" xlink:href="#U"/></g><g id="x"><use transform="matrix(0.010850694444444444,0,0,0.010850694444444444,0,0)" xlink:href="#P"/><use transform="matrix(0.010850694444444444,0,0,0.010850694444444444,14.2578125,0)" xlink:href="#Q"/><use transform="matrix(0.010850694444444444,0,0,0.010850694444444444,21.63628472222222,0)" xlink:href="#R"/><use transform="matrix(0.010850694444444444,0,0,0.010850694444444444,34.11458333333333,0)" xlink:href="#Q"/><use transform="matrix(0.010850694444444444,0,0,0.010850694444444444,41.16753472222222,0)" xlink:href="#af"/></g><path d="M180 0v-1490h901v168H370v510h643v168H370V0H180" id="at"/><g id="y"><use transform="matrix(0.010850694444444444,0,0,0.010850694444444444,0,0)" xlink:href="#at"/><use transform="matrix(0.010850694444444444,0,0,0.010850694444444444,12.369791666666666,0)" xlink:href="#ah"/><use transform="matrix(0.010850694444444444,0,0,0.010850694444444444,25.50998263888889,0)" xlink:href="#U"/><use transform="matrix(0.010850694444444444,0,0,0.010850694444444444,30.89192708333333,0)" xlink:href="#U"/></g><g id="z"><use transform="matrix(0.010850694444444444,0,0,0.010850694444444444,0,0)" xlink:href="#T"/><use transform="matrix(0.010850694444444444,0,0,0.010850694444444444,16.23263888888889,0)" xlink:href="#R"/><use transform="matrix(0.010850694444444444,0,0,0.010850694444444444,28.7109375,0)" xlink:href="#Z"/><use transform="matrix(0.010850694444444444,0,0,0.010850694444444444,41.51475694444444,0)" xlink:href="#ap"/><use transform="matrix(0.010850694444444444,0,0,0.010850694444444444,53.89539930555556,0)" xlink:href="#R"/><use transform="matrix(0.010850694444444444,0,0,0.010850694444444444,66.37369791666667,0)" xlink:href="#al"/></g><path d="M409 0L70-1118h191c89 329 165 560 243 925 75-353 154-601 240-925h192c85 325 161 564 235 922 77-354 157-598 244-922h191L1267 0h-179c-86-307-176-590-250-913C763-588 675-308 588 0H409" id="au"/><g id="A"><use transform="matrix(0.010850694444444444,0,0,0.010850694444444444,0,0)" xlink:href="#aq"/><use transform="matrix(0.010850694444444444,0,0,0.010850694444444444,13.975694444444445,0)" xlink:href="#af"/><use transform="matrix(0.010850694444444444,0,0,0.010850694444444444,26.931423611111104,0)" xlink:href="#aa"/><use transform="matrix(0.010850694444444444,0,0,0.010850694444444444,40.53819444444444,0)" xlink:href="#S"/><use transform="matrix(0.010850694444444444,0,0,0.010850694444444444,48.90407986111111,0)" xlink:href="#R"/><use transform="matrix(0.010850694444444444,0,0,0.010850694444444444,61.38237847222221,0)" xlink:href="#au"/></g><g id="B"><use transform="matrix(0.010850694444444444,0,0,0.010850694444444444,0,0)" xlink:href="#ar"/><use transform="matrix(0.010850694444444444,0,0,0.010850694444444444,14.539930555555555,0)" xlink:href="#ah"/><use transform="matrix(0.010850694444444444,0,0,0.010850694444444444,27.68012152777778,0)" xlink:href="#Q"/><use transform="matrix(0.010850694444444444,0,0,0.010850694444444444,34.407552083333336,0)" xlink:href="#Q"/><use transform="matrix(0.010850694444444444,0,0,0.010850694444444444,41.46050347222223,0)" xlink:href="#ab"/><use transform="matrix(0.010850694444444444,0,0,0.010850694444444444,54.78515625000001,0)" xlink:href="#Z"/></g><g id="C"><use transform="matrix(0.010850694444444444,0,0,0.010850694444444444,0,0)" xlink:href="#P"/><use transform="matrix(0.010850694444444444,0,0,0.010850694444444444,14.2578125,0)" xlink:href="#Q"/><use transform="matrix(0.010850694444444444,0,0,0.010850694444444444,21.63628472222222,0)" xlink:href="#R"/><use transform="matrix(0.010850694444444444,0,0,0.010850694444444444,34.11458333333333,0)" xlink:href="#Q"/><use transform="matrix(0.010850694444444444,0,0,0.010850694444444444,41.16753472222222,0)" xlink:href="#af"/><use transform="matrix(0.010850694444444444,0,0,0.010850694444444444,54.123263888888886,0)" xlink:href="#al"/></g><g id="D"><use transform="matrix(0.010850694444444444,0,0,0.010850694444444444,0,0)" xlink:href="#ac"/><use transform="matrix(0.010850694444444444,0,0,0.010850694444444444,13.35720486111111,0)" xlink:href="#Z"/><use transform="matrix(0.010850694444444444,0,0,0.010850694444444444,26.48654513888889,0)" xlink:href="#aa"/></g><path fill="#3a414a" d="M449 0L49-1490h333c89 395 194 758 253 1185 65-426 176-790 269-1185h317c93 394 201 758 268 1181 60-425 164-788 253-1181h334L1675 0h-348c-90-376-204-711-266-1118C1004-714 886-373 798 0H449" id="av"/><path fill="#3a414a" d="M633 22C291 22 81-200 81-553c0-345 210-579 537-579 292 0 525 185 525 567v84H378c7 183 109 277 260 277 105 0 184-46 216-132l272 51C1071-99 893 22 633 22zM380-669h474c-15-146-94-237-233-237-143 0-229 99-241 237" id="aw"/><path fill="#3a414a" d="M754 19C571 19 479-89 437-179h-14V0H128v-1490h300v560h9c41-89 129-202 319-202 248 0 453 193 453 575 0 372-197 576-455 576zm-92-241c156 0 240-139 240-336 0-196-83-334-240-334-154 0-241 131-241 334 0 202 88 336 241 336" id="ax"/><path fill="#3a414a" d="M681 22C323 22 94-145 85-462h297c10 151 131 226 296 226 163 0 271-77 271-190 0-102-95-149-257-189l-164-41c-252-61-403-188-403-405 0-269 236-449 560-449 330 0 546 183 551 445H941c-11-119-106-188-259-188-156 0-244 72-244 172-3 156 226 185 373 221 250 61 445 186 445 436 0 271-213 446-575 446" id="ay"/><path fill="#3a414a" d="M628 22C291 22 81-210 81-554c0-346 210-578 547-578 336 0 547 232 547 578 0 344-211 576-547 576zm0-236c160 0 242-146 242-341 0-197-82-341-242-341S387-753 387-555c0 195 81 341 241 341" id="az"/><path fill="#3a414a" d="M628 22C291 22 81-210 81-554c0-346 210-578 547-578 265 0 455 142 497 372l-279 52c-25-116-99-188-215-188-160 0-244 139-244 341 0 200 84 341 244 341 116 0 193-74 217-195l279 51C1085-123 896 22 628 22" id="aA"/><path fill="#3a414a" d="M128 0v-1490h300v802h17l366-430h347L740-633 1179 0H826L514-456l-86 97V0H128" id="aB"/><path fill="#3a414a" d="M683-1118v229H474v562c0 71 29 104 102 104 23 0 73-7 95-13l43 225C647 9 580 16 520 16 296 16 174-96 174-301v-588H20v-229h154v-266h300v266h209" id="aC"/><g id="E"><use transform="matrix(0.008680555555555556,0,0,0.008680555555555556,0,0)" xlink:href="#av"/><use transform="matrix(0.008680555555555556,0,0,0.008680555555555556,17.56076388888889,0)" xlink:href="#aw"/><use transform="matrix(0.008680555555555556,0,0,0.008680555555555556,28.151041666666668,0)" xlink:href="#ax"/><use transform="matrix(0.008680555555555556,0,0,0.008680555555555556,39.35763888888889,0)" xlink:href="#ay"/><use transform="matrix(0.008680555555555556,0,0,0.008680555555555556,50.99826388888889,0)" xlink:href="#az"/><use transform="matrix(0.008680555555555556,0,0,0.008680555555555556,61.90104166666667,0)" xlink:href="#aA"/><use transform="matrix(0.008680555555555556,0,0,0.008680555555555556,72.36111111111111,0)" xlink:href="#aB"/><use transform="matrix(0.008680555555555556,0,0,0.008680555555555556,82.27430555555556,0)" xlink:href="#aw"/><use transform="matrix(0.008680555555555556,0,0,0.008680555555555556,92.86458333333334,0)" xlink:href="#aC"/></g></defs></g></svg>