<svg xmlns="http://www.w3.org/2000/svg" xmlns:xlink="http://www.w3.org/1999/xlink" xmlns:lucid="lucid" width="1529.85" height="1420.31"><g transform="translate(788.8506003109753 1239.3100521744223)" lucid:page-tab-id="0_0"><path d="M-1000-1500h2000V500h-2000z" fill="#fff"/><path d="M-787.85-1140.9a6 6 0 0 1 6-6H734a6 6 0 0 1 6 6V174a6 6 0 0 1-6 6H-781.85a6 6 0 0 1-6-6z" stroke="#3a414a" stroke-width="2" fill="#fff"/><path d="M-787.85-1233.3a6 6 0 0 1 6-6h410.06a6 6 0 0 1 6 6v68.4a6 6 0 0 1-6 6h-410.05a6 6 0 0 1-6-6z" fill="#3a414a"/><use xlink:href="#a" transform="matrix(1,0,0,1,-771.8506003109753,-1223.3100521744223) translate(0 39.05078125)"/><path d="M-707.85-1060.9a6 6 0 0 1 6-6h991.48a6 6 0 0 1 6 6v293.76a6 6 0 0 1-6 6h-991.48a6 6 0 0 1-6-6z" stroke="#fc9432" stroke-width="2" fill="#dfe3e8"/><path d="M-707.85-1110.42a6 6 0 0 1 6-6h223.47a6 6 0 0 1 6 6v25.5a6 6 0 0 1-6 6h-223.47a6 6 0 0 1-6-6z" fill="#fc9432"/><use xlink:href="#b" transform="matrix(1,0,0,1,-699.8506003109753,-1108.422031341089) translate(0 17.46701388888889)"/><use xlink:href="#c" transform="matrix(1,0,0,1,-699.8506003109753,-1108.422031341089) translate(58.40277777777778 17.46701388888889)"/><use xlink:href="#d" transform="matrix(1,0,0,1,-699.8506003109753,-1108.422031341089) translate(132.76041666666669 17.46701388888889)"/><use xlink:href="#e" transform="matrix(1,0,0,1,-699.8506003109753,-1108.422031341089) translate(185.4340277777778 17.46701388888889)"/><path d="M-365.88-614a6 6 0 0 1 6-6h307.53a6 6 0 0 1 6 6v293.77a6 6 0 0 1-6 6h-307.53a6 6 0 0 1-6-6z" stroke="#00c2a8" stroke-width="2" fill="#dfe3e8"/><path d="M-365.88-663.5a6 6 0 0 1 6-6h126.93a6 6 0 0 1 6 6v25.5a6 6 0 0 1-6 6h-126.93a6 6 0 0 1-6-6z" fill="#00c2a8"/><use xlink:href="#f" transform="matrix(1,0,0,1,-357.8764142909389,-661.5104166666666) translate(0 17.46701388888889)"/><use xlink:href="#g" transform="matrix(1,0,0,1,-357.8764142909389,-661.5104166666666) translate(76.44965277777779 17.46701388888889)"/><path d="M-720-214a6 6 0 0 1 6-6H672.5a6 6 0 0 1 6 6V79.77a6 6 0 0 1-6 6H-714a6 6 0 0 1-6-6z" stroke="#fcce14" stroke-width="2" fill="#dfe3e8"/><path d="M-720-263.5a6 6 0 0 1 6-6h211.56a6 6 0 0 1 6 6v25.5a6 6 0 0 1-6 6H-714a6 6 0 0 1-6-6z" fill="#fcce14"/><use xlink:href="#h" transform="matrix(1,0,0,1,-712,-261.5104166666667) translate(0 17.46701388888889)"/><use xlink:href="#i" transform="matrix(1,0,0,1,-712,-261.5104166666667) translate(65.56423611111111 17.46701388888889)"/><use xlink:href="#j" transform="matrix(1,0,0,1,-712,-261.5104166666667) translate(134.67881944444446 17.46701388888889)"/><path d="M-627.85-957.6a6 6 0 0 1 6-6h119.66a6 6 0 0 1 6 6v87.15a6 6 0 0 1-6 6h-119.65a6 6 0 0 1-6-6z" stroke="#1071e5" stroke-width="4" fill="#cfe4ff"/><use xlink:href="#k" transform="matrix(1,0,0,1,-615.8506003109753,-951.6050999710615) translate(14.948350694444443 31.02777777777778)"/><use xlink:href="#l" transform="matrix(1,0,0,1,-615.8506003109753,-951.6050999710615) translate(28.27300347222222 63.29340277777778)"/><path d="M-296.2-973.74a6 6 0 0 1 6-6h162.52a6 6 0 0 1 6 6v119.42a6 6 0 0 1-6 6h-162.5a6 6 0 0 1-6-6z" stroke="#1071e5" stroke-width="4" fill="#cfe4ff"/><use xlink:href="#m" transform="matrix(1,0,0,1,-284.18756240113925,-967.7379124710615) translate(28.33203125 45.15277777777778)"/><use xlink:href="#n" transform="matrix(1,0,0,1,-284.18756240113925,-967.7379124710615) translate(9.38671875 77.41840277777777)"/><use xlink:href="#o" transform="matrix(1,0,0,1,-284.18756240113925,-967.7379124710615) translate(73.23220486111111 77.41840277777777)"/><use xlink:href="#p" transform="matrix(1,0,0,1,-284.18756240113925,-967.7379124710615) translate(87.49001736111111 77.41840277777777)"/><path d="M78.32-959.73a6 6 0 0 1 6-6h125.3a6 6 0 0 1 6 6v91.4a6 6 0 0 1-6 6H84.33a6 6 0 0 1-6-6z" stroke="#1071e5" stroke-width="4" fill="#cfe4ff"/><use xlink:href="#q" transform="matrix(1,0,0,1,90.3199939513197,-953.7310591188667) translate(8.345486111111114 31.52777777777778)"/><use xlink:href="#r" transform="matrix(1,0,0,1,90.3199939513197,-953.7310591188667) translate(26.82421875 63.79340277777778)"/><path d="M-285.88-521.2a6 6 0 0 1 6-6h147.53a6 6 0 0 1 6 6v108.15a6 6 0 0 1-6 6h-147.53a6 6 0 0 1-6-6z" stroke="#1071e5" stroke-width="4" fill="#cfe4ff"/><use xlink:href="#s" transform="matrix(1,0,0,1,-273.8764142909389,-515.1870713305898) translate(8.234375 39.71527777777778)"/><use xlink:href="#t" transform="matrix(1,0,0,1,-273.8764142909389,-515.1870713305898) translate(24.35308159722222 71.98090277777777)"/><path d="M-640-112.82a6 6 0 0 1 6-6h125.3a6 6 0 0 1 6 6v91.4a6 6 0 0 1-6 6H-634a6 6 0 0 1-6-6z" stroke="#1071e5" stroke-width="4" fill="#cfe4ff"/><use xlink:href="#q" transform="matrix(1,0,0,1,-628,-106.81944444444446) translate(8.345486111111114 31.52777777777778)"/><use xlink:href="#u" transform="matrix(1,0,0,1,-628,-106.81944444444446) translate(22.34830729166667 63.79340277777778)"/><path d="M-302.7-111.24a6 6 0 0 1 6-6h121.12a6 6 0 0 1 6 6V-23a6 6 0 0 1-6 6h-121.1a6 6 0 0 1-6-6z" stroke="#1071e5" stroke-width="4" fill="#cfe4ff"/><use xlink:href="#v" transform="matrix(1,0,0,1,-290.6909722222222,-105.2382571373457) translate(24.954427083333336 31.15277777777778)"/><use xlink:href="#w" transform="matrix(1,0,0,1,-290.6909722222222,-105.2382571373457) translate(8.445095486111114 63.41840277777778)"/><path d="M30.42-126.83a6 6 0 0 1 6-6h162.5a6 6 0 0 1 6 6V-7.4a6 6 0 0 1-6 6H36.43a6 6 0 0 1-6-6z" stroke="#1071e5" stroke-width="4" fill="#cfe4ff"/><use xlink:href="#x" transform="matrix(1,0,0,1,42.41883680555533,-120.82629779663924) translate(17.329427083333336 45.15277777777778)"/><use xlink:href="#y" transform="matrix(1,0,0,1,42.41883680555533,-120.82629779663924) translate(15.267795138888893 77.41840277777777)"/><use xlink:href="#p" transform="matrix(1,0,0,1,42.41883680555533,-120.82629779663924) translate(81.60894097222223 77.41840277777777)"/><path d="M404.93-134a6 6 0 0 1 6-6H592.5a6 6 0 0 1 6 6V-.23a6 6 0 0 1-6 6H410.92a6 6 0 0 1-6-6z" stroke="#1071e5" stroke-width="4" fill="#cfe4ff"/><use xlink:href="#z" transform="matrix(1,0,0,1,416.92639315801466,-128) translate(1.943359375 52.02777777777778)"/><use xlink:href="#A" transform="matrix(1,0,0,1,416.92639315801466,-128) translate(45.031467013888886 52.02777777777778)"/><use xlink:href="#B" transform="matrix(1,0,0,1,416.92639315801466,-128) translate(8.220486111111114 84.29340277777777)"/><path d="M-492.2-914.03h171.27" stroke="#3a414a" stroke-width="4" fill="none"/><path d="M-492.14-912.05h-2.05V-916h2.06z" stroke="#3a414a" stroke-width=".05" fill="#3a414a"/><path d="M-304.66-914.03l-14.26 4.64v-9.26z" stroke="#3a414a" stroke-width="4" fill="#3a414a"/><path d="M-117.68-914.03H53.58" stroke="#3a414a" stroke-width="4" fill="none"/><path d="M-117.63-912.05h-2.05V-916h2.05z" stroke="#3a414a" stroke-width=".05" fill="#3a414a"/><path d="M69.85-914.03l-14.27 4.64v-9.26z" stroke="#3a414a" stroke-width="4" fill="#3a414a"/><path d="M-498.7-67.12h171.27" stroke="#3a414a" stroke-width="4" fill="none"/><path d="M-498.64-65.14h-2.05v-3.95h2.06z" stroke="#3a414a" stroke-width=".05" fill="#3a414a"/><path d="M-311.16-67.12l-14.27 4.64v-9.27z" stroke="#3a414a" stroke-width="4" fill="#3a414a"/><path d="M-165.58-67.12H5.68" stroke="#3a414a" stroke-width="4" fill="none"/><path d="M-165.53-65.14h-2.05v-3.95h2.05z" stroke="#3a414a" stroke-width=".05" fill="#3a414a"/><path d="M21.95-67.12L7.68-62.48v-9.27z" stroke="#3a414a" stroke-width="4" fill="#3a414a"/><path d="M208.93-67.12H380.2" stroke="#3a414a" stroke-width="4" fill="none"/><path d="M208.98-65.14h-2.05v-3.95h2.05z" stroke="#3a414a" stroke-width=".05" fill="#3a414a"/><path d="M396.45-67.12l-14.26 4.64v-9.27z" stroke="#3a414a" stroke-width="4" fill="#3a414a"/><path d="M146.97-858.33v385.2a6 6 0 0 1-6 6H-101.6" stroke="#3a414a" stroke-width="4" fill="none"/><path d="M148.95-858.27H145v-2.06h3.95z" stroke="#3a414a" stroke-width=".05" fill="#3a414a"/><path d="M-117.87-467.12l14.26-4.63v9.27z" stroke="#3a414a" stroke-width="4" fill="#3a414a"/><path d="M-289.88-467.12h-275.47a6 6 0 0 0-6 6v317.56" stroke="#3a414a" stroke-width="4" fill="none"/><path d="M-287.88-465.14h-2.05v-3.95h2.05z" stroke="#3a414a" stroke-width=".05" fill="#3a414a"/><path d="M-571.35-127.3l-4.63-14.26h9.27z" stroke="#3a414a" stroke-width="4" fill="#3a414a"/><defs><path fill="#fff" d="M657 26c-323 0-524-166-541-416h195c15 169 171 246 346 246 202 0 356-106 356-265 5-203-294-238-475-293-239-73-380-191-380-389 0-252 224-419 512-419 294 0 499 171 508 396H992c-17-145-151-228-328-228-193 0-321 102-321 242 0 156 175 211 284 241l149 41c160 44 422 134 422 412 0 244-197 432-541 432" id="C"/><path fill="#fff" d="M140 405l46-156c120 36 205 19 263-150l32-93L54-1118h197c107 313 237 620 324 950 87-331 219-637 326-950h196L606 167c-68 178-176 259-334 259-64 0-113-12-132-21" id="D"/><path fill="#fff" d="M538 24C308 24 148-78 108-271l171-41c32 123 123 178 257 178 156 0 256-77 256-169 0-77-54-128-164-154l-186-44c-203-48-300-148-300-305 0-192 176-326 414-326 230 0 351 112 402 269l-163 42c-31-80-94-158-238-158-133 0-233 69-233 162 0 83 57 129 188 160l169 40c203 48 298 149 298 302 0 196-179 339-441 339" id="E"/><path fill="#fff" d="M598-1118v154H368v674c0 100 37 144 132 144 23 0 62-6 92-12L629-6c-37 13-88 20-134 20-193 0-307-107-307-290v-688H20v-154h168v-266h180v266h230" id="F"/><path fill="#fff" d="M628 24c-324 0-524-230-524-574 0-343 198-582 503-582 237 0 487 146 487 559v75H286c9 234 145 362 343 362 132 0 231-58 273-172l174 48C1024-91 857 24 628 24zM287-650h624c-17-190-120-322-304-322-192 0-309 151-320 322" id="G"/><path fill="#fff" d="M158 0v-1118h175l1 205c55-151 181-225 313-225 147 0 245 90 285 228 53-141 190-228 352-228 194 0 352 125 352 384V0h-181v-749c0-161-105-225-225-225-151 0-243 103-243 244V0H807v-767c0-124-93-207-219-207-131 0-250 92-250 270V0H158" id="H"/><path fill="#fff" d="M934 0v166H0V0h934" id="I"/><path fill="#fff" d="M52 0l541-1490h220L1361 0h-200l-149-416H398L254 0H52zm404-582h497c-103-290-145-390-251-756-108 377-145 460-246 756" id="J"/><path fill="#fff" d="M158 0v-1118h174v172h12c41-113 157-188 290-188 26 0 70 2 91 3v181c-11-2-60-10-108-10-161 0-279 109-279 260V0H158" id="K"/><path fill="#fff" d="M613 24c-304 0-509-231-509-576 0-350 205-580 509-580 216 0 392 114 453 309l-173 49c-33-115-133-197-280-197-223 0-326 196-326 419 0 220 103 415 326 415 150 0 252-85 285-206l172 49C1010-95 832 24 613 24" id="L"/><path fill="#fff" d="M338-670V0H158v-1490h180v566c73-149 190-208 336-208 226 0 379 139 379 422V0H872v-695c0-172-96-275-252-275-161 0-282 109-282 300" id="M"/><path fill="#fff" d="M158 0v-1118h180V0H158zm91-1301c-68 0-125-53-125-119s57-119 125-119c69 0 126 53 126 119s-57 119-126 119" id="N"/><path fill="#fff" d="M537 14c-226 0-379-139-379-422v-710h180v695c0 172 97 275 253 275 160 0 281-109 281-300v-670h181V0H879v-209C806-46 684 14 537 14" id="O"/><g id="a"><use transform="matrix(0.01953125,0,0,0.01953125,0,0)" xlink:href="#C"/><use transform="matrix(0.01953125,0,0,0.01953125,25.6640625,0)" xlink:href="#D"/><use transform="matrix(0.01953125,0,0,0.01953125,48.14453125,0)" xlink:href="#E"/><use transform="matrix(0.01953125,0,0,0.01953125,69.2578125,0)" xlink:href="#F"/><use transform="matrix(0.01953125,0,0,0.01953125,81.953125,0)" xlink:href="#G"/><use transform="matrix(0.01953125,0,0,0.01953125,105.2734375,0)" xlink:href="#H"/><use transform="matrix(0.01953125,0,0,0.01953125,140.3125,0)" xlink:href="#I"/><use transform="matrix(0.01953125,0,0,0.01953125,158.5546875,0)" xlink:href="#J"/><use transform="matrix(0.01953125,0,0,0.01953125,186.15234375,0)" xlink:href="#K"/><use transform="matrix(0.01953125,0,0,0.01953125,200.546875,0)" xlink:href="#L"/><use transform="matrix(0.01953125,0,0,0.01953125,223.3984375,0)" xlink:href="#M"/><use transform="matrix(0.01953125,0,0,0.01953125,247.05078125,0)" xlink:href="#N"/><use transform="matrix(0.01953125,0,0,0.01953125,256.73828125,0)" xlink:href="#F"/><use transform="matrix(0.01953125,0,0,0.01953125,269.43359375,0)" xlink:href="#G"/><use transform="matrix(0.01953125,0,0,0.01953125,292.75390625,0)" xlink:href="#L"/><use transform="matrix(0.01953125,0,0,0.01953125,315.60546875,0)" xlink:href="#F"/><use transform="matrix(0.01953125,0,0,0.01953125,328.69140625,0)" xlink:href="#O"/><use transform="matrix(0.01953125,0,0,0.01953125,352.34375,0)" xlink:href="#K"/><use transform="matrix(0.01953125,0,0,0.01953125,366.73828125,0)" xlink:href="#G"/></g><path d="M783 20c-382 0-661-292-661-764 0-473 279-766 661-766 302 0 548 182 601 489h-190c-42-204-217-313-411-313-268 0-476 208-476 590 0 381 209 588 476 588 195 0 369-110 411-313h190c-52 303-296 489-601 489" id="P"/><path d="M338-1490V0H158v-1490h180" id="Q"/><path d="M158 0v-1118h180V0H158zm91-1301c-68 0-125-53-125-119s57-119 125-119c69 0 126 53 126 119s-57 119-126 119" id="R"/><path d="M628 24c-324 0-524-230-524-574 0-343 198-582 503-582 237 0 487 146 487 559v75H286c9 234 145 362 343 362 132 0 231-58 273-172l174 48C1024-91 857 24 628 24zM287-650h624c-17-190-120-322-304-322-192 0-309 151-320 322" id="S"/><path d="M338-670V0H158v-1118h173l1 207c72-158 192-221 342-221 226 0 378 139 378 422V0H872v-695c0-172-96-275-252-275-161 0-282 109-282 300" id="T"/><path d="M598-1118v154H368v674c0 100 37 144 132 144 23 0 62-6 92-12L629-6c-37 13-88 20-134 20-193 0-307-107-307-290v-688H20v-154h168v-266h180v266h230" id="U"/><path d="M295 13c-75 0-135-60-135-135s60-135 135-135 135 60 135 135S370 13 295 13zm0-809c-75 0-135-60-135-135s60-135 135-135 135 60 135 135-60 135-135 135" id="V"/><g id="b"><use transform="matrix(0.008680555555555556,0,0,0.008680555555555556,0,0)" xlink:href="#P"/><use transform="matrix(0.008680555555555556,0,0,0.008680555555555556,12.986111111111112,0)" xlink:href="#Q"/><use transform="matrix(0.008680555555555556,0,0,0.008680555555555556,17.291666666666668,0)" xlink:href="#R"/><use transform="matrix(0.008680555555555556,0,0,0.008680555555555556,21.59722222222222,0)" xlink:href="#S"/><use transform="matrix(0.008680555555555556,0,0,0.008680555555555556,31.961805555555557,0)" xlink:href="#T"/><use transform="matrix(0.008680555555555556,0,0,0.008680555555555556,42.46527777777778,0)" xlink:href="#U"/><use transform="matrix(0.008680555555555556,0,0,0.008680555555555556,48.28125,0)" xlink:href="#V"/></g><path d="M180 0v-1490h528c311 0 458 177 458 395 0 191-114 278-244 313v14c139 9 302 137 302 371 0 225-148 397-499 397H180zm190-168h350c232 0 321-102 321-231 0-149-120-277-311-277H370v508zm0-668h328c160 0 286-101 286-255 0-129-87-231-280-231H370v486" id="W"/><path d="M158 0v-1118h174v172h12c41-113 157-188 290-188 26 0 70 2 91 3v181c-11-2-60-10-108-10-161 0-279 109-279 260V0H158" id="X"/><path d="M613 24c-304 0-509-231-509-576 0-350 205-580 509-580 305 0 511 230 511 580 0 345-206 576-511 576zm0-161c226 0 329-195 329-415 0-222-103-419-329-419-223 0-326 196-326 419 0 220 103 415 326 415" id="Y"/><path d="M409 0L70-1118h191c89 329 165 560 243 925 75-353 154-601 240-925h192c85 325 161 564 235 922 77-354 157-598 244-922h191L1267 0h-179c-86-307-176-590-250-913C763-588 675-308 588 0H409" id="Z"/><path d="M538 24C308 24 148-78 108-271l171-41c32 123 123 178 257 178 156 0 256-77 256-169 0-77-54-128-164-154l-186-44c-203-48-300-148-300-305 0-192 176-326 414-326 230 0 351 112 402 269l-163 42c-31-80-94-158-238-158-133 0-233 69-233 162 0 83 57 129 188 160l169 40c203 48 298 149 298 302 0 196-179 339-441 339" id="aa"/><g id="c"><use transform="matrix(0.008680555555555556,0,0,0.008680555555555556,0,0)" xlink:href="#W"/><use transform="matrix(0.008680555555555556,0,0,0.008680555555555556,11.631944444444445,0)" xlink:href="#X"/><use transform="matrix(0.008680555555555556,0,0,0.008680555555555556,18.02951388888889,0)" xlink:href="#Y"/><use transform="matrix(0.008680555555555556,0,0,0.008680555555555556,28.368055555555557,0)" xlink:href="#Z"/><use transform="matrix(0.008680555555555556,0,0,0.008680555555555556,42.91666666666667,0)" xlink:href="#aa"/><use transform="matrix(0.008680555555555556,0,0,0.008680555555555556,52.300347222222236,0)" xlink:href="#S"/><use transform="matrix(0.008680555555555556,0,0,0.008680555555555556,62.664930555555564,0)" xlink:href="#X"/></g><path d="M180 0v-1490h510c348 0 508 194 508 460 0 198-88 351-276 417L1256 0h-220L726-579c-117 2-238 0-356 1V0H180zm190-747h312c235 0 327-108 327-283 0-177-92-293-329-293H370v576" id="ab"/><path d="M471 26C259 26 90-98 90-318c0-256 228-303 435-329 202-27 287-16 287-108 0-139-79-219-234-219-161 0-248 86-283 164l-173-57c86-203 278-265 451-265 150 0 419 46 419 395V0H815v-152h-12C765-73 660 26 471 26zm31-159c199 0 310-134 310-271v-155c-30 35-226 55-295 64-131 17-246 59-246 186 0 116 97 176 231 176" id="ac"/><path d="M613 24c-304 0-509-231-509-576 0-350 205-580 509-580 216 0 392 114 453 309l-173 49c-33-115-133-197-280-197-223 0-326 196-326 419 0 220 103 415 326 415 150 0 252-85 285-206l172 49C1010-95 832 24 613 24" id="ad"/><g id="d"><use transform="matrix(0.008680555555555556,0,0,0.008680555555555556,0,0)" xlink:href="#ab"/><use transform="matrix(0.008680555555555556,0,0,0.008680555555555556,11.180555555555559,0)" xlink:href="#S"/><use transform="matrix(0.008680555555555556,0,0,0.008680555555555556,21.71875,0)" xlink:href="#ac"/><use transform="matrix(0.008680555555555556,0,0,0.008680555555555556,31.70138888888889,0)" xlink:href="#ad"/><use transform="matrix(0.008680555555555556,0,0,0.008680555555555556,41.857638888888886,0)" xlink:href="#U"/></g><path d="M52 0l541-1490h220L1361 0h-200l-149-416H398L254 0H52zm404-582h497c-103-290-145-390-251-756-108 377-145 460-246 756" id="ae"/><path d="M158 418v-1536h174v179h20c37-59 106-193 324-193 279 0 474 222 474 576 0 356-194 580-473 580-213 0-288-135-325-197h-14v591H158zm492-555c209 0 317-186 317-421 0-232-105-413-317-413-206 0-314 166-314 413 0 249 111 421 314 421" id="af"/><g id="e"><use transform="matrix(0.008680555555555556,0,0,0.008680555555555556,0,0)" xlink:href="#ae"/><use transform="matrix(0.008680555555555556,0,0,0.008680555555555556,12.265625,0)" xlink:href="#af"/><use transform="matrix(0.008680555555555556,0,0,0.008680555555555556,23.151041666666668,0)" xlink:href="#af"/></g><path d="M180 0v-1490h224l606 953c40 63 108 177 176 312-27-437-7-821-13-1265h190V0h-226C860-448 622-778 356-1262c27 476 11 792 15 1262H180" id="ag"/><path d="M158 0v-1490h180v865h22l478-493h223L593-638 1096 0H865L456-523 338-412V0H158" id="ah"/><g id="f"><use transform="matrix(0.008680555555555556,0,0,0.008680555555555556,0,0)" xlink:href="#ag"/><use transform="matrix(0.008680555555555556,0,0,0.008680555555555556,13.394097222222223,0)" xlink:href="#S"/><use transform="matrix(0.008680555555555556,0,0,0.008680555555555556,23.758680555555557,0)" xlink:href="#U"/><use transform="matrix(0.008680555555555556,0,0,0.008680555555555556,29.835069444444446,0)" xlink:href="#Z"/><use transform="matrix(0.008680555555555556,0,0,0.008680555555555556,44.0625,0)" xlink:href="#Y"/><use transform="matrix(0.008680555555555556,0,0,0.008680555555555556,54.72222222222222,0)" xlink:href="#X"/><use transform="matrix(0.008680555555555556,0,0,0.008680555555555556,61.692708333333336,0)" xlink:href="#ah"/></g><path d="M180 0v-1490h190v1322h690V0H180" id="ai"/><path d="M140 405l46-156c120 36 205 19 263-150l32-93L54-1118h197c107 313 237 620 324 950 87-331 219-637 326-950h196L606 167c-68 178-176 259-334 259-64 0-113-12-132-21" id="aj"/><g id="g"><use transform="matrix(0.008680555555555556,0,0,0.008680555555555556,0,0)" xlink:href="#ai"/><use transform="matrix(0.008680555555555556,0,0,0.008680555555555556,10.052083333333334,0)" xlink:href="#ac"/><use transform="matrix(0.008680555555555556,0,0,0.008680555555555556,19.774305555555557,0)" xlink:href="#aj"/><use transform="matrix(0.008680555555555556,0,0,0.008680555555555556,29.41840277777778,0)" xlink:href="#S"/><use transform="matrix(0.008680555555555556,0,0,0.008680555555555556,39.782986111111114,0)" xlink:href="#X"/></g><path d="M657 26c-323 0-524-166-541-416h195c15 169 171 246 346 246 202 0 356-106 356-265 5-203-294-238-475-293-239-73-380-191-380-389 0-252 224-419 512-419 294 0 499 171 508 396H992c-17-145-151-228-328-228-193 0-321 102-321 242 0 156 175 211 284 241l149 41c160 44 422 134 422 412 0 244-197 432-541 432" id="ak"/><path d="M481 0L54-1118h197c107 314 236 620 325 951 87-331 217-637 324-951h197L670 0H481" id="al"/><g id="h"><use transform="matrix(0.008680555555555556,0,0,0.008680555555555556,0,0)" xlink:href="#ak"/><use transform="matrix(0.008680555555555556,0,0,0.008680555555555556,11.40625,0)" xlink:href="#S"/><use transform="matrix(0.008680555555555556,0,0,0.008680555555555556,21.770833333333336,0)" xlink:href="#X"/><use transform="matrix(0.008680555555555556,0,0,0.008680555555555556,28.74131944444445,0)" xlink:href="#al"/><use transform="matrix(0.008680555555555556,0,0,0.008680555555555556,38.38541666666667,0)" xlink:href="#S"/><use transform="matrix(0.008680555555555556,0,0,0.008680555555555556,48.75000000000001,0)" xlink:href="#X"/><use transform="matrix(0.008680555555555556,0,0,0.008680555555555556,55.44270833333334,0)" xlink:href="#V"/></g><path d="M577 24c-279 0-473-224-473-580 0-354 195-576 474-576 218 0 287 134 324 193h14v-551h180V0H922v-173h-20C865-111 790 24 577 24zm27-161c203 0 314-172 314-421 0-247-108-413-314-413-212 0-317 181-317 413 0 235 108 421 317 421" id="am"/><path d="M295 13c-75 0-135-60-135-135s60-135 135-135 135 60 135 135S370 13 295 13" id="an"/><path d="M157-1118h181V80c1 225-123 350-364 338V252c126 9 184-48 183-172v-1198zm91-183c-68 0-125-53-125-119s57-119 125-119c69 0 126 53 126 119s-57 119-126 119" id="ao"/><g id="i"><use transform="matrix(0.008680555555555556,0,0,0.008680555555555556,0,0)" xlink:href="#ag"/><use transform="matrix(0.008680555555555556,0,0,0.008680555555555556,13.394097222222223,0)" xlink:href="#Y"/><use transform="matrix(0.008680555555555556,0,0,0.008680555555555556,24.053819444444446,0)" xlink:href="#am"/><use transform="matrix(0.008680555555555556,0,0,0.008680555555555556,34.939236111111114,0)" xlink:href="#S"/><use transform="matrix(0.008680555555555556,0,0,0.008680555555555556,45.30381944444445,0)" xlink:href="#an"/><use transform="matrix(0.008680555555555556,0,0,0.008680555555555556,50.425347222222236,0)" xlink:href="#ao"/><use transform="matrix(0.008680555555555556,0,0,0.008680555555555556,54.730902777777786,0)" xlink:href="#aa"/></g><g id="j"><use transform="matrix(0.008680555555555556,0,0,0.008680555555555556,0,0)" xlink:href="#W"/><use transform="matrix(0.008680555555555556,0,0,0.008680555555555556,11.631944444444445,0)" xlink:href="#ac"/><use transform="matrix(0.008680555555555556,0,0,0.008680555555555556,21.614583333333336,0)" xlink:href="#ad"/><use transform="matrix(0.008680555555555556,0,0,0.008680555555555556,31.770833333333336,0)" xlink:href="#ah"/><use transform="matrix(0.008680555555555556,0,0,0.008680555555555556,41.12847222222222,0)" xlink:href="#S"/><use transform="matrix(0.008680555555555556,0,0,0.008680555555555556,51.49305555555556,0)" xlink:href="#T"/><use transform="matrix(0.008680555555555556,0,0,0.008680555555555556,61.99652777777778,0)" xlink:href="#am"/></g><g id="k"><use transform="matrix(0.010850694444444444,0,0,0.010850694444444444,0,0)" xlink:href="#P"/><use transform="matrix(0.010850694444444444,0,0,0.010850694444444444,16.23263888888889,0)" xlink:href="#ac"/><use transform="matrix(0.010850694444444444,0,0,0.010850694444444444,28.7109375,0)" xlink:href="#T"/><use transform="matrix(0.010850694444444444,0,0,0.010850694444444444,41.51475694444444,0)" xlink:href="#al"/><use transform="matrix(0.010850694444444444,0,0,0.010850694444444444,53.89539930555556,0)" xlink:href="#ac"/><use transform="matrix(0.010850694444444444,0,0,0.010850694444444444,66.37369791666667,0)" xlink:href="#aa"/></g><path d="M600 0L52-1490h200c166 485 304 806 458 1336 156-533 285-846 449-1336h202L819 0H600" id="ap"/><g id="l"><use transform="matrix(0.010850694444444444,0,0,0.010850694444444444,0,0)" xlink:href="#ap"/><use transform="matrix(0.010850694444444444,0,0,0.010850694444444444,15.33203125,0)" xlink:href="#R"/><use transform="matrix(0.010850694444444444,0,0,0.010850694444444444,20.713975694444443,0)" xlink:href="#S"/><use transform="matrix(0.010850694444444444,0,0,0.010850694444444444,33.268229166666664,0)" xlink:href="#Z"/></g><path d="M537 14c-226 0-379-139-379-422v-710h180v695c0 172 97 275 253 275 160 0 281-109 281-300v-670h181V0H879v-209C806-46 684 14 537 14" id="aq"/><g id="m"><use transform="matrix(0.010850694444444444,0,0,0.010850694444444444,0,0)" xlink:href="#W"/><use transform="matrix(0.010850694444444444,0,0,0.010850694444444444,14.539930555555555,0)" xlink:href="#aq"/><use transform="matrix(0.010850694444444444,0,0,0.010850694444444444,27.68012152777778,0)" xlink:href="#aa"/><use transform="matrix(0.010850694444444444,0,0,0.010850694444444444,39.40972222222222,0)" xlink:href="#R"/><use transform="matrix(0.010850694444444444,0,0,0.010850694444444444,44.791666666666664,0)" xlink:href="#T"/><use transform="matrix(0.010850694444444444,0,0,0.010850694444444444,57.92100694444444,0)" xlink:href="#S"/><use transform="matrix(0.010850694444444444,0,0,0.010850694444444444,70.87673611111111,0)" xlink:href="#aa"/><use transform="matrix(0.010850694444444444,0,0,0.010850694444444444,82.60633680555556,0)" xlink:href="#aa"/></g><path d="M611 442c-248 0-391-105-460-228l146-94c47 65 117 165 314 165 178 0 307-82 307-266v-224h-17C863-141 792-18 576-18c-268 0-472-195-472-546 0-346 197-568 476-568 216 0 288 133 326 193h17v-179h175V29c0 289-215 413-487 413zm-5-620c203 0 314-146 314-390 0-237-108-403-314-403-213 0-319 180-319 403 0 230 109 390 319 390" id="ar"/><g id="n"><use transform="matrix(0.010850694444444444,0,0,0.010850694444444444,0,0)" xlink:href="#ai"/><use transform="matrix(0.010850694444444444,0,0,0.010850694444444444,12.565104166666666,0)" xlink:href="#Y"/><use transform="matrix(0.010850694444444444,0,0,0.010850694444444444,25.889756944444443,0)" xlink:href="#ar"/><use transform="matrix(0.010850694444444444,0,0,0.010850694444444444,39.518229166666664,0)" xlink:href="#R"/><use transform="matrix(0.010850694444444444,0,0,0.010850694444444444,44.90017361111111,0)" xlink:href="#ad"/></g><path d="M692-1560L212 224H46l480-1784h166" id="as"/><use transform="matrix(0.010850694444444444,0,0,0.010850694444444444,0,0)" xlink:href="#as" id="o"/><g id="p"><use transform="matrix(0.010850694444444444,0,0,0.010850694444444444,0,0)" xlink:href="#ak"/><use transform="matrix(0.010850694444444444,0,0,0.010850694444444444,14.2578125,0)" xlink:href="#U"/><use transform="matrix(0.010850694444444444,0,0,0.010850694444444444,21.63628472222222,0)" xlink:href="#ac"/><use transform="matrix(0.010850694444444444,0,0,0.010850694444444444,34.11458333333333,0)" xlink:href="#U"/><use transform="matrix(0.010850694444444444,0,0,0.010850694444444444,41.16753472222222,0)" xlink:href="#S"/></g><g id="q"><use transform="matrix(0.010850694444444444,0,0,0.010850694444444444,0,0)" xlink:href="#ak"/><use transform="matrix(0.010850694444444444,0,0,0.010850694444444444,14.2578125,0)" xlink:href="#Y"/><use transform="matrix(0.010850694444444444,0,0,0.010850694444444444,27.58246527777778,0)" xlink:href="#ad"/><use transform="matrix(0.010850694444444444,0,0,0.010850694444444444,40.27777777777778,0)" xlink:href="#ah"/><use transform="matrix(0.010850694444444444,0,0,0.010850694444444444,51.9748263888889,0)" xlink:href="#S"/><use transform="matrix(0.010850694444444444,0,0,0.010850694444444444,64.93055555555556,0)" xlink:href="#U"/><use transform="matrix(0.010850694444444444,0,0,0.010850694444444444,72.20052083333333,0)" xlink:href="#an"/><use transform="matrix(0.010850694444444444,0,0,0.010850694444444444,78.60243055555556,0)" xlink:href="#R"/><use transform="matrix(0.010850694444444444,0,0,0.010850694444444444,83.984375,0)" xlink:href="#Y"/></g><g id="r"><use transform="matrix(0.010850694444444444,0,0,0.010850694444444444,0,0)" xlink:href="#P"/><use transform="matrix(0.010850694444444444,0,0,0.010850694444444444,16.23263888888889,0)" xlink:href="#Q"/><use transform="matrix(0.010850694444444444,0,0,0.010850694444444444,21.614583333333336,0)" xlink:href="#R"/><use transform="matrix(0.010850694444444444,0,0,0.010850694444444444,26.99652777777778,0)" xlink:href="#S"/><use transform="matrix(0.010850694444444444,0,0,0.010850694444444444,39.95225694444444,0)" xlink:href="#T"/><use transform="matrix(0.010850694444444444,0,0,0.010850694444444444,53.08159722222222,0)" xlink:href="#U"/></g><path d="M458 0L52-1490h194c108 439 233 855 324 1313 92-459 221-873 331-1313h216c110 438 234 854 330 1307 92-455 216-869 323-1307h196L1558 0h-221l-256-944c-26-95-50-200-73-331-22 122-44 223-73 331L680 0H458" id="at"/><path d="M677 24c-213 0-288-135-325-197h-20V0H158v-1490h180v551h14c37-59 106-193 324-193 279 0 474 222 474 576 0 356-194 580-473 580zm-27-161c209 0 317-186 317-421 0-232-105-413-317-413-206 0-314 166-314 413 0 249 111 421 314 421" id="au"/><g id="s"><use transform="matrix(0.010850694444444444,0,0,0.010850694444444444,0,0)" xlink:href="#at"/><use transform="matrix(0.010850694444444444,0,0,0.010850694444444444,20.768229166666668,0)" xlink:href="#S"/><use transform="matrix(0.010850694444444444,0,0,0.010850694444444444,33.723958333333336,0)" xlink:href="#au"/><use transform="matrix(0.010850694444444444,0,0,0.010850694444444444,47.33072916666667,0)" xlink:href="#ak"/><use transform="matrix(0.010850694444444444,0,0,0.010850694444444444,61.58854166666667,0)" xlink:href="#Y"/><use transform="matrix(0.010850694444444444,0,0,0.010850694444444444,74.91319444444444,0)" xlink:href="#ad"/><use transform="matrix(0.010850694444444444,0,0,0.010850694444444444,87.60850694444444,0)" xlink:href="#ah"/><use transform="matrix(0.010850694444444444,0,0,0.010850694444444444,99.30555555555556,0)" xlink:href="#S"/><use transform="matrix(0.010850694444444444,0,0,0.010850694444444444,112.26128472222224,0)" xlink:href="#U"/></g><path d="M180 0v-1490h510c348 0 508 209 508 474 0 266-160 477-507 477H370V0H180zm190-706h312c236 0 327-133 327-310 0-176-91-307-329-307H370v617" id="av"/><g id="t"><use transform="matrix(0.010850694444444444,0,0,0.010850694444444444,0,0)" xlink:href="#av"/><use transform="matrix(0.010850694444444444,0,0,0.010850694444444444,14.192708333333332,0)" xlink:href="#X"/><use transform="matrix(0.010850694444444444,0,0,0.010850694444444444,22.189670138888886,0)" xlink:href="#Y"/><use transform="matrix(0.010850694444444444,0,0,0.010850694444444444,35.514322916666664,0)" xlink:href="#U"/><use transform="matrix(0.010850694444444444,0,0,0.010850694444444444,42.56727430555556,0)" xlink:href="#Y"/><use transform="matrix(0.010850694444444444,0,0,0.010850694444444444,55.89192708333333,0)" xlink:href="#ad"/><use transform="matrix(0.010850694444444444,0,0,0.010850694444444444,68.58723958333334,0)" xlink:href="#Y"/><use transform="matrix(0.010850694444444444,0,0,0.010850694444444444,81.91189236111111,0)" xlink:href="#Q"/></g><g id="u"><use transform="matrix(0.010850694444444444,0,0,0.010850694444444444,0,0)" xlink:href="#ak"/><use transform="matrix(0.010850694444444444,0,0,0.010850694444444444,14.2578125,0)" xlink:href="#S"/><use transform="matrix(0.010850694444444444,0,0,0.010850694444444444,27.213541666666664,0)" xlink:href="#X"/><use transform="matrix(0.010850694444444444,0,0,0.010850694444444444,35.92664930555555,0)" xlink:href="#al"/><use transform="matrix(0.010850694444444444,0,0,0.010850694444444444,47.98177083333333,0)" xlink:href="#S"/><use transform="matrix(0.010850694444444444,0,0,0.010850694444444444,60.937499999999986,0)" xlink:href="#X"/></g><path d="M158 0v-1118h175l1 205c55-151 181-225 313-225 147 0 245 90 285 228 53-141 190-228 352-228 194 0 352 125 352 384V0h-181v-749c0-161-105-225-225-225-151 0-243 103-243 244V0H807v-767c0-124-93-207-219-207-131 0-250 92-250 270V0H158" id="aw"/><g id="v"><use transform="matrix(0.010850694444444444,0,0,0.010850694444444444,0,0)" xlink:href="#ab"/><use transform="matrix(0.010850694444444444,0,0,0.010850694444444444,13.975694444444445,0)" xlink:href="#Y"/><use transform="matrix(0.010850694444444444,0,0,0.010850694444444444,27.30034722222222,0)" xlink:href="#Y"/><use transform="matrix(0.010850694444444444,0,0,0.010850694444444444,40.625,0)" xlink:href="#aw"/></g><path d="M180 0v-1490h270l367 940c28 72 75 218 110 339 35-117 81-264 110-339l362-940h271V0h-187c2-448-5-837 7-1287-157 497-311 829-483 1287H842C666-458 514-784 354-1284c12 438 5 843 7 1284H180" id="ax"/><g id="w"><use transform="matrix(0.010850694444444444,0,0,0.010850694444444444,0,0)" xlink:href="#ax"/><use transform="matrix(0.010850694444444444,0,0,0.010850694444444444,20.07378472222222,0)" xlink:href="#ac"/><use transform="matrix(0.010850694444444444,0,0,0.010850694444444444,32.55208333333333,0)" xlink:href="#T"/><use transform="matrix(0.010850694444444444,0,0,0.010850694444444444,45.68142361111111,0)" xlink:href="#ac"/><use transform="matrix(0.010850694444444444,0,0,0.010850694444444444,58.15972222222221,0)" xlink:href="#ar"/><use transform="matrix(0.010850694444444444,0,0,0.010850694444444444,71.78819444444443,0)" xlink:href="#S"/><use transform="matrix(0.010850694444444444,0,0,0.010850694444444444,84.7439236111111,0)" xlink:href="#X"/></g><path d="M370-1490V0H180v-1490h190" id="ay"/><path d="M798-719v166H144v-166h654" id="az"/><g id="x"><use transform="matrix(0.010850694444444444,0,0,0.010850694444444444,0,0)" xlink:href="#ay"/><use transform="matrix(0.010850694444444444,0,0,0.010850694444444444,5.967881944444445,0)" xlink:href="#T"/><use transform="matrix(0.010850694444444444,0,0,0.010850694444444444,19.09722222222222,0)" xlink:href="#az"/><use transform="matrix(0.010850694444444444,0,0,0.010850694444444444,29.31857638888889,0)" xlink:href="#ax"/><use transform="matrix(0.010850694444444444,0,0,0.010850694444444444,49.39236111111111,0)" xlink:href="#S"/><use transform="matrix(0.010850694444444444,0,0,0.010850694444444444,62.34809027777778,0)" xlink:href="#aw"/><use transform="matrix(0.010850694444444444,0,0,0.010850694444444444,81.8142361111111,0)" xlink:href="#Y"/><use transform="matrix(0.010850694444444444,0,0,0.010850694444444444,95.13888888888887,0)" xlink:href="#X"/><use transform="matrix(0.010850694444444444,0,0,0.010850694444444444,103.85199652777777,0)" xlink:href="#aj"/></g><g id="y"><use transform="matrix(0.010850694444444444,0,0,0.010850694444444444,0,0)" xlink:href="#ab"/><use transform="matrix(0.010850694444444444,0,0,0.010850694444444444,13.975694444444445,0)" xlink:href="#Y"/><use transform="matrix(0.010850694444444444,0,0,0.010850694444444444,27.30034722222222,0)" xlink:href="#Y"/><use transform="matrix(0.010850694444444444,0,0,0.010850694444444444,40.625,0)" xlink:href="#aw"/></g><path d="M180 0v-1490h901v168H370v510h643v168H370V0H180" id="aA"/><g id="z"><use transform="matrix(0.010850694444444444,0,0,0.010850694444444444,0,0)" xlink:href="#aA"/><use transform="matrix(0.010850694444444444,0,0,0.010850694444444444,13.118489583333332,0)" xlink:href="#R"/><use transform="matrix(0.010850694444444444,0,0,0.010850694444444444,18.50043402777778,0)" xlink:href="#Q"/><use transform="matrix(0.010850694444444444,0,0,0.010850694444444444,23.88237847222222,0)" xlink:href="#S"/></g><g id="A"><use transform="matrix(0.010850694444444444,0,0,0.010850694444444444,0,0)" xlink:href="#av"/><use transform="matrix(0.010850694444444444,0,0,0.010850694444444444,14.073350694444445,0)" xlink:href="#S"/><use transform="matrix(0.010850694444444444,0,0,0.010850694444444444,27.029079861111104,0)" xlink:href="#X"/><use transform="matrix(0.010850694444444444,0,0,0.010850694444444444,35.39496527777777,0)" xlink:href="#aa"/><use transform="matrix(0.010850694444444444,0,0,0.010850694444444444,47.12456597222221,0)" xlink:href="#R"/><use transform="matrix(0.010850694444444444,0,0,0.010850694444444444,52.50651041666666,0)" xlink:href="#aa"/><use transform="matrix(0.010850694444444444,0,0,0.010850694444444444,64.2361111111111,0)" xlink:href="#U"/><use transform="matrix(0.010850694444444444,0,0,0.010850694444444444,71.28906249999999,0)" xlink:href="#S"/><use transform="matrix(0.010850694444444444,0,0,0.010850694444444444,84.24479166666666,0)" xlink:href="#T"/><use transform="matrix(0.010850694444444444,0,0,0.010850694444444444,97.37413194444441,0)" xlink:href="#ad"/><use transform="matrix(0.010850694444444444,0,0,0.010850694444444444,110.06944444444441,0)" xlink:href="#S"/></g><path d="M218-607c0-325 108-727 258-974h175c-155 315-250 682-250 974 0 265 78 531 250 886H476C306-10 218-315 218-607" id="aB"/><path d="M96 279C273-86 346-350 346-607c0-292-95-659-250-974h175c150 246 258 650 258 974 0 297-91 602-258 886H96" id="aC"/><g id="B"><use transform="matrix(0.010850694444444444,0,0,0.010850694444444444,0,0)" xlink:href="#aB"/><use transform="matrix(0.010850694444444444,0,0,0.010850694444444444,8.10546875,0)" xlink:href="#an"/><use transform="matrix(0.010850694444444444,0,0,0.010850694444444444,14.507378472222221,0)" xlink:href="#ad"/><use transform="matrix(0.010850694444444444,0,0,0.010850694444444444,27.41970486111111,0)" xlink:href="#ac"/><use transform="matrix(0.010850694444444444,0,0,0.010850694444444444,39.89800347222222,0)" xlink:href="#T"/><use transform="matrix(0.010850694444444444,0,0,0.010850694444444444,52.701822916666664,0)" xlink:href="#al"/><use transform="matrix(0.010850694444444444,0,0,0.010850694444444444,65.08246527777777,0)" xlink:href="#ac"/><use transform="matrix(0.010850694444444444,0,0,0.010850694444444444,77.56076388888889,0)" xlink:href="#aa"/><use transform="matrix(0.010850694444444444,0,0,0.010850694444444444,89.29036458333333,0)" xlink:href="#az"/><use transform="matrix(0.010850694444444444,0,0,0.010850694444444444,99.51171875,0)" xlink:href="#am"/><use transform="matrix(0.010850694444444444,0,0,0.010850694444444444,113.11848958333333,0)" xlink:href="#ac"/><use transform="matrix(0.010850694444444444,0,0,0.010850694444444444,125.59678819444444,0)" xlink:href="#U"/><use transform="matrix(0.010850694444444444,0,0,0.010850694444444444,132.97526041666666,0)" xlink:href="#ac"/><use transform="matrix(0.010850694444444444,0,0,0.010850694444444444,145.45355902777777,0)" xlink:href="#aC"/></g></defs></g></svg>