<svg xmlns="http://www.w3.org/2000/svg" xmlns:xlink="http://www.w3.org/1999/xlink" xmlns:lucid="lucid" width="2593.06" height="847.66"><g transform="translate(448.5313994193989 -1195.859375)" lucid:page-tab-id="0_0"><path d="M-500 1000h3000v1500H-500z" fill="#fff"/><path d="M-447.53 1294.26a6 6 0 0 1 6-6h2579.06a6 6 0 0 1 6 6v742.26a6 6 0 0 1-6 6H-441.53a6 6 0 0 1-6-6z" stroke="#3a414a" stroke-width="2" fill="#fff"/><path d="M-447.53 1201.86a6 6 0 0 1 6-6H41.1a6 6 0 0 1 6 6v68.4a6 6 0 0 1-6 6h-482.63a6 6 0 0 1-6-6z" fill="#3a414a"/><use xlink:href="#a" transform="matrix(1,0,0,1,-431.5313994193989,1211.859375) translate(0 39.05078125)"/><path d="M-267.2 1433.38c18.47 0 33.44 14.97 33.44 33.44s-14.97 33.45-33.44 33.45h-66.9c-18.46 0-33.43-14.98-33.43-33.45 0-18.47 14.97-33.44 33.44-33.44z" stroke="#1071e5" stroke-width="4" fill="#6db1ff"/><use xlink:href="#b" transform="matrix(1,0,0,1,-362.5313994193989,1438.3782552083333) translate(36.951171875 35.77777777777778)"/><path d="M2030.1 1433.38c18.46 0 33.43 14.97 33.43 33.44s-14.97 33.45-33.44 33.45h-66.9c-18.47 0-33.44-14.98-33.44-33.45 0-18.47 14.97-33.44 33.44-33.44z" stroke="#1071e5" stroke-width="4" fill="#6db1ff"/><use xlink:href="#c" transform="matrix(1,0,0,1,1934.755357752732,1438.3782552083333) translate(41.95334201388889 35.77777777777778)"/><path d="M-25.74 1429.28a6 6 0 0 1 6-6H83.9a6 6 0 0 1 6 6v75.1a6 6 0 0 1-6 6H-19.74a6 6 0 0 1-6-6z" stroke="#1071e5" stroke-width="4" fill="#cfe4ff"/><use xlink:href="#d" transform="matrix(1,0,0,1,-13.743934283925284,1435.278736925583) translate(8.179904513888886 41.52777777777778)"/><use xlink:href="#e" transform="matrix(1,0,0,1,-13.743934283925284,1435.278736925583) translate(74.78146701388889 41.52777777777778)"/><path d="M-366.48 1820.37a6 6 0 0 1 6-6h119.67a6 6 0 0 1 6 6v87.16a6 6 0 0 1-6 6H-360.5a6 6 0 0 1-6-6z" stroke="#1071e5" stroke-width="4" fill="#cfe4ff"/><use xlink:href="#d" transform="matrix(1,0,0,1,-354.4748975409836,1826.3743489583335) translate(13.922960069444443 45.27777777777778)"/><use xlink:href="#f" transform="matrix(1,0,0,1,-354.4748975409836,1826.3743489583335) translate(80.52452256944444 45.27777777777778)"/><path d="M-33.76 1820.37a6 6 0 0 1 6-6H91.92a6 6 0 0 1 6 6v87.16a6 6 0 0 1-6 6H-27.75a6 6 0 0 1-6-6z" stroke="#1071e5" stroke-width="4" fill="#cfe4ff"/><use xlink:href="#g" transform="matrix(1,0,0,1,-21.75535775273221,1826.3743489583335) translate(23.82421875 31.02777777777778)"/><use xlink:href="#h" transform="matrix(1,0,0,1,-21.75535775273221,1826.3743489583335) translate(28.452039930555557 63.29340277777778)"/><path d="M297.9 1423.24a6 6 0 0 1 6-6h119.67a6 6 0 0 1 6 6v87.16a6 6 0 0 1-6 6H303.9a6 6 0 0 1-6-6z" stroke="#1071e5" stroke-width="4" fill="#cfe4ff"/><use xlink:href="#i" transform="matrix(1,0,0,1,309.90768015710387,1429.2454427083333) translate(11.275390625 31.02777777777778)"/><use xlink:href="#j" transform="matrix(1,0,0,1,309.90768015710387,1429.2454427083333) translate(88.716796875 31.02777777777778)"/><use xlink:href="#k" transform="matrix(1,0,0,1,309.90768015710387,1429.2454427083333) translate(32.781467013888886 63.29340277777778)"/><path d="M756.2 1394.9a8 8 0 0 1 9.6 0l91.07 68.32a4.5 4.5 0 0 1 0 7.2l-91.08 68.3a8 8 0 0 1-9.6 0l-91.1-68.3a4.5 4.5 0 0 1 0-7.2z" stroke="#d916a8" stroke-width="4" fill="#ff80df"/><use xlink:href="#l" transform="matrix(1,0,0,1,665.3112779627731,1396.313232421875) translate(63.35981770833333 61.46527777777778)"/><use xlink:href="#m" transform="matrix(1,0,0,1,665.3112779627731,1396.313232421875) translate(48.385859375 93.73090277777777)"/><path d="M1219.03 1371.86a8 8 0 0 1 9.6 0l121.82 91.36a4.5 4.5 0 0 1 0 7.2l-121.82 91.37a8 8 0 0 1-9.6 0l-121.82-91.38a4.5 4.5 0 0 1 0-7.2z" stroke="#d916a8" stroke-width="4" fill="#ff80df"/><use xlink:href="#n" transform="matrix(1,0,0,1,1097.4092597336066,1373.2578125) translate(52.76910590277779 86.15277777777777)"/><use xlink:href="#o" transform="matrix(1,0,0,1,1097.4092597336066,1373.2578125) translate(128.32249131944445 86.15277777777777)"/><use xlink:href="#p" transform="matrix(1,0,0,1,1097.4092597336066,1373.2578125) translate(191.202265625 86.15277777777777)"/><use xlink:href="#q" transform="matrix(1,0,0,1,1097.4092597336066,1373.2578125) translate(78.32791666666665 118.41840277777777)"/><path d="M756.2 1769a8 8 0 0 1 9.6 0l121.8 91.35a4.5 4.5 0 0 1 0 7.2l-121.8 91.37a8 8 0 0 1-9.6 0l-121.83-91.37a4.5 4.5 0 0 1 0-7.2z" stroke="#d916a8" stroke-width="4" fill="#ff80df"/><use xlink:href="#n" transform="matrix(1,0,0,1,634.5707180669399,1770.38671875) translate(50.512161458333345 86.15277777777777)"/><use xlink:href="#o" transform="matrix(1,0,0,1,634.5707180669399,1770.38671875) translate(126.065546875 86.15277777777777)"/><use xlink:href="#r" transform="matrix(1,0,0,1,634.5707180669399,1770.38671875) translate(188.94532118055554 86.15277777777777)"/><use xlink:href="#q" transform="matrix(1,0,0,1,634.5707180669399,1770.38671875) translate(78.32791666666665 118.41840277777777)"/><path d="M1219.03 1769a8 8 0 0 1 9.6 0l121.82 91.35a4.5 4.5 0 0 1 0 7.2l-121.82 91.37a8 8 0 0 1-9.6 0l-121.82-91.37a4.5 4.5 0 0 1 0-7.2z" stroke="#d916a8" stroke-width="4" fill="#ff80df"/><use xlink:href="#n" transform="matrix(1,0,0,1,1097.4092597336066,1770.38671875) translate(48.91710937500002 86.15277777777777)"/><use xlink:href="#o" transform="matrix(1,0,0,1,1097.4092597336066,1770.38671875) translate(124.47049479166667 86.15277777777777)"/><use xlink:href="#s" transform="matrix(1,0,0,1,1097.4092597336066,1770.38671875) translate(187.35026909722222 86.15277777777777)"/><use xlink:href="#q" transform="matrix(1,0,0,1,1097.4092597336066,1770.38671875) translate(78.32791666666665 118.41840277777777)"/><path d="M1555.25 1804.24a6 6 0 0 1 6-6h162.5a6 6 0 0 1 6 6v119.42a6 6 0 0 1-6 6h-162.5a6 6 0 0 1-6-6z" stroke="#1071e5" stroke-width="4" fill="#cfe4ff"/><use xlink:href="#t" transform="matrix(1,0,0,1,1567.2478014002731,1810.2415364583335) translate(1.8509114583333428 45.15277777777778)"/><use xlink:href="#u" transform="matrix(1,0,0,1,1567.2478014002731,1810.2415364583335) translate(65.75065104166667 45.15277777777778)"/><use xlink:href="#v" transform="matrix(1,0,0,1,1567.2478014002731,1810.2415364583335) translate(22.543185763888893 77.41840277777777)"/><path d="M1572.82 1420.35a6 6 0 0 1 6-6h127.36a6 6 0 0 1 6 6v92.95a6 6 0 0 1-6 6h-127.36a6 6 0 0 1-6-6z" stroke="#1071e5" stroke-width="4" fill="#cfe4ff"/><use xlink:href="#w" transform="matrix(1,0,0,1,1584.8216750626136,1426.3472758058986) translate(1.1911892361111143 31.65277777777778)"/><use xlink:href="#j" transform="matrix(1,0,0,1,1584.8216750626136,1426.3472758058986) translate(106.80099826388889 31.65277777777778)"/><use xlink:href="#x" transform="matrix(1,0,0,1,1584.8216750626136,1426.3472758058986) translate(44.008029513888886 63.91840277777778)"/><path d="M-229.75 1466.82h179.27" stroke="#3a414a" stroke-width="4" fill="none"/><path d="M-229.7 1468.8h-2.2l.15-1.94-.08-2h2.13z" stroke="#3a414a" stroke-width=".05" fill="#3a414a"/><path d="M-34.22 1466.82l-14.26 4.64v-9.27z" stroke="#3a414a" stroke-width="4" fill="#3a414a"/><path d="M-322.6 1504.27v285.37" stroke="#3a414a" stroke-width="4" fill="none"/><path d="M-320.6 1504.32h-3.96v-2.05h3.95z" stroke="#3a414a" stroke-width=".05" fill="#3a414a"/><path d="M-322.6 1805.9l-4.62-14.26h9.27z" stroke="#3a414a" stroke-width="4" fill="#3a414a"/><path d="M-278.7 1504.27v155.12a6 6 0 0 0 6 6H26.08a6 6 0 0 1 6 6v118.24" stroke="#3a414a" stroke-width="4" fill="none"/><path d="M-276.73 1504.32h-3.94v-2.05h3.94z" stroke="#3a414a" stroke-width=".05" fill="#3a414a"/><path d="M32.08 1805.9l-4.64-14.26h9.27z" stroke="#3a414a" stroke-width="4" fill="#3a414a"/><path d="M93.9 1466.82h179.27" stroke="#3a414a" stroke-width="4" fill="none"/><path d="M93.95 1468.8H91.9v-3.95h2.05z" stroke="#3a414a" stroke-width=".05" fill="#3a414a"/><path d="M289.44 1466.82l-14.27 4.64v-9.27z" stroke="#3a414a" stroke-width="4" fill="#3a414a"/><path d="M-300.64 1917.53v79a6 6 0 0 0 6 6h674.32a6 6 0 0 0 6-6v-455.4" stroke="#3a414a" stroke-width="4" fill="none"/><path d="M-298.67 1917.58h-3.95v-2.05h3.95z" stroke="#3a414a" stroke-width=".05" fill="#3a414a"/><path d="M385.68 1524.87l4.64 14.27h-9.27z" stroke="#3a414a" stroke-width="4" fill="#3a414a"/><path d="M101.9 1863.95h233.9a6 6 0 0 0 6-6v-316.8" stroke="#3a414a" stroke-width="4" fill="none"/><path d="M101.96 1865.93H99.9v-3.95h2.06z" stroke="#3a414a" stroke-width=".05" fill="#3a414a"/><path d="M341.8 1524.87l4.63 14.27h-9.27z" stroke="#3a414a" stroke-width="4" fill="#3a414a"/><path d="M433.57 1466.82h205" stroke="#3a414a" stroke-width="4" fill="none"/><path d="M433.62 1468.8h-2.05v-3.95h2.05z" stroke="#3a414a" stroke-width=".05" fill="#3a414a"/><path d="M654.83 1466.82l-14.26 4.64v-9.27z" stroke="#3a414a" stroke-width="4" fill="#3a414a"/><path d="M862.68 1466.82h207.98" stroke="#3a414a" stroke-width="4" fill="none"/><path d="M862.73 1468.8h-2.4l.24-.78.1-1.2-.1-1.2-.23-.77h2.4z" stroke="#3a414a" stroke-width=".05" fill="#3a414a"/><path d="M1086.93 1466.82l-14.27 4.64v-9.27z" stroke="#3a414a" stroke-width="4" fill="#3a414a"/><path d="M727.43 1521.66v243.66" stroke="#3a414a" stroke-width="4" fill="none"/><path d="M729.4 1521.14v.57h-3.94v-3.52z" stroke="#3a414a" stroke-width=".05" fill="#3a414a"/><path d="M727.43 1781.58l-4.63-14.26h9.27z" stroke="#3a414a" stroke-width="4" fill="#3a414a"/><path d="M796.52 1659.3l.06.72.15.6.24.6.33.53.4.48.5.4.52.34.6.24.6.16.7.05h373.48l1.17.1 1.22.3 1.14.48 1.07.65.97.8.8.97.66 1.06.48 1.16.3 1.22.1 1.17V1773h-3.95v-101.54l-.06-.7-.16-.62-.24-.58-.33-.54-.4-.47-.5-.4-.52-.34-.6-.23-.6-.15-.7-.06H800.46l-1.17-.1-1.22-.28-1.15-.48-1.07-.66-.95-.8-.8-.96-.66-1.07-.48-1.15-.3-1.2-.08-1.2v-137.8h3.94z" stroke="#3a414a" stroke-width=".05" fill="#3a414a"/><path d="M796.52 1521.7h-3.94v-.56l3.94-2.96z" fill="#3a414a"/><path stroke="#3a414a" stroke-width=".05" fill="#3a414a"/><path d="M1180.02 1789.27l-4.63-14.27h9.26z" fill="#3a414a"/><path d="M1180.02 1795.66l-7.35-22.63h14.7zm-1.9-18.68l1.9 5.9 1.92-5.9zM1831.73 1858.03l-.1 1.17-.28 1.22-.48 1.15-.66 1.07-.8.95-.95.8-1.07.66-1.16.48-1.22.3-1.17.1h-69.34v-3.96h69.18l.7-.06.62-.15.58-.24.54-.33.48-.4.4-.5.34-.52.24-.6.14-.6.06-.7V1339h3.95zm-45.4-527.8h-556.42l-.7.06-.6.14-.6.24-.53.33-.48.42-.42.48-.33.53-.24.6-.14.6-.06.7v31.92h-3.95v-32.07l.1-1.17.3-1.2.47-1.17.65-1.06.82-.96.94-.8 1.06-.65 1.16-.48 1.22-.3 1.17-.1h556.6z" stroke="#3a414a" stroke-width=".05" fill="#3a414a"/><path d="M1225.8 1368.47l-.7-.13-1.27-.1-1.28.1-.7.13v-2.27h3.95z" fill="#3a414a"/><path stroke="#3a414a" stroke-width=".05" fill="#3a414a"/><path d="M1752.5 1868.6l-14.27-4.65 14.26-4.63z" fill="#3a414a"/><path d="M1754.47 1871.3l-22.63-7.35 22.63-7.35zm-9.85-7.35l5.9 1.92v-3.84z" stroke="#3a414a" stroke-width=".05" fill="#3a414a"/><use xlink:href="#y" transform="matrix(1,0,0,1,1786.336025606022,1317.5026041666667) translate(0 17.22222222222222)"/><path d="M762.97 1996.44l.05.7.15.62.24.58.34.54.4.48.5.4.52.34.6.24.6.14.7.06h412.8v3.95H766.92l-1.16-.1-1.22-.3-1.15-.47-1.07-.66-.95-.8-.82-.96-.65-1.06-.48-1.16-.3-1.22-.1-1.17v-32.08H763zm881.5.15l-.1 1.16-.28 1.22-.5 1.16-.64 1.07-.82.96-.95.8-1.08.67-1.15.48-1.22.3-1.17.1h-382.1v-3.96h381.94l.7-.06.62-.14.6-.24.52-.33.48-.4.4-.5.34-.53.24-.58.15-.62.06-.7v-42.04h3.95z" stroke="#3a414a" stroke-width=".05" fill="#3a414a"/><path d="M759.7 1962.44l1.3.08 1.27-.08.7-.14v2.27H759v-2.27z" fill="#3a414a"/><path stroke="#3a414a" stroke-width=".05" fill="#3a414a"/><path d="M1647.14 1952.4h-9.27l4.63-14.27z" fill="#3a414a"/><path d="M1649.86 1954.37h-14.7l7.34-22.63zm-9.27-3.95h3.82l-1.92-5.9z" stroke="#3a414a" stroke-width=".05" fill="#3a414a"/><use xlink:href="#y" transform="matrix(1,0,0,1,1179.8705944559374,1991.7604166666667) translate(0 17.22222222222222)"/><path d="M1416.45 1865.93h-60.2v-3.95h60.2zm114.06 0h-39.44v-3.95h39.45z" stroke="#3a414a" stroke-width=".05" fill="#3a414a"/><path d="M1356.3 1865.93h-2.38l.22-.78.12-1.2-.12-1.2-.22-.77h2.4z" fill="#3a414a"/><path stroke="#3a414a" stroke-width=".05" fill="#3a414a"/><path d="M1546.78 1863.95l-14.27 4.64v-9.28z" fill="#3a414a"/><path d="M1553.17 1863.95l-22.63 7.36v-14.7zm-18.7 1.92l5.9-1.92-5.88-1.92z" stroke="#3a414a" stroke-width=".05" fill="#3a414a"/><use xlink:href="#y" transform="matrix(1,0,0,1,1416.4474335951008,1853.1959635416667) translate(0 17.22222222222222)"/><path d="M1432.32 1468.8h-76.06v-3.95h76.06zm115.76 0h-55.32v-3.95h55.32z" stroke="#3a414a" stroke-width=".05" fill="#3a414a"/><path d="M1356.3 1468.8h-2.38l.22-.78.12-1.2-.12-1.2-.22-.77h2.4z" fill="#3a414a"/><path stroke="#3a414a" stroke-width=".05" fill="#3a414a"/><path d="M1564.35 1466.82l-14.27 4.64v-9.27z" fill="#3a414a"/><path d="M1570.74 1466.82l-22.63 7.36v-14.7zm-18.68 1.92l5.9-1.92-5.9-1.9z" stroke="#3a414a" stroke-width=".05" fill="#3a414a"/><use xlink:href="#z" transform="matrix(1,0,0,1,1432.317703759604,1456.0670572916667) translate(0 17.22222222222222)"/><path d="M1147.9 1617.36H998.5l-.72.06-.6.14-.6.25-.53.34-.48.4-.4.48-.34.54-.24.6-.16.6-.06.7v39.44l-3.98 1.07-1.4 1.4-.54 2.02.54 2 1.4 1.4 3.98 1.08v188.15l-.1 1.17-.28 1.22-.48 1.15-.65 1.07-.82.95-.95.8-1.07.66-1.15.48-1.22.3-1.17.1H893.4v-3.96h92.9l.72-.06.6-.15.6-.24.53-.33.48-.4.4-.5.34-.52.23-.6.15-.6.05-.7V1672.9l-2.07-.56-2.9-2.9-1.1-4.05 1.1-4.07 2.9-2.9 2.07-.56v-36.56l.1-1.16.3-1.22.47-1.16.65-1.06.82-.96.95-.8 1.07-.66 1.14-.48 1.22-.3 1.17-.1h149.56zm473.35-7.9l-.1 1.17-.3 1.22-.46 1.16-.67 1.08-.8.95-.96.8-1.07.67-1.16.48-1.22.3-1.17.08h-405.02v-3.95h404.87l.7-.04.62-.15.58-.23.54-.33.48-.4.4-.5.34-.53.24-.57.14-.62.06-.7v-65.26h3.95z" stroke="#3a414a" stroke-width=".05" fill="#3a414a"/><path d="M893.47 1865.93h-2.38l.2-.78.12-1.2-.1-1.2-.24-.77h2.4z" fill="#3a414a"/><path stroke="#3a414a" stroke-width=".05" fill="#3a414a"/><path d="M1623.9 1542.04h-9.26l4.63-14.27z" fill="#3a414a"/><path d="M1626.63 1544h-14.7l7.35-22.62zm-9.27-3.94h3.83l-1.92-5.9z" stroke="#3a414a" stroke-width=".05" fill="#3a414a"/><use xlink:href="#z" transform="matrix(1,0,0,1,1147.8875635552743,1604.6315104166667) translate(0 17.22222222222222)"/><path d="M1493.33 1717.36H1273.7l-.7.06-.6.14-.6.25-.53.34-.48.4-.42.48-.33.54-.24.6-.13.6-.06.7v72.28h-3.94v-72.43l.1-1.16.28-1.22.48-1.16.66-1.06.8-.96.96-.8 1.07-.66 1.17-.48 1.22-.3 1.16-.1h219.77zm174.37-7.9l-.1 1.17-.28 1.22-.48 1.16-.65 1.08-.83.95-.95.8-1.07.67-1.15.48-1.22.3-1.17.08h-106.03v-3.95h105.88l.7-.04.62-.15.58-.23.54-.33.47-.4.4-.5.34-.53.25-.57.15-.62.05-.7v-165.26h3.95z" stroke="#3a414a" stroke-width=".05" fill="#3a414a"/><path d="M1269.6 1797.22l-3.94-2.96v-.57h3.95z" fill="#3a414a"/><path stroke="#3a414a" stroke-width=".05" fill="#3a414a"/><path d="M1670.36 1542.04h-9.27l4.63-14.27z" fill="#3a414a"/><path d="M1673.08 1544h-14.7l7.35-22.62zm-9.27-3.94h3.85l-1.92-5.9z" stroke="#3a414a" stroke-width=".05" fill="#3a414a"/><use xlink:href="#z" transform="matrix(1,0,0,1,1493.3275558467647,1704.6315104166667) translate(0 17.22222222222222)"/><path d="M1716.18 1466.82h107.58c0-3.3 2.68-6 6-6 3.3 0 6 2.7 6 6h69.26" stroke="#3a414a" stroke-width="4" fill="none"/><path d="M1716.23 1468.8h-2.05v-3.95h2.05z" stroke="#3a414a" stroke-width=".05" fill="#3a414a"/><path d="M1921.28 1466.82l-14.26 4.64v-9.27z" stroke="#3a414a" stroke-width="4" fill="#3a414a"/><path d="M-447.53 1294.26a6 6 0 0 1 6-6h2579.06a6 6 0 0 1 6 6v742.26a6 6 0 0 1-6 6H-441.53a6 6 0 0 1-6-6z" stroke="#3a414a" stroke-width="2" fill="#fff"/><path d="M-447.53 1201.86a6 6 0 0 1 6-6H41.1a6 6 0 0 1 6 6v68.4a6 6 0 0 1-6 6h-482.63a6 6 0 0 1-6-6z" fill="#3a414a"/><use xlink:href="#a" transform="matrix(1,0,0,1,-431.5313994193989,1211.859375) translate(0 39.05078125)"/><path d="M-267.2 1433.38c18.47 0 33.44 14.97 33.44 33.44s-14.97 33.45-33.44 33.45h-66.9c-18.46 0-33.43-14.98-33.43-33.45 0-18.47 14.97-33.44 33.44-33.44z" stroke="#1071e5" stroke-width="4" fill="#6db1ff"/><use xlink:href="#b" transform="matrix(1,0,0,1,-362.5313994193989,1438.3782552083333) translate(36.951171875 35.77777777777778)"/><path d="M2030.1 1433.38c18.46 0 33.43 14.97 33.43 33.44s-14.97 33.45-33.44 33.45h-66.9c-18.47 0-33.44-14.98-33.44-33.45 0-18.47 14.97-33.44 33.44-33.44z" stroke="#1071e5" stroke-width="4" fill="#6db1ff"/><use xlink:href="#c" transform="matrix(1,0,0,1,1934.755357752732,1438.3782552083333) translate(41.95334201388889 35.77777777777778)"/><path d="M-25.74 1429.28a6 6 0 0 1 6-6H83.9a6 6 0 0 1 6 6v75.1a6 6 0 0 1-6 6H-19.74a6 6 0 0 1-6-6z" stroke="#1071e5" stroke-width="4" fill="#cfe4ff"/><use xlink:href="#d" transform="matrix(1,0,0,1,-13.743934283925284,1435.278736925583) translate(8.179904513888886 41.52777777777778)"/><use xlink:href="#e" transform="matrix(1,0,0,1,-13.743934283925284,1435.278736925583) translate(74.78146701388889 41.52777777777778)"/><path d="M-366.48 1820.37a6 6 0 0 1 6-6h119.67a6 6 0 0 1 6 6v87.16a6 6 0 0 1-6 6H-360.5a6 6 0 0 1-6-6z" stroke="#1071e5" stroke-width="4" fill="#cfe4ff"/><use xlink:href="#d" transform="matrix(1,0,0,1,-354.4748975409836,1826.3743489583335) translate(13.922960069444443 45.27777777777778)"/><use xlink:href="#f" transform="matrix(1,0,0,1,-354.4748975409836,1826.3743489583335) translate(80.52452256944444 45.27777777777778)"/><path d="M-33.76 1820.37a6 6 0 0 1 6-6H91.92a6 6 0 0 1 6 6v87.16a6 6 0 0 1-6 6H-27.75a6 6 0 0 1-6-6z" stroke="#1071e5" stroke-width="4" fill="#cfe4ff"/><use xlink:href="#g" transform="matrix(1,0,0,1,-21.75535775273221,1826.3743489583335) translate(23.82421875 31.02777777777778)"/><use xlink:href="#h" transform="matrix(1,0,0,1,-21.75535775273221,1826.3743489583335) translate(28.452039930555557 63.29340277777778)"/><path d="M297.9 1423.24a6 6 0 0 1 6-6h119.67a6 6 0 0 1 6 6v87.16a6 6 0 0 1-6 6H303.9a6 6 0 0 1-6-6z" stroke="#1071e5" stroke-width="4" fill="#cfe4ff"/><use xlink:href="#i" transform="matrix(1,0,0,1,309.90768015710387,1429.2454427083333) translate(11.275390625 31.02777777777778)"/><use xlink:href="#j" transform="matrix(1,0,0,1,309.90768015710387,1429.2454427083333) translate(88.716796875 31.02777777777778)"/><use xlink:href="#k" transform="matrix(1,0,0,1,309.90768015710387,1429.2454427083333) translate(32.781467013888886 63.29340277777778)"/><path d="M756.2 1394.9a8 8 0 0 1 9.6 0l91.07 68.32a4.5 4.5 0 0 1 0 7.2l-91.08 68.3a8 8 0 0 1-9.6 0l-91.1-68.3a4.5 4.5 0 0 1 0-7.2z" stroke="#d916a8" stroke-width="4" fill="#ff80df"/><use xlink:href="#l" transform="matrix(1,0,0,1,665.3112779627731,1396.313232421875) translate(63.35981770833333 61.46527777777778)"/><use xlink:href="#m" transform="matrix(1,0,0,1,665.3112779627731,1396.313232421875) translate(48.385859375 93.73090277777777)"/><path d="M1219.03 1371.86a8 8 0 0 1 9.6 0l121.82 91.36a4.5 4.5 0 0 1 0 7.2l-121.82 91.37a8 8 0 0 1-9.6 0l-121.82-91.38a4.5 4.5 0 0 1 0-7.2z" stroke="#d916a8" stroke-width="4" fill="#ff80df"/><use xlink:href="#n" transform="matrix(1,0,0,1,1097.4092597336066,1373.2578125) translate(52.76910590277779 86.15277777777777)"/><use xlink:href="#o" transform="matrix(1,0,0,1,1097.4092597336066,1373.2578125) translate(128.32249131944445 86.15277777777777)"/><use xlink:href="#p" transform="matrix(1,0,0,1,1097.4092597336066,1373.2578125) translate(191.202265625 86.15277777777777)"/><use xlink:href="#q" transform="matrix(1,0,0,1,1097.4092597336066,1373.2578125) translate(78.32791666666665 118.41840277777777)"/><path d="M756.2 1769a8 8 0 0 1 9.6 0l121.8 91.35a4.5 4.5 0 0 1 0 7.2l-121.8 91.37a8 8 0 0 1-9.6 0l-121.83-91.37a4.5 4.5 0 0 1 0-7.2z" stroke="#d916a8" stroke-width="4" fill="#ff80df"/><use xlink:href="#n" transform="matrix(1,0,0,1,634.5707180669399,1770.38671875) translate(50.512161458333345 86.15277777777777)"/><use xlink:href="#o" transform="matrix(1,0,0,1,634.5707180669399,1770.38671875) translate(126.065546875 86.15277777777777)"/><use xlink:href="#r" transform="matrix(1,0,0,1,634.5707180669399,1770.38671875) translate(188.94532118055554 86.15277777777777)"/><use xlink:href="#q" transform="matrix(1,0,0,1,634.5707180669399,1770.38671875) translate(78.32791666666665 118.41840277777777)"/><path d="M1219.03 1769a8 8 0 0 1 9.6 0l121.82 91.35a4.5 4.5 0 0 1 0 7.2l-121.82 91.37a8 8 0 0 1-9.6 0l-121.82-91.37a4.5 4.5 0 0 1 0-7.2z" stroke="#d916a8" stroke-width="4" fill="#ff80df"/><use xlink:href="#n" transform="matrix(1,0,0,1,1097.4092597336066,1770.38671875) translate(48.91710937500002 86.15277777777777)"/><use xlink:href="#o" transform="matrix(1,0,0,1,1097.4092597336066,1770.38671875) translate(124.47049479166667 86.15277777777777)"/><use xlink:href="#s" transform="matrix(1,0,0,1,1097.4092597336066,1770.38671875) translate(187.35026909722222 86.15277777777777)"/><use xlink:href="#q" transform="matrix(1,0,0,1,1097.4092597336066,1770.38671875) translate(78.32791666666665 118.41840277777777)"/><path d="M1555.25 1804.24a6 6 0 0 1 6-6h162.5a6 6 0 0 1 6 6v119.42a6 6 0 0 1-6 6h-162.5a6 6 0 0 1-6-6z" stroke="#1071e5" stroke-width="4" fill="#cfe4ff"/><use xlink:href="#t" transform="matrix(1,0,0,1,1567.2478014002731,1810.2415364583335) translate(1.8509114583333428 45.15277777777778)"/><use xlink:href="#u" transform="matrix(1,0,0,1,1567.2478014002731,1810.2415364583335) translate(65.75065104166667 45.15277777777778)"/><use xlink:href="#v" transform="matrix(1,0,0,1,1567.2478014002731,1810.2415364583335) translate(22.543185763888893 77.41840277777777)"/><path d="M1572.82 1420.35a6 6 0 0 1 6-6h127.36a6 6 0 0 1 6 6v92.95a6 6 0 0 1-6 6h-127.36a6 6 0 0 1-6-6z" stroke="#1071e5" stroke-width="4" fill="#cfe4ff"/><use xlink:href="#w" transform="matrix(1,0,0,1,1584.8216750626136,1426.3472758058986) translate(1.1911892361111143 31.65277777777778)"/><use xlink:href="#j" transform="matrix(1,0,0,1,1584.8216750626136,1426.3472758058986) translate(106.80099826388889 31.65277777777778)"/><use xlink:href="#x" transform="matrix(1,0,0,1,1584.8216750626136,1426.3472758058986) translate(44.008029513888886 63.91840277777778)"/><path d="M-229.75 1466.82h179.27" stroke="#3a414a" stroke-width="4" fill="none"/><path d="M-229.7 1468.8h-2.2l.15-1.94-.08-2h2.13z" stroke="#3a414a" stroke-width=".05" fill="#3a414a"/><path d="M-34.22 1466.82l-14.26 4.64v-9.27z" stroke="#3a414a" stroke-width="4" fill="#3a414a"/><path d="M-322.6 1504.27v285.37" stroke="#3a414a" stroke-width="4" fill="none"/><path d="M-320.6 1504.32h-3.96v-2.05h3.95z" stroke="#3a414a" stroke-width=".05" fill="#3a414a"/><path d="M-322.6 1805.9l-4.62-14.26h9.27z" stroke="#3a414a" stroke-width="4" fill="#3a414a"/><path d="M-278.7 1504.27v155.12a6 6 0 0 0 6 6H26.08a6 6 0 0 1 6 6v118.24" stroke="#3a414a" stroke-width="4" fill="none"/><path d="M-276.73 1504.32h-3.94v-2.05h3.94z" stroke="#3a414a" stroke-width=".05" fill="#3a414a"/><path d="M32.08 1805.9l-4.64-14.26h9.27z" stroke="#3a414a" stroke-width="4" fill="#3a414a"/><path d="M93.9 1466.82h179.27" stroke="#3a414a" stroke-width="4" fill="none"/><path d="M93.95 1468.8H91.9v-3.95h2.05z" stroke="#3a414a" stroke-width=".05" fill="#3a414a"/><path d="M289.44 1466.82l-14.27 4.64v-9.27z" stroke="#3a414a" stroke-width="4" fill="#3a414a"/><path d="M-300.64 1917.53v79a6 6 0 0 0 6 6h674.32a6 6 0 0 0 6-6v-455.4" stroke="#3a414a" stroke-width="4" fill="none"/><path d="M-298.67 1917.58h-3.95v-2.05h3.95z" stroke="#3a414a" stroke-width=".05" fill="#3a414a"/><path d="M385.68 1524.87l4.64 14.27h-9.27z" stroke="#3a414a" stroke-width="4" fill="#3a414a"/><path d="M101.9 1863.95h233.9a6 6 0 0 0 6-6v-316.8" stroke="#3a414a" stroke-width="4" fill="none"/><path d="M101.96 1865.93H99.9v-3.95h2.06z" stroke="#3a414a" stroke-width=".05" fill="#3a414a"/><path d="M341.8 1524.87l4.63 14.27h-9.27z" stroke="#3a414a" stroke-width="4" fill="#3a414a"/><path d="M433.57 1466.82h205" stroke="#3a414a" stroke-width="4" fill="none"/><path d="M433.62 1468.8h-2.05v-3.95h2.05z" stroke="#3a414a" stroke-width=".05" fill="#3a414a"/><path d="M654.83 1466.82l-14.26 4.64v-9.27z" stroke="#3a414a" stroke-width="4" fill="#3a414a"/><path d="M862.68 1466.82h207.98" stroke="#3a414a" stroke-width="4" fill="none"/><path d="M862.73 1468.8h-2.4l.24-.78.1-1.2-.1-1.2-.23-.77h2.4z" stroke="#3a414a" stroke-width=".05" fill="#3a414a"/><path d="M1086.93 1466.82l-14.27 4.64v-9.27z" stroke="#3a414a" stroke-width="4" fill="#3a414a"/><path d="M727.43 1521.66v243.66" stroke="#3a414a" stroke-width="4" fill="none"/><path d="M729.4 1521.14v.57h-3.94v-3.52z" stroke="#3a414a" stroke-width=".05" fill="#3a414a"/><path d="M727.43 1781.58l-4.63-14.26h9.27z" stroke="#3a414a" stroke-width="4" fill="#3a414a"/><path d="M796.52 1659.3l.06.72.15.6.24.6.33.53.4.48.5.4.52.34.6.24.6.16.7.05h373.48l1.17.1 1.22.3 1.14.48 1.07.65.97.8.8.97.66 1.06.48 1.16.3 1.22.1 1.17V1773h-3.95v-101.54l-.06-.7-.16-.62-.24-.58-.33-.54-.4-.47-.5-.4-.52-.34-.6-.23-.6-.15-.7-.06H800.46l-1.17-.1-1.22-.28-1.15-.48-1.07-.66-.95-.8-.8-.96-.66-1.07-.48-1.15-.3-1.2-.08-1.2v-137.8h3.94z" stroke="#3a414a" stroke-width=".05" fill="#3a414a"/><path d="M796.52 1521.7h-3.94v-.56l3.94-2.96z" fill="#3a414a"/><path stroke="#3a414a" stroke-width=".05" fill="#3a414a"/><path d="M1180.02 1789.27l-4.63-14.27h9.26z" fill="#3a414a"/><path d="M1180.02 1795.66l-7.35-22.63h14.7zm-1.9-18.68l1.9 5.9 1.92-5.9zM1831.73 1858.03l-.1 1.17-.28 1.22-.48 1.15-.66 1.07-.8.95-.95.8-1.07.66-1.16.48-1.22.3-1.17.1h-69.34v-3.96h69.18l.7-.06.62-.15.58-.24.54-.33.48-.4.4-.5.34-.52.24-.6.14-.6.06-.7V1339h3.95zm-45.4-527.8h-556.42l-.7.06-.6.14-.6.24-.53.33-.48.42-.42.48-.33.53-.24.6-.14.6-.06.7v31.92h-3.95v-32.07l.1-1.17.3-1.2.47-1.17.65-1.06.82-.96.94-.8 1.06-.65 1.16-.48 1.22-.3 1.17-.1h556.6z" stroke="#3a414a" stroke-width=".05" fill="#3a414a"/><path d="M1225.8 1368.47l-.7-.13-1.27-.1-1.28.1-.7.13v-2.27h3.95z" fill="#3a414a"/><path stroke="#3a414a" stroke-width=".05" fill="#3a414a"/><path d="M1752.5 1868.6l-14.27-4.65 14.26-4.63z" fill="#3a414a"/><path d="M1754.47 1871.3l-22.63-7.35 22.63-7.35zm-9.85-7.35l5.9 1.92v-3.84z" stroke="#3a414a" stroke-width=".05" fill="#3a414a"/><g><use xlink:href="#y" transform="matrix(1,0,0,1,1786.336025606022,1317.5026041666667) translate(0 17.22222222222222)"/></g><path d="M762.97 1996.44l.05.7.15.62.24.58.34.54.4.48.5.4.52.34.6.24.6.14.7.06h412.8v3.95H766.92l-1.16-.1-1.22-.3-1.15-.47-1.07-.66-.95-.8-.82-.96-.65-1.06-.48-1.16-.3-1.22-.1-1.17v-32.08H763zm881.5.15l-.1 1.16-.28 1.22-.5 1.16-.64 1.07-.82.96-.95.8-1.08.67-1.15.48-1.22.3-1.17.1h-382.1v-3.96h381.94l.7-.06.62-.14.6-.24.52-.33.48-.4.4-.5.34-.53.24-.58.15-.62.06-.7v-42.04h3.95z" stroke="#3a414a" stroke-width=".05" fill="#3a414a"/><path d="M759.7 1962.44l1.3.08 1.27-.08.7-.14v2.27H759v-2.27z" fill="#3a414a"/><path stroke="#3a414a" stroke-width=".05" fill="#3a414a"/><path d="M1647.14 1952.4h-9.27l4.63-14.27z" fill="#3a414a"/><path d="M1649.86 1954.37h-14.7l7.34-22.63zm-9.27-3.95h3.82l-1.92-5.9z" stroke="#3a414a" stroke-width=".05" fill="#3a414a"/><g><use xlink:href="#y" transform="matrix(1,0,0,1,1179.8705944559374,1991.7604166666667) translate(0 17.22222222222222)"/></g><path d="M1416.45 1865.93h-60.2v-3.95h60.2zm114.06 0h-39.44v-3.95h39.45z" stroke="#3a414a" stroke-width=".05" fill="#3a414a"/><path d="M1356.3 1865.93h-2.38l.22-.78.12-1.2-.12-1.2-.22-.77h2.4z" fill="#3a414a"/><path stroke="#3a414a" stroke-width=".05" fill="#3a414a"/><path d="M1546.78 1863.95l-14.27 4.64v-9.28z" fill="#3a414a"/><path d="M1553.17 1863.95l-22.63 7.36v-14.7zm-18.7 1.92l5.9-1.92-5.88-1.92z" stroke="#3a414a" stroke-width=".05" fill="#3a414a"/><g><use xlink:href="#y" transform="matrix(1,0,0,1,1416.4474335951008,1853.1959635416667) translate(0 17.22222222222222)"/></g><path d="M1432.32 1468.8h-76.06v-3.95h76.06zm115.76 0h-55.32v-3.95h55.32z" stroke="#3a414a" stroke-width=".05" fill="#3a414a"/><path d="M1356.3 1468.8h-2.38l.22-.78.12-1.2-.12-1.2-.22-.77h2.4z" fill="#3a414a"/><path stroke="#3a414a" stroke-width=".05" fill="#3a414a"/><path d="M1564.35 1466.82l-14.27 4.64v-9.27z" fill="#3a414a"/><path d="M1570.74 1466.82l-22.63 7.36v-14.7zm-18.68 1.92l5.9-1.92-5.9-1.9z" stroke="#3a414a" stroke-width=".05" fill="#3a414a"/><g><use xlink:href="#z" transform="matrix(1,0,0,1,1432.317703759604,1456.0670572916667) translate(0 17.22222222222222)"/></g><path d="M1147.9 1617.36H998.5l-.72.06-.6.14-.6.25-.53.34-.48.4-.4.48-.34.54-.24.6-.16.6-.06.7v39.44l-3.98 1.07-1.4 1.4-.54 2.02.54 2 1.4 1.4 3.98 1.08v188.15l-.1 1.17-.28 1.22-.48 1.15-.65 1.07-.82.95-.95.8-1.07.66-1.15.48-1.22.3-1.17.1H893.4v-3.96h92.9l.72-.06.6-.15.6-.24.53-.33.48-.4.4-.5.34-.52.23-.6.15-.6.05-.7V1672.9l-2.07-.56-2.9-2.9-1.1-4.05 1.1-4.07 2.9-2.9 2.07-.56v-36.56l.1-1.16.3-1.22.47-1.16.65-1.06.82-.96.95-.8 1.07-.66 1.14-.48 1.22-.3 1.17-.1h149.56zm473.35-7.9l-.1 1.17-.3 1.22-.46 1.16-.67 1.08-.8.95-.96.8-1.07.67-1.16.48-1.22.3-1.17.08h-405.02v-3.95h404.87l.7-.04.62-.15.58-.23.54-.33.48-.4.4-.5.34-.53.24-.57.14-.62.06-.7v-65.26h3.95z" stroke="#3a414a" stroke-width=".05" fill="#3a414a"/><path d="M893.47 1865.93h-2.38l.2-.78.12-1.2-.1-1.2-.24-.77h2.4z" fill="#3a414a"/><path stroke="#3a414a" stroke-width=".05" fill="#3a414a"/><path d="M1623.9 1542.04h-9.26l4.63-14.27z" fill="#3a414a"/><path d="M1626.63 1544h-14.7l7.35-22.62zm-9.27-3.94h3.83l-1.92-5.9z" stroke="#3a414a" stroke-width=".05" fill="#3a414a"/><g><use xlink:href="#z" transform="matrix(1,0,0,1,1147.8875635552743,1604.6315104166667) translate(0 17.22222222222222)"/></g><path d="M1493.33 1717.36H1273.7l-.7.06-.6.14-.6.25-.53.34-.48.4-.42.48-.33.54-.24.6-.13.6-.06.7v72.28h-3.94v-72.43l.1-1.16.28-1.22.48-1.16.66-1.06.8-.96.96-.8 1.07-.66 1.17-.48 1.22-.3 1.16-.1h219.77zm174.37-7.9l-.1 1.17-.28 1.22-.48 1.16-.65 1.08-.83.95-.95.8-1.07.67-1.15.48-1.22.3-1.17.08h-106.03v-3.95h105.88l.7-.04.62-.15.58-.23.54-.33.47-.4.4-.5.34-.53.25-.57.15-.62.05-.7v-165.26h3.95z" stroke="#3a414a" stroke-width=".05" fill="#3a414a"/><path d="M1269.6 1797.22l-3.94-2.96v-.57h3.95z" fill="#3a414a"/><path stroke="#3a414a" stroke-width=".05" fill="#3a414a"/><path d="M1670.36 1542.04h-9.27l4.63-14.27z" fill="#3a414a"/><path d="M1673.08 1544h-14.7l7.35-22.62zm-9.27-3.94h3.85l-1.92-5.9z" stroke="#3a414a" stroke-width=".05" fill="#3a414a"/><g><use xlink:href="#z" transform="matrix(1,0,0,1,1493.3275558467647,1704.6315104166667) translate(0 17.22222222222222)"/></g><path d="M1716.18 1466.82h107.58c0-3.3 2.68-6 6-6 3.3 0 6 2.7 6 6h69.26" stroke="#3a414a" stroke-width="4" fill="none"/><path d="M1716.23 1468.8h-2.05v-3.95h2.05z" stroke="#3a414a" stroke-width=".05" fill="#3a414a"/><path d="M1921.28 1466.82l-14.26 4.64v-9.27z" stroke="#3a414a" stroke-width="4" fill="#3a414a"/><defs><path fill="#fff" d="M52 0l541-1490h220L1361 0h-200l-149-416H398L254 0H52zm404-582h497c-103-290-145-390-251-756-108 377-145 460-246 756" id="A"/><path fill="#fff" d="M158 0v-1118h174v172h12c41-113 157-188 290-188 26 0 70 2 91 3v181c-11-2-60-10-108-10-161 0-279 109-279 260V0H158" id="B"/><path fill="#fff" d="M613 24c-304 0-509-231-509-576 0-350 205-580 509-580 216 0 392 114 453 309l-173 49c-33-115-133-197-280-197-223 0-326 196-326 419 0 220 103 415 326 415 150 0 252-85 285-206l172 49C1010-95 832 24 613 24" id="C"/><path fill="#fff" d="M338-670V0H158v-1490h180v566c73-149 190-208 336-208 226 0 379 139 379 422V0H872v-695c0-172-96-275-252-275-161 0-282 109-282 300" id="D"/><path fill="#fff" d="M158 0v-1118h180V0H158zm91-1301c-68 0-125-53-125-119s57-119 125-119c69 0 126 53 126 119s-57 119-126 119" id="E"/><path fill="#fff" d="M598-1118v154H368v674c0 100 37 144 132 144 23 0 62-6 92-12L629-6c-37 13-88 20-134 20-193 0-307-107-307-290v-688H20v-154h168v-266h180v266h230" id="F"/><path fill="#fff" d="M628 24c-324 0-524-230-524-574 0-343 198-582 503-582 237 0 487 146 487 559v75H286c9 234 145 362 343 362 132 0 231-58 273-172l174 48C1024-91 857 24 628 24zM287-650h624c-17-190-120-322-304-322-192 0-309 151-320 322" id="G"/><path fill="#fff" d="M537 14c-226 0-379-139-379-422v-710h180v695c0 172 97 275 253 275 160 0 281-109 281-300v-670h181V0H879v-209C806-46 684 14 537 14" id="H"/><path fill="#fff" d="M934 0v166H0V0h934" id="I"/><path fill="#fff" d="M653-1490V0H466v-1314h-10L96-1047v-204l324-239h233" id="J"/><path fill="#fff" d="M646 20c-332 0-524-278-524-764 0-483 194-766 524-766s524 283 524 766c0 485-191 764-524 764zm0-166c218 0 341-220 341-598 0-380-123-601-341-601s-341 222-341 601c0 378 123 598 341 598" id="K"/><path fill="#fff" d="M763 24c-353 0-583-224-583-531v-983h190v968c0 214 149 370 393 370 243 0 391-156 391-370v-968h190v983c0 307-230 531-581 531" id="L"/><path fill="#fff" d="M538 24C308 24 148-78 108-271l171-41c32 123 123 178 257 178 156 0 256-77 256-169 0-77-54-128-164-154l-186-44c-203-48-300-148-300-305 0-192 176-326 414-326 230 0 351 112 402 269l-163 42c-31-80-94-158-238-158-133 0-233 69-233 162 0 83 57 129 188 160l169 40c203 48 298 149 298 302 0 196-179 339-441 339" id="M"/><g id="a"><use transform="matrix(0.01953125,0,0,0.01953125,0,0)" xlink:href="#A"/><use transform="matrix(0.01953125,0,0,0.01953125,27.59765625,0)" xlink:href="#B"/><use transform="matrix(0.01953125,0,0,0.01953125,41.9921875,0)" xlink:href="#C"/><use transform="matrix(0.01953125,0,0,0.01953125,64.84375,0)" xlink:href="#D"/><use transform="matrix(0.01953125,0,0,0.01953125,88.49609375,0)" xlink:href="#E"/><use transform="matrix(0.01953125,0,0,0.01953125,98.18359375,0)" xlink:href="#F"/><use transform="matrix(0.01953125,0,0,0.01953125,110.87890625,0)" xlink:href="#G"/><use transform="matrix(0.01953125,0,0,0.01953125,134.19921875,0)" xlink:href="#C"/><use transform="matrix(0.01953125,0,0,0.01953125,157.05078125,0)" xlink:href="#F"/><use transform="matrix(0.01953125,0,0,0.01953125,170.13671875,0)" xlink:href="#H"/><use transform="matrix(0.01953125,0,0,0.01953125,193.7890625,0)" xlink:href="#B"/><use transform="matrix(0.01953125,0,0,0.01953125,208.18359375,0)" xlink:href="#G"/><use transform="matrix(0.01953125,0,0,0.01953125,231.50390625,0)" xlink:href="#I"/><use transform="matrix(0.01953125,0,0,0.01953125,245.4296875,0)" xlink:href="#J"/><use transform="matrix(0.01953125,0,0,0.01953125,261.69921875,0)" xlink:href="#K"/><use transform="matrix(0.01953125,0,0,0.01953125,286.93359375,0)" xlink:href="#K"/><use transform="matrix(0.01953125,0,0,0.01953125,312.16796875,0)" xlink:href="#K"/><use transform="matrix(0.01953125,0,0,0.01953125,335.5859375,0)" xlink:href="#I"/><use transform="matrix(0.01953125,0,0,0.01953125,352.24609375,0)" xlink:href="#L"/><use transform="matrix(0.01953125,0,0,0.01953125,382.01171875,0)" xlink:href="#M"/><use transform="matrix(0.01953125,0,0,0.01953125,403.125,0)" xlink:href="#G"/><use transform="matrix(0.01953125,0,0,0.01953125,426.4453125,0)" xlink:href="#B"/><use transform="matrix(0.01953125,0,0,0.01953125,441.50390625,0)" xlink:href="#M"/></g><path d="M657 26c-323 0-524-166-541-416h195c15 169 171 246 346 246 202 0 356-106 356-265 5-203-294-238-475-293-239-73-380-191-380-389 0-252 224-419 512-419 294 0 499 171 508 396H992c-17-145-151-228-328-228-193 0-321 102-321 242 0 156 175 211 284 241l149 41c160 44 422 134 422 412 0 244-197 432-541 432" id="N"/><path d="M598-1118v154H368v674c0 100 37 144 132 144 23 0 62-6 92-12L629-6c-37 13-88 20-134 20-193 0-307-107-307-290v-688H20v-154h168v-266h180v266h230" id="O"/><path d="M471 26C259 26 90-98 90-318c0-256 228-303 435-329 202-27 287-16 287-108 0-139-79-219-234-219-161 0-248 86-283 164l-173-57c86-203 278-265 451-265 150 0 419 46 419 395V0H815v-152h-12C765-73 660 26 471 26zm31-159c199 0 310-134 310-271v-155c-30 35-226 55-295 64-131 17-246 59-246 186 0 116 97 176 231 176" id="P"/><path d="M158 0v-1118h174v172h12c41-113 157-188 290-188 26 0 70 2 91 3v181c-11-2-60-10-108-10-161 0-279 109-279 260V0H158" id="Q"/><g id="b"><use transform="matrix(0.010850694444444444,0,0,0.010850694444444444,0,0)" xlink:href="#N"/><use transform="matrix(0.010850694444444444,0,0,0.010850694444444444,14.2578125,0)" xlink:href="#O"/><use transform="matrix(0.010850694444444444,0,0,0.010850694444444444,21.63628472222222,0)" xlink:href="#P"/><use transform="matrix(0.010850694444444444,0,0,0.010850694444444444,34.11458333333333,0)" xlink:href="#Q"/><use transform="matrix(0.010850694444444444,0,0,0.010850694444444444,42.827690972222214,0)" xlink:href="#O"/></g><path d="M180 0v-1490h908v168H370v486h669v168H370v500h727V0H180" id="R"/><path d="M338-670V0H158v-1118h173l1 207c72-158 192-221 342-221 226 0 378 139 378 422V0H872v-695c0-172-96-275-252-275-161 0-282 109-282 300" id="S"/><path d="M577 24c-279 0-473-224-473-580 0-354 195-576 474-576 218 0 287 134 324 193h14v-551h180V0H922v-173h-20C865-111 790 24 577 24zm27-161c203 0 314-172 314-421 0-247-108-413-314-413-212 0-317 181-317 413 0 235 108 421 317 421" id="T"/><g id="c"><use transform="matrix(0.010850694444444444,0,0,0.010850694444444444,0,0)" xlink:href="#R"/><use transform="matrix(0.010850694444444444,0,0,0.010850694444444444,13.35720486111111,0)" xlink:href="#S"/><use transform="matrix(0.010850694444444444,0,0,0.010850694444444444,26.48654513888889,0)" xlink:href="#T"/></g><path d="M783 20c-382 0-661-292-661-764 0-473 279-766 661-766 302 0 548 182 601 489h-190c-42-204-217-313-411-313-268 0-476 208-476 590 0 381 209 588 476 588 195 0 369-110 411-313h190c-52 303-296 489-601 489" id="U"/><path d="M338-1490V0H158v-1490h180" id="V"/><path d="M158 0v-1118h180V0H158zm91-1301c-68 0-125-53-125-119s57-119 125-119c69 0 126 53 126 119s-57 119-126 119" id="W"/><path d="M628 24c-324 0-524-230-524-574 0-343 198-582 503-582 237 0 487 146 487 559v75H286c9 234 145 362 343 362 132 0 231-58 273-172l174 48C1024-91 857 24 628 24zM287-650h624c-17-190-120-322-304-322-192 0-309 151-320 322" id="X"/><g id="d"><use transform="matrix(0.010850694444444444,0,0,0.010850694444444444,0,0)" xlink:href="#U"/><use transform="matrix(0.010850694444444444,0,0,0.010850694444444444,16.23263888888889,0)" xlink:href="#V"/><use transform="matrix(0.010850694444444444,0,0,0.010850694444444444,21.614583333333336,0)" xlink:href="#W"/><use transform="matrix(0.010850694444444444,0,0,0.010850694444444444,26.99652777777778,0)" xlink:href="#X"/><use transform="matrix(0.010850694444444444,0,0,0.010850694444444444,39.95225694444444,0)" xlink:href="#S"/><use transform="matrix(0.010850694444444444,0,0,0.010850694444444444,53.08159722222222,0)" xlink:href="#O"/></g><path d="M653-1490V0H466v-1314h-10L96-1047v-204l324-239h233" id="Y"/><use transform="matrix(0.010850694444444444,0,0,0.010850694444444444,0,0)" xlink:href="#Y" id="e"/><path d="M154 0v-137l495-537c165-179 249-281 249-418 0-156-121-253-280-253-170 0-278 110-278 278H158c0-264 200-443 465-443 266 0 455 183 455 416 0 161-73 288-336 568L416-179v12h687V0H154" id="Z"/><use transform="matrix(0.010850694444444444,0,0,0.010850694444444444,0,0)" xlink:href="#Z" id="f"/><g id="g"><use transform="matrix(0.010850694444444444,0,0,0.010850694444444444,0,0)" xlink:href="#U"/><use transform="matrix(0.010850694444444444,0,0,0.010850694444444444,16.23263888888889,0)" xlink:href="#V"/><use transform="matrix(0.010850694444444444,0,0,0.010850694444444444,21.614583333333336,0)" xlink:href="#W"/><use transform="matrix(0.010850694444444444,0,0,0.010850694444444444,26.99652777777778,0)" xlink:href="#X"/><use transform="matrix(0.010850694444444444,0,0,0.010850694444444444,39.95225694444444,0)" xlink:href="#S"/><use transform="matrix(0.010850694444444444,0,0,0.010850694444444444,53.08159722222222,0)" xlink:href="#O"/></g><path d="M646 20c-332 0-524-278-524-764 0-483 194-766 524-766s524 283 524 766c0 485-191 764-524 764zm0-166c218 0 341-220 341-598 0-380-123-601-341-601s-341 222-341 601c0 378 123 598 341 598" id="aa"/><g id="h"><use transform="matrix(0.010850694444444444,0,0,0.010850694444444444,0,0)" xlink:href="#Y"/><use transform="matrix(0.010850694444444444,0,0,0.010850694444444444,9.038628472222221,0)" xlink:href="#aa"/><use transform="matrix(0.010850694444444444,0,0,0.010850694444444444,23.057725694444443,0)" xlink:href="#aa"/><use transform="matrix(0.010850694444444444,0,0,0.010850694444444444,37.076822916666664,0)" xlink:href="#aa"/></g><path d="M180 0v-1490h224l606 953c40 63 108 177 176 312-27-437-7-821-13-1265h190V0h-226C860-448 622-778 356-1262c27 476 11 792 15 1262H180" id="ab"/><path d="M789 20c-398 0-667-293-667-764 0-473 273-766 655-766 315 0 558 198 612 487h-196c-61-191-204-311-415-311-262 0-471 207-471 590 0 380 208 588 482 588 249 0 420-165 425-427H828v-166h572v163c0 370-256 606-611 606" id="ac"/><path d="M370-1490V0H180v-1490h190" id="ad"/><path d="M57 0l534-763-501-727h220c122 187 296 416 391 605 94-191 272-419 396-605h215L811-770 1340 0h-219C986-204 811-426 699-640 588-430 407-202 273 0H57" id="ae"/><g id="i"><use transform="matrix(0.010850694444444444,0,0,0.010850694444444444,0,0)" xlink:href="#ab"/><use transform="matrix(0.010850694444444444,0,0,0.010850694444444444,16.74262152777778,0)" xlink:href="#ac"/><use transform="matrix(0.010850694444444444,0,0,0.010850694444444444,33.322482638888886,0)" xlink:href="#ad"/><use transform="matrix(0.010850694444444444,0,0,0.010850694444444444,39.29036458333333,0)" xlink:href="#ab"/><use transform="matrix(0.010850694444444444,0,0,0.010850694444444444,56.03298611111111,0)" xlink:href="#ae"/></g><path d="M692-1560L212 224H46l480-1784h166" id="af"/><use transform="matrix(0.010850694444444444,0,0,0.010850694444444444,0,0)" xlink:href="#af" id="j"/><path d="M52 0l541-1490h220L1361 0h-200l-149-416H398L254 0H52zm404-582h497c-103-290-145-390-251-756-108 377-145 460-246 756" id="ag"/><path d="M180 0v-1490h190v1322h690V0H180" id="ah"/><path d="M180 0v-1490h528c311 0 458 177 458 395 0 191-114 278-244 313v14c139 9 302 137 302 371 0 225-148 397-499 397H180zm190-168h350c232 0 321-102 321-231 0-149-120-277-311-277H370v508zm0-668h328c160 0 286-101 286-255 0-129-87-231-280-231H370v486" id="ai"/><g id="k"><use transform="matrix(0.010850694444444444,0,0,0.010850694444444444,0,0)" xlink:href="#ag"/><use transform="matrix(0.010850694444444444,0,0,0.010850694444444444,15.33203125,0)" xlink:href="#ah"/><use transform="matrix(0.010850694444444444,0,0,0.010850694444444444,27.897135416666664,0)" xlink:href="#ai"/></g><path d="M613 24c-304 0-509-231-509-576 0-350 205-580 509-580 216 0 392 114 453 309l-173 49c-33-115-133-197-280-197-223 0-326 196-326 419 0 220 103 415 326 415 150 0 252-85 285-206l172 49C1010-95 832 24 613 24" id="aj"/><path d="M158 0v-1490h180v865h22l478-493h223L593-638 1096 0H865L456-523 338-412V0H158" id="ak"/><path d="M140 405l46-156c120 36 205 19 263-150l32-93L54-1118h197c107 313 237 620 324 950 87-331 219-637 326-950h196L606 167c-68 178-176 259-334 259-64 0-113-12-132-21" id="al"/><g id="l"><use transform="matrix(0.010850694444444444,0,0,0.010850694444444444,0,0)" xlink:href="#N"/><use transform="matrix(0.010850694444444444,0,0,0.010850694444444444,14.2578125,0)" xlink:href="#O"/><use transform="matrix(0.010850694444444444,0,0,0.010850694444444444,21.52777777777778,0)" xlink:href="#W"/><use transform="matrix(0.010850694444444444,0,0,0.010850694444444444,26.90972222222222,0)" xlink:href="#aj"/><use transform="matrix(0.010850694444444444,0,0,0.010850694444444444,39.60503472222222,0)" xlink:href="#ak"/><use transform="matrix(0.010850694444444444,0,0,0.010850694444444444,51.80121527777778,0)" xlink:href="#al"/></g><path d="M538 24C308 24 148-78 108-271l171-41c32 123 123 178 257 178 156 0 256-77 256-169 0-77-54-128-164-154l-186-44c-203-48-300-148-300-305 0-192 176-326 414-326 230 0 351 112 402 269l-163 42c-31-80-94-158-238-158-133 0-233 69-233 162 0 83 57 129 188 160l169 40c203 48 298 149 298 302 0 196-179 339-441 339" id="am"/><path d="M613 24c-304 0-509-231-509-576 0-350 205-580 509-580 305 0 511 230 511 580 0 345-206 576-511 576zm0-161c226 0 329-195 329-415 0-222-103-419-329-419-223 0-326 196-326 419 0 220 103 415 326 415" id="an"/><g id="m"><use transform="matrix(0.010850694444444444,0,0,0.010850694444444444,0,0)" xlink:href="#N"/><use transform="matrix(0.010850694444444444,0,0,0.010850694444444444,14.2578125,0)" xlink:href="#X"/><use transform="matrix(0.010850694444444444,0,0,0.010850694444444444,27.213541666666664,0)" xlink:href="#am"/><use transform="matrix(0.010850694444444444,0,0,0.010850694444444444,38.94314236111111,0)" xlink:href="#am"/><use transform="matrix(0.010850694444444444,0,0,0.010850694444444444,50.67274305555556,0)" xlink:href="#W"/><use transform="matrix(0.010850694444444444,0,0,0.010850694444444444,56.054687499999986,0)" xlink:href="#an"/><use transform="matrix(0.010850694444444444,0,0,0.010850694444444444,69.37934027777777,0)" xlink:href="#S"/><use transform="matrix(0.010850694444444444,0,0,0.010850694444444444,82.50868055555554,0)" xlink:href="#am"/></g><path d="M481 0L54-1118h197c107 314 236 620 325 951 87-331 217-637 324-951h197L670 0H481" id="ao"/><g id="n"><use transform="matrix(0.010850694444444444,0,0,0.010850694444444444,0,0)" xlink:href="#N"/><use transform="matrix(0.010850694444444444,0,0,0.010850694444444444,14.2578125,0)" xlink:href="#X"/><use transform="matrix(0.010850694444444444,0,0,0.010850694444444444,27.213541666666664,0)" xlink:href="#Q"/><use transform="matrix(0.010850694444444444,0,0,0.010850694444444444,35.92664930555555,0)" xlink:href="#ao"/><use transform="matrix(0.010850694444444444,0,0,0.010850694444444444,47.98177083333333,0)" xlink:href="#X"/><use transform="matrix(0.010850694444444444,0,0,0.010850694444444444,60.937499999999986,0)" xlink:href="#Q"/></g><g id="o"><use transform="matrix(0.010850694444444444,0,0,0.010850694444444444,0,0)" xlink:href="#ab"/><use transform="matrix(0.010850694444444444,0,0,0.010850694444444444,16.74262152777778,0)" xlink:href="#an"/><use transform="matrix(0.010850694444444444,0,0,0.010850694444444444,30.06727430555556,0)" xlink:href="#T"/><use transform="matrix(0.010850694444444444,0,0,0.010850694444444444,43.674045138888886,0)" xlink:href="#X"/></g><use transform="matrix(0.010850694444444444,0,0,0.010850694444444444,0,0)" xlink:href="#Y" id="p"/><path d="M218-607c0-325 108-727 258-974h175c-155 315-250 682-250 974 0 265 78 531 250 886H476C306-10 218-315 218-607" id="ap"/><path d="M295 13c-75 0-135-60-135-135s60-135 135-135 135 60 135 135S370 13 295 13" id="aq"/><path d="M157-1118h181V80c1 225-123 350-364 338V252c126 9 184-48 183-172v-1198zm91-183c-68 0-125-53-125-119s57-119 125-119c69 0 126 53 126 119s-57 119-126 119" id="ar"/><path d="M96 279C273-86 346-350 346-607c0-292-95-659-250-974h175c150 246 258 650 258 974 0 297-91 602-258 886H96" id="as"/><g id="q"><use transform="matrix(0.010850694444444444,0,0,0.010850694444444444,0,0)" xlink:href="#ap"/><use transform="matrix(0.010850694444444444,0,0,0.010850694444444444,8.10546875,0)" xlink:href="#ab"/><use transform="matrix(0.010850694444444444,0,0,0.010850694444444444,24.84809027777778,0)" xlink:href="#an"/><use transform="matrix(0.010850694444444444,0,0,0.010850694444444444,38.17274305555556,0)" xlink:href="#T"/><use transform="matrix(0.010850694444444444,0,0,0.010850694444444444,51.779513888888886,0)" xlink:href="#X"/><use transform="matrix(0.010850694444444444,0,0,0.010850694444444444,64.73524305555556,0)" xlink:href="#aq"/><use transform="matrix(0.010850694444444444,0,0,0.010850694444444444,71.13715277777779,0)" xlink:href="#ar"/><use transform="matrix(0.010850694444444444,0,0,0.010850694444444444,76.51909722222223,0)" xlink:href="#am"/><use transform="matrix(0.010850694444444444,0,0,0.010850694444444444,88.24869791666667,0)" xlink:href="#as"/></g><use transform="matrix(0.010850694444444444,0,0,0.010850694444444444,0,0)" xlink:href="#Z" id="r"/><use transform="matrix(0.010850694444444444,0,0,0.010850694444444444,0,0)" xlink:href="#ab" id="s"/><path d="M180 0v-1490h510c348 0 508 194 508 460 0 198-88 351-276 417L1256 0h-220L726-579c-117 2-238 0-356 1V0H180zm190-747h312c235 0 327-108 327-283 0-177-92-293-329-293H370v576" id="at"/><g id="t"><use transform="matrix(0.010850694444444444,0,0,0.010850694444444444,0,0)" xlink:href="#at"/><use transform="matrix(0.010850694444444444,0,0,0.010850694444444444,13.975694444444445,0)" xlink:href="#X"/><use transform="matrix(0.010850694444444444,0,0,0.010850694444444444,26.931423611111104,0)" xlink:href="#T"/><use transform="matrix(0.010850694444444444,0,0,0.010850694444444444,40.53819444444444,0)" xlink:href="#W"/><use transform="matrix(0.010850694444444444,0,0,0.010850694444444444,45.920138888888886,0)" xlink:href="#am"/></g><path d="M158 418v-1536h174v179h20c37-59 106-193 324-193 279 0 474 222 474 576 0 356-194 580-473 580-213 0-288-135-325-197h-14v591H158zm492-555c209 0 317-186 317-421 0-232-105-413-317-413-206 0-314 166-314 413 0 249 111 421 314 421" id="au"/><g id="u"><use transform="matrix(0.010850694444444444,0,0,0.010850694444444444,0,0)" xlink:href="#ag"/><use transform="matrix(0.010850694444444444,0,0,0.010850694444444444,15.33203125,0)" xlink:href="#T"/><use transform="matrix(0.010850694444444444,0,0,0.010850694444444444,28.938802083333332,0)" xlink:href="#P"/><use transform="matrix(0.010850694444444444,0,0,0.010850694444444444,41.41710069444444,0)" xlink:href="#au"/><use transform="matrix(0.010850694444444444,0,0,0.010850694444444444,55.02387152777778,0)" xlink:href="#O"/><use transform="matrix(0.010850694444444444,0,0,0.010850694444444444,62.076822916666664,0)" xlink:href="#X"/><use transform="matrix(0.010850694444444444,0,0,0.010850694444444444,75.03255208333333,0)" xlink:href="#Q"/></g><path d="M180 0v-1490h510c348 0 508 209 508 474 0 266-160 477-507 477H370V0H180zm190-706h312c236 0 327-133 327-310 0-176-91-307-329-307H370v617" id="av"/><path d="M537 14c-226 0-379-139-379-422v-710h180v695c0 172 97 275 253 275 160 0 281-109 281-300v-670h181V0H879v-209C806-46 684 14 537 14" id="aw"/><path d="M677 24c-213 0-288-135-325-197h-20V0H158v-1490h180v551h14c37-59 106-193 324-193 279 0 474 222 474 576 0 356-194 580-473 580zm-27-161c209 0 317-186 317-421 0-232-105-413-317-413-206 0-314 166-314 413 0 249 111 421 314 421" id="ax"/><g id="v"><use transform="matrix(0.010850694444444444,0,0,0.010850694444444444,0,0)" xlink:href="#ap"/><use transform="matrix(0.010850694444444444,0,0,0.010850694444444444,8.10546875,0)" xlink:href="#av"/><use transform="matrix(0.010850694444444444,0,0,0.010850694444444444,22.298177083333332,0)" xlink:href="#aw"/><use transform="matrix(0.010850694444444444,0,0,0.010850694444444444,35.43836805555556,0)" xlink:href="#ax"/><use transform="matrix(0.010850694444444444,0,0,0.010850694444444444,49.045138888888886,0)" xlink:href="#af"/><use transform="matrix(0.010850694444444444,0,0,0.010850694444444444,57.052951388888886,0)" xlink:href="#N"/><use transform="matrix(0.010850694444444444,0,0,0.010850694444444444,71.31076388888889,0)" xlink:href="#aw"/><use transform="matrix(0.010850694444444444,0,0,0.010850694444444444,84.45095486111111,0)" xlink:href="#ax"/><use transform="matrix(0.010850694444444444,0,0,0.010850694444444444,97.80815972222221,0)" xlink:href="#as"/></g><path d="M645 0H180v-1490h484c435 0 692 280 692 742 0 466-257 748-711 748zM370-168h263c363 0 539-218 539-580 0-358-176-574-521-574H370v1154" id="ay"/><g id="w"><use transform="matrix(0.010850694444444444,0,0,0.010850694444444444,0,0)" xlink:href="#ay"/><use transform="matrix(0.010850694444444444,0,0,0.010850694444444444,16.03732638888889,0)" xlink:href="#P"/><use transform="matrix(0.010850694444444444,0,0,0.010850694444444444,28.515625,0)" xlink:href="#O"/><use transform="matrix(0.010850694444444444,0,0,0.010850694444444444,35.89409722222222,0)" xlink:href="#P"/><use transform="matrix(0.010850694444444444,0,0,0.010850694444444444,48.37239583333333,0)" xlink:href="#ax"/><use transform="matrix(0.010850694444444444,0,0,0.010850694444444444,62.19618055555554,0)" xlink:href="#P"/><use transform="matrix(0.010850694444444444,0,0,0.010850694444444444,74.67447916666666,0)" xlink:href="#am"/><use transform="matrix(0.010850694444444444,0,0,0.010850694444444444,86.4040798611111,0)" xlink:href="#X"/></g><path d="M635 20c-292 0-500-160-510-396h192c11 142 145 229 315 229 187 0 323-105 323-260 0-161-125-274-346-274H488v-165h121c174 0 294-100 294-254 0-148-104-245-266-245-152 0-291 85-297 230H157c8-234 222-395 484-395 278 0 448 188 448 400 0 168-95 291-247 336v12c190 31 301 169 301 357 0 244-216 425-508 425" id="az"/><g id="x"><use transform="matrix(0.010850694444444444,0,0,0.010850694444444444,0,0)" xlink:href="#N"/><use transform="matrix(0.010850694444444444,0,0,0.010850694444444444,14.2578125,0)" xlink:href="#az"/></g><path fill="#3a414a" d="M135 0v-1490h581c339 0 533 210 533 503 0 295-197 500-540 500H440V0H135zm305-733h220c186 0 274-104 274-254s-88-251-275-251H440v505" id="aA"/><path fill="#3a414a" d="M513 14c-232 0-385-159-385-421v-711h300v659c0 139 76 222 202 222 127 0 217-86 217-234v-647h301V0H864l-4-232C797-74 683 14 513 14" id="aB"/><path fill="#3a414a" d="M754 19C571 19 479-89 437-179h-14V0H128v-1490h300v560h9c41-89 129-202 319-202 248 0 453 193 453 575 0 372-197 576-455 576zm-92-241c156 0 240-139 240-336 0-196-83-334-240-334-154 0-241 131-241 334 0 202 88 336 241 336" id="aC"/><path fill="#3a414a" d="M768-1560L288 224H28l480-1784h260" id="aD"/><path fill="#3a414a" d="M681 22C323 22 94-145 85-462h297c10 151 131 226 296 226 163 0 271-77 271-190 0-102-95-149-257-189l-164-41c-252-61-403-188-403-405 0-269 236-449 560-449 330 0 546 183 551 445H941c-11-119-106-188-259-188-156 0-244 72-244 172-3 156 226 185 373 221 250 61 445 186 445 436 0 271-213 446-575 446" id="aE"/><g id="y"><use transform="matrix(0.008680555555555556,0,0,0.008680555555555556,0,0)" xlink:href="#aA"/><use transform="matrix(0.008680555555555556,0,0,0.008680555555555556,11.519097222222223,0)" xlink:href="#aB"/><use transform="matrix(0.008680555555555556,0,0,0.008680555555555556,22.586805555555557,0)" xlink:href="#aC"/><use transform="matrix(0.008680555555555556,0,0,0.008680555555555556,33.79340277777778,0)" xlink:href="#aD"/><use transform="matrix(0.008680555555555556,0,0,0.008680555555555556,40.69444444444444,0)" xlink:href="#aE"/><use transform="matrix(0.008680555555555556,0,0,0.008680555555555556,52.33506944444445,0)" xlink:href="#aB"/><use transform="matrix(0.008680555555555556,0,0,0.008680555555555556,63.40277777777778,0)" xlink:href="#aC"/></g><path fill="#3a414a" d="M633 22C291 22 81-200 81-553c0-345 210-579 537-579 292 0 525 185 525 567v84H378c7 183 109 277 260 277 105 0 184-46 216-132l272 51C1071-99 893 22 633 22zM380-669h474c-15-146-94-237-233-237-143 0-229 99-241 237" id="aF"/><path fill="#3a414a" d="M128 0v-1118h290v195h12c54-169 184-238 367-200v268c-27-8-86-15-130-15-138 0-239 95-239 234V0H128" id="aG"/><path fill="#3a414a" d="M572 22C302 22 117-98 78-306l279-48c29 105 101 156 224 156 114 0 185-48 185-115 0-118-228-130-337-155-215-49-322-150-322-317 0-215 187-347 470-347 265 0 424 116 466 298l-266 47c-24-76-87-130-196-130-98 0-174 46-174 113 0 56 38 95 144 117l201 40c216 44 320 143 320 302 0 220-207 367-500 367" id="aH"/><path fill="#3a414a" d="M128 0v-1118h300V0H128zm150-1264c-91 0-165-68-165-154 0-85 74-154 165-154 90 0 165 69 165 154 0 86-75 154-165 154" id="aI"/><path fill="#3a414a" d="M683-1118v229H474v562c0 71 29 104 102 104 23 0 73-7 95-13l43 225C647 9 580 16 520 16 296 16 174-96 174-301v-588H20v-229h154v-266h300v266h209" id="aJ"/><g id="z"><use transform="matrix(0.008680555555555556,0,0,0.008680555555555556,0,0)" xlink:href="#aA"/><use transform="matrix(0.008680555555555556,0,0,0.008680555555555556,11.371527777777779,0)" xlink:href="#aF"/><use transform="matrix(0.008680555555555556,0,0,0.008680555555555556,21.961805555555557,0)" xlink:href="#aG"/><use transform="matrix(0.008680555555555556,0,0,0.008680555555555556,29.201388888888893,0)" xlink:href="#aH"/><use transform="matrix(0.008680555555555556,0,0,0.008680555555555556,39.157986111111114,0)" xlink:href="#aI"/><use transform="matrix(0.008680555555555556,0,0,0.008680555555555556,43.97569444444444,0)" xlink:href="#aH"/><use transform="matrix(0.008680555555555556,0,0,0.008680555555555556,53.93229166666667,0)" xlink:href="#aJ"/></g></defs></g></svg>