<svg xmlns="http://www.w3.org/2000/svg" xmlns:xlink="http://www.w3.org/1999/xlink" xmlns:lucid="lucid" width="1973.91" height="2308.13"><g transform="translate(2177.4724997153917 930.4323372127915)" lucid:page-tab-id="0_0"><path d="M-2500-1000H0v2500h-2500z" fill="#fff"/><path d="M-2176.47-832.03a6 6 0 0 1 6-6h1959.9a6 6 0 0 1 6 6V1370.7a6 6 0 0 1-6 6h-1959.9a6 6 0 0 1-6-6z" stroke="#3a414a" stroke-width="2" fill="#fff"/><path d="M-2176.47-924.43a6 6 0 0 1 6-6h402.95a6 6 0 0 1 6 6v68.4a6 6 0 0 1-6 6h-402.95a6 6 0 0 1-6-6z" fill="#3a414a"/><use xlink:href="#a" transform="matrix(1,0,0,1,-2160.4724997153917,-914.4323372127915) translate(0 39.05078125)"/><path d="M-2096.47-752.03a6 6 0 0 1 6-6h835.74a6 6 0 0 1 6 6v994.2a6 6 0 0 1-6 6h-835.74a6 6 0 0 1-6-6z" stroke="#fc9432" stroke-width="2" fill="#dfe3e8"/><path d="M-2096.47-801.54a6 6 0 0 1 6-6h74a6 6 0 0 1 6 6v25.5a6 6 0 0 1-6 6h-74a6 6 0 0 1-6-6z" fill="#fc9432"/><use xlink:href="#b" transform="matrix(1,0,0,1,-2088.4724997153917,-799.5443163794581) translate(0 17.46701388888889)"/><path d="M-1208.73-403.3a6 6 0 0 1 6-6h658.4a6 6 0 0 1 6 6v296.73a6 6 0 0 1-6 6h-658.4a6 6 0 0 1-6-6z" stroke="#00c2a8" stroke-width="2" fill="#dfe3e8"/><path d="M-1208.73-452.8a6 6 0 0 1 6-6h178.38a6 6 0 0 1 6 6v25.5a6 6 0 0 1-6 6h-178.38a6 6 0 0 1-6-6z" fill="#00c2a8"/><use xlink:href="#c" transform="matrix(1,0,0,1,-1200.729444159836,-450.81384762945817) translate(0 17.46701388888889)"/><use xlink:href="#d" transform="matrix(1,0,0,1,-1200.729444159836,-450.81384762945817) translate(58.40277777777778 17.46701388888889)"/><use xlink:href="#e" transform="matrix(1,0,0,1,-1200.729444159836,-450.81384762945817) translate(108.73263888888889 17.46701388888889)"/><path d="M-2096.47 294.16a6 6 0 0 1 6-6h437.43a6 6 0 0 1 6 6v996.54a6 6 0 0 1-6 6h-437.43a6 6 0 0 1-6-6z" stroke="#fcce14" stroke-width="2" fill="#dfe3e8"/><path d="M-2096.47 244.65a6 6 0 0 1 6-6h166.4a6 6 0 0 1 6 6v25.5a6 6 0 0 1-6 6h-166.4a6 6 0 0 1-6-6z" fill="#fcce14"/><use xlink:href="#f" transform="matrix(1,0,0,1,-2088.4724997153917,246.64708987054186) translate(0 17.46701388888889)"/><use xlink:href="#g" transform="matrix(1,0,0,1,-2088.4724997153917,246.64708987054186) translate(65.56423611111111 17.46701388888889)"/><use xlink:href="#h" transform="matrix(1,0,0,1,-2088.4724997153917,246.64708987054186) translate(100.03472222222223 17.46701388888889)"/><path d="M-1838.3-288.38c18.46 0 33.43 14.97 33.43 33.44s-14.97 33.45-33.44 33.45h-66.9c-18.47 0-33.44-14.97-33.44-33.44s14.97-33.44 33.44-33.44z" stroke="#1071e5" stroke-width="4" fill="#6db1ff"/><use xlink:href="#i" transform="matrix(1,0,0,1,-1933.6426386042806,-283.38220700445817) translate(36.951171875 35.77777777777778)"/><path d="M-649.67 640c18.47 0 33.44 14.97 33.44 33.44s-14.97 33.45-33.44 33.45h-66.9c-18.46 0-33.43-15-33.43-33.46 0-18.47 14.97-33.44 33.44-33.44z" stroke="#1071e5" stroke-width="4" fill="#6db1ff"/><use xlink:href="#j" transform="matrix(1,0,0,1,-745.0033156876138,645) translate(41.95334201388889 35.77777777777778)"/><path d="M-1432.68-325.7a8 8 0 0 1 9.6 0l89.55 67.16a4.5 4.5 0 0 1 0 7.2l-89.55 67.17a8 8 0 0 1-9.6 0l-89.56-67.17a4.5 4.5 0 0 1 0-7.2z" stroke="#d916a8" stroke-width="4" fill="#ff80df"/><use xlink:href="#k" transform="matrix(1,0,0,1,-1522.0367358265028,-324.3034309627915) translate(37.08225694444444 77.99652777777777)"/><use xlink:href="#l" transform="matrix(1,0,0,1,-1522.0367358265028,-324.3034309627915) translate(110.83442708333334 77.99652777777777)"/><path d="M-1876.56 23.03a8 8 0 0 1 9.6 0l89.56 67.16a4.5 4.5 0 0 1 0 7.2l-89.55 67.16a8 8 0 0 1-9.6 0l-89.56-67.17a4.5 4.5 0 0 1 0-7.2z" stroke="#d916a8" stroke-width="4" fill="#ff80df"/><use xlink:href="#m" transform="matrix(1,0,0,1,-1965.9082636042806,24.42703778720852) translate(28.521059027777774 77.99652777777777)"/><use xlink:href="#n" transform="matrix(1,0,0,1,-1965.9082636042806,24.42703778720852) translate(91.36828125 77.99652777777777)"/><use xlink:href="#o" transform="matrix(1,0,0,1,-1965.9082636042806,24.42703778720852) translate(105.62609375 77.99652777777777)"/><path d="M-1876.56-674.43a8 8 0 0 1 9.6 0l89.56 67.16a4.5 4.5 0 0 1 0 7.2l-89.55 67.17a8 8 0 0 1-9.6 0l-89.56-67.17a4.5 4.5 0 0 1 0-7.2z" stroke="#d916a8" stroke-width="4" fill="#ff80df"/><use xlink:href="#p" transform="matrix(1,0,0,1,-1965.9082636042806,-673.0338997127915) translate(24.012595486111117 77.99652777777777)"/><use xlink:href="#q" transform="matrix(1,0,0,1,-1965.9082636042806,-673.0338997127915) translate(85.89410590277778 77.99652777777777)"/><path d="M-1128.73-316.24a6 6 0 0 1 6-6H-956a6 6 0 0 1 6 6v122.6a6 6 0 0 1-6 6h-166.73a6 6 0 0 1-6-6z" stroke="#1071e5" stroke-width="4" fill="#cfe4ff"/><use xlink:href="#r" transform="matrix(1,0,0,1,-1116.729444159836,-310.2363066915295) translate(5.011935763888886 45.80902777777778)"/><use xlink:href="#s" transform="matrix(1,0,0,1,-1116.729444159836,-310.2363066915295) translate(62.68337673611111 45.80902777777778)"/><use xlink:href="#t" transform="matrix(1,0,0,1,-1116.729444159836,-310.2363066915295) translate(129.61046006944446 45.80902777777778)"/><use xlink:href="#u" transform="matrix(1,0,0,1,-1116.729444159836,-310.2363066915295) translate(8.1369357638889 78.07465277777777)"/><path d="M-750-298.5a6 6 0 0 1 6-6h119.66a6 6 0 0 1 6 6v87.14a6 6 0 0 1-6 6H-744a6 6 0 0 1-6-6z" stroke="#1071e5" stroke-width="4" fill="#cfe4ff"/><use xlink:href="#v" transform="matrix(1,0,0,1,-738.0033156876138,-292.51501950445817) translate(10.651475694444443 31.02777777777778)"/><use xlink:href="#w" transform="matrix(1,0,0,1,-738.0033156876138,-292.51501950445817) translate(14.671657986111114 63.29340277777778)"/><path d="M-1959 374.16a6 6 0 0 1 6-6h162.5a6 6 0 0 1 6 6v119.42a6 6 0 0 1-6 6H-1953a6 6 0 0 1-6-6z" stroke="#1071e5" stroke-width="4" fill="#cfe4ff"/><use xlink:href="#x" transform="matrix(1,0,0,1,-1947.0083959471767,380.1575065372085) translate(30.7734375 45.15277777777778)"/><use xlink:href="#y" transform="matrix(1,0,0,1,-1947.0083959471767,380.1575065372085) translate(15.267795138888893 77.41840277777777)"/><use xlink:href="#z" transform="matrix(1,0,0,1,-1947.0083959471767,380.1575065372085) translate(81.60894097222223 77.41840277777777)"/><path d="M-2016.47 705.58a6 6 0 0 1 6-6h277.43a6 6 0 0 1 6 6v205.97a6 6 0 0 1-6 6h-277.43a6 6 0 0 1-6-6z" stroke="#1071e5" stroke-width="4" fill="#cfe4ff"/><use xlink:href="#A" transform="matrix(1,0,0,1,-2004.4724997153917,711.5767773705418) translate(105.37413194444444 88.21527777777777)"/><use xlink:href="#B" transform="matrix(1,0,0,1,-2004.4724997153917,711.5767773705418) translate(8.282118055555557 120.48090277777777)"/><path d="M-1937.6 1123.55a6 6 0 0 1 6-6h119.68a6 6 0 0 1 6 6v87.15a6 6 0 0 1-6 6h-119.67a6 6 0 0 1-6-6z" stroke="#1071e5" stroke-width="4" fill="#cfe4ff"/><use xlink:href="#C" transform="matrix(1,0,0,1,-1925.5861367258653,1129.5469205461247) translate(31.327473958333332 31.02777777777778)"/><use xlink:href="#D" transform="matrix(1,0,0,1,-1925.5861367258653,1129.5469205461247) translate(12.968098958333336 63.29340277777778)"/><path d="M-946-254.94h171.26" stroke="#3a414a" stroke-width="4" fill="none"/><path d="M-945.95-252.96H-948v-3.95h2.05z" stroke="#3a414a" stroke-width=".05" fill="#3a414a"/><path d="M-758.48-254.94l-14.26 4.64v-9.27z" stroke="#3a414a" stroke-width="4" fill="#3a414a"/><path d="M-1871.76 503.58v171.26" stroke="#3a414a" stroke-width="4" fill="none"/><path d="M-1869.78 503.63h-3.95v-2.05h3.95z" stroke="#3a414a" stroke-width=".05" fill="#3a414a"/><path d="M-1871.76 691.1l-4.63-14.26h9.28z" stroke="#3a414a" stroke-width="4" fill="#3a414a"/><path d="M-1871.76 921.55v171.26" stroke="#3a414a" stroke-width="4" fill="none"/><path d="M-1869.78 921.6h-3.95v-2.05h3.95z" stroke="#3a414a" stroke-width=".05" fill="#3a414a"/><path d="M-1871.76 1109.08l-4.63-14.27h9.28z" stroke="#3a414a" stroke-width="4" fill="#3a414a"/><path d="M-1800.87-254.94h252.1" stroke="#3a414a" stroke-width="4" fill="none"/><path d="M-1800.8-252.96h-2.2l.14-1.94-.08-2h2.13z" stroke="#3a414a" stroke-width=".05" fill="#3a414a"/><path d="M-1532.52-254.94l-14.26 4.64v-9.27z" stroke="#3a414a" stroke-width="4" fill="#3a414a"/><path d="M-1871.76-217.5V-3.3" stroke="#3a414a" stroke-width="4" fill="none"/><path d="M-1869.78-217.44h-3.95v-2.05h3.95z" stroke="#3a414a" stroke-width=".05" fill="#3a414a"/><path d="M-1871.76 12.95l-4.63-14.26h9.28z" stroke="#3a414a" stroke-width="4" fill="#3a414a"/><path d="M-1871.76-292.38v-214.18" stroke="#3a414a" stroke-width="4" fill="none"/><path d="M-1869.78-290.38h-3.95v-2.05h3.95z" stroke="#3a414a" stroke-width=".05" fill="#3a414a"/><path d="M-1871.76-522.83l4.64 14.27h-9.27z" stroke="#3a414a" stroke-width="4" fill="#3a414a"/><path d="M-1264.46-252.96h-63.26v-3.95h63.26zm111 0H-1196v-3.95h42.53z" stroke="#3a414a" stroke-width=".05" fill="#3a414a"/><path d="M-1327.67-252.96h-2.38l.22-.78.1-1.2-.1-1.2-.22-.77h2.38z" fill="#3a414a"/><path stroke="#3a414a" stroke-width=".05" fill="#3a414a"/><path d="M-1137.2-254.94l-14.27 4.64v-9.27z" fill="#3a414a"/><path d="M-1130.8-254.94l-22.64 7.35v-14.7zm-18.7 1.92l5.9-1.92-5.9-1.92z" stroke="#3a414a" stroke-width=".05" fill="#3a414a"/><use xlink:href="#E" transform="matrix(1,0,0,1,-1264.461235587746,-265.6934049211248) translate(0 17.22222222222222)"/><path d="M-1301 95.77h-470.6v-3.95h470.6zm263.6-7.9l-.08 1.17-.3 1.22-.48 1.16-.65 1.06-.82.96-.95.8-1.07.66-1.16.48-1.22.3-1.17.1h-187.23V91.8h187.1l.7-.06.6-.15.6-.23.53-.33.47-.4.4-.48.34-.54.26-.6.14-.6.06-.7V-162.9h3.95z" stroke="#3a414a" stroke-width=".05" fill="#3a414a"/><path d="M-1771.54 95.77h-2.38l.22-.78.1-1.2-.1-1.2-.22-.78h2.38z" fill="#3a414a"/><path stroke="#3a414a" stroke-width=".05" fill="#3a414a"/><path d="M-1034.73-164.9h-9.27l4.63-14.27z" fill="#3a414a"/><path d="M-1032-162.93h-14.72l7.35-22.63zm-9.28-3.95h3.83l-1.92-5.9z" stroke="#3a414a" stroke-width=".05" fill="#3a414a"/><use xlink:href="#E" transform="matrix(1,0,0,1,-1300.99928793171,83.03706382887519) translate(0 17.22222222222222)"/><path d="M-1044.12-605.55l1.22.3 1.16.47 1.07.65.95.82.8.94.66 1.07.48 1.16.3 1.22.1 1.17v250.78h-3.96V-597.6l-.06-.7-.14-.6-.25-.6-.32-.53-.4-.48-.48-.42-.54-.33-.58-.24-.62-.14-.7-.05h-187.1v-3.94h187.25zm-727.47 3.86v-3.94h470.6v3.95z" stroke="#3a414a" stroke-width=".05" fill="#3a414a"/><path d="M-1771.54-601.7h-2.38l.22-.77.1-1.2-.1-1.2-.22-.77h2.38z" fill="#3a414a"/><path stroke="#3a414a" stroke-width=".05" fill="#3a414a"/><path d="M-1039.37-330.7l-4.63-14.27h9.27z" fill="#3a414a"/><path d="M-1039.37-324.32l-7.35-22.63h14.7zm-1.9-18.68l1.9 5.9 1.92-5.9z" stroke="#3a414a" stroke-width=".05" fill="#3a414a"/><use xlink:href="#E" transform="matrix(1,0,0,1,-1300.9992880354482,-614.4238736711249) translate(0 17.22222222222222)"/><path d="M-1425.9 427.94l-.1 1.18-.3 1.2-.47 1.17-.66 1.06-.8.95-.96.82-1.06.66-1.16.48-1.2.3-1.2.08h-325.94v-3.95h325.8l.7-.06.62-.15.58-.25.54-.33.48-.4.4-.5.34-.53.24-.6.15-.6.04-.7V314.7h3.95zm0-338.64l-4 1.08-1.4 1.4-.54 2 .54 2.02 1.4 1.4 4 1.08V293.2h-3.96V101.3l-2.08-.56-2.9-2.9-1.1-4.05 1.1-4.06 2.9-2.9 2.08-.56v-264.85h3.95z" stroke="#3a414a" stroke-width=".05" fill="#3a414a"/><path d="M-1429.17-180.65l1.3.08 1.27-.08.7-.14v2.28h-3.96v-2.27z" fill="#3a414a"/><path stroke="#3a414a" stroke-width=".05" fill="#3a414a"/><path d="M-1761.76 438.5l-14.27-4.63 14.27-4.64z" fill="#3a414a"/><path d="M-1759.8 441.22l-22.62-7.35 22.63-7.36zm-9.84-7.35l5.9 1.9v-3.82z" stroke="#3a414a" stroke-width=".05" fill="#3a414a"/><use xlink:href="#F" transform="matrix(1,0,0,1,-1484.1981941598362,293.202845710928) translate(0 17.22222222222222)"/><path d="M-1869.78 343.42h-3.95v-65.5h3.95zm0-87.02h-3.95v-86.24h3.95z" stroke="#3a414a" stroke-width=".05" fill="#3a414a"/><path d="M-1873.04 168.08l1.28.08 1.3-.08.68-.14v2.27h-3.95v-2.26z" fill="#3a414a"/><path stroke="#3a414a" stroke-width=".05" fill="#3a414a"/><path d="M-1871.76 359.7l-4.63-14.28h9.28z" fill="#3a414a"/><path d="M-1871.76 366.08l-7.35-22.63h14.7zm-1.9-18.7l1.9 5.9 1.92-5.88z" stroke="#3a414a" stroke-width=".05" fill="#3a414a"/><g><use xlink:href="#F" transform="matrix(1,0,0,1,-1928.069721937614,256.40438740059113) translate(0 17.22222222222222)"/></g><path d="M-2054.5 427.8l.06.7.14.6.25.6.33.53.4.48.5.42.52.33.6.24.6.14.7.05h66.65v3.94h-66.8l-1.17-.1-1.22-.28-1.16-.48-1.06-.66-.96-.8-.8-.96-.66-1.07-.48-1.17-.3-1.2-.1-1.2V-69.68h3.96zm82.58-1029.5h-78.47l-.7.06-.6.15-.6.25-.53.33-.48.4-.42.5-.33.53-.24.6-.14.6-.06.7v506.4h-3.95v-506.55l.1-1.17.3-1.22.47-1.15.65-1.06.8-.95.97-.83 1.06-.65 1.16-.48 1.22-.3 1.17-.08h78.63z" stroke="#3a414a" stroke-width=".05" fill="#3a414a"/><path d="M-1969.8-604.87l-.12 1.2.12 1.2.22.78h-2.4v-3.94h2.4z" fill="#3a414a"/><path stroke="#3a414a" stroke-width=".05" fill="#3a414a"/><path d="M-1967.48 433.87l-14.27 4.63v-9.27z" fill="#3a414a"/><path d="M-1961.1 433.87l-22.62 7.35v-14.7zm-18.67 1.9l5.9-1.9-5.9-1.92z" stroke="#3a414a" stroke-width=".05" fill="#3a414a"/><g><use xlink:href="#F" transform="matrix(1,0,0,1,-2112.787603882058,-91.20171675691388) translate(0 17.22222222222222)"/></g><path d="M-684.17-201.36v798.83a.53.53 0 0 0 .53.53.53.53 0 0 1 .52.53v16.73" stroke="#3a414a" stroke-width="4" fill="none"/><path d="M-682.2-201.3h-3.95v-2.06h3.95z" stroke="#3a414a" stroke-width=".05" fill="#3a414a"/><path d="M-683.1 631.53l-4.65-14.27h9.27z" stroke="#3a414a" stroke-width="4" fill="#3a414a"/><path d="M-1801.92 1167.12h1112.8a6 6 0 0 0 6-6v-429.5" stroke="#3a414a" stroke-width="4" fill="none"/><path d="M-1801.87 1169.1h-2.05v-3.95h2.05z" stroke="#3a414a" stroke-width=".05" fill="#3a414a"/><path d="M-683.1 715.36l4.62 14.27h-9.27z" stroke="#3a414a" stroke-width="4" fill="#3a414a"/><defs><path fill="#fff" d="M645 0H180v-1490h484c435 0 692 280 692 742 0 466-257 748-711 748zM370-168h263c363 0 539-218 539-580 0-358-176-574-521-574H370v1154" id="G"/><path fill="#fff" d="M471 26C259 26 90-98 90-318c0-256 228-303 435-329 202-27 287-16 287-108 0-139-79-219-234-219-161 0-248 86-283 164l-173-57c86-203 278-265 451-265 150 0 419 46 419 395V0H815v-152h-12C765-73 660 26 471 26zm31-159c199 0 310-134 310-271v-155c-30 35-226 55-295 64-131 17-246 59-246 186 0 116 97 176 231 176" id="H"/><path fill="#fff" d="M409 0L70-1118h191c89 329 165 560 243 925 75-353 154-601 240-925h192c85 325 161 564 235 922 77-354 157-598 244-922h191L1267 0h-179c-86-307-176-590-250-913C763-588 675-308 588 0H409" id="I"/><path fill="#fff" d="M158 0v-1118h180V0H158zm91-1301c-68 0-125-53-125-119s57-119 125-119c69 0 126 53 126 119s-57 119-126 119" id="J"/><path fill="#fff" d="M338-670V0H158v-1118h173l1 207c72-158 192-221 342-221 226 0 378 139 378 422V0H872v-695c0-172-96-275-252-275-161 0-282 109-282 300" id="K"/><path fill="#fff" d="M611 442c-248 0-391-105-460-228l146-94c47 65 117 165 314 165 178 0 307-82 307-266v-224h-17C863-141 792-18 576-18c-268 0-472-195-472-546 0-346 197-568 476-568 216 0 288 133 326 193h17v-179h175V29c0 289-215 413-487 413zm-5-620c203 0 314-146 314-390 0-237-108-403-314-403-213 0-319 180-319 403 0 230 109 390 319 390" id="L"/><path fill="#fff" d="M934 0v166H0V0h934" id="M"/><path fill="#fff" d="M180 0v-1490h510c348 0 508 209 508 474 0 266-160 477-507 477H370V0H180zm190-706h312c236 0 327-133 327-310 0-176-91-307-329-307H370v617" id="N"/><path fill="#fff" d="M628 24c-324 0-524-230-524-574 0-343 198-582 503-582 237 0 487 146 487 559v75H286c9 234 145 362 343 362 132 0 231-58 273-172l174 48C1024-91 857 24 628 24zM287-650h624c-17-190-120-322-304-322-192 0-309 151-320 322" id="O"/><path fill="#fff" d="M158 0v-1118h174v172h12c41-113 157-188 290-188 26 0 70 2 91 3v181c-11-2-60-10-108-10-161 0-279 109-279 260V0H158" id="P"/><path fill="#fff" d="M538 24C308 24 148-78 108-271l171-41c32 123 123 178 257 178 156 0 256-77 256-169 0-77-54-128-164-154l-186-44c-203-48-300-148-300-305 0-192 176-326 414-326 230 0 351 112 402 269l-163 42c-31-80-94-158-238-158-133 0-233 69-233 162 0 83 57 129 188 160l169 40c203 48 298 149 298 302 0 196-179 339-441 339" id="Q"/><path fill="#fff" d="M598-1118v154H368v674c0 100 37 144 132 144 23 0 62-6 92-12L629-6c-37 13-88 20-134 20-193 0-307-107-307-290v-688H20v-154h168v-266h180v266h230" id="R"/><path fill="#fff" d="M613 24c-304 0-509-231-509-576 0-350 205-580 509-580 216 0 392 114 453 309l-173 49c-33-115-133-197-280-197-223 0-326 196-326 419 0 220 103 415 326 415 150 0 252-85 285-206l172 49C1010-95 832 24 613 24" id="S"/><g id="a"><use transform="matrix(0.01953125,0,0,0.01953125,0,0)" xlink:href="#G"/><use transform="matrix(0.01953125,0,0,0.01953125,28.8671875,0)" xlink:href="#H"/><use transform="matrix(0.01953125,0,0,0.01953125,51.328125,0)" xlink:href="#I"/><use transform="matrix(0.01953125,0,0,0.01953125,84.0625,0)" xlink:href="#J"/><use transform="matrix(0.01953125,0,0,0.01953125,93.75,0)" xlink:href="#K"/><use transform="matrix(0.01953125,0,0,0.01953125,117.3828125,0)" xlink:href="#L"/><use transform="matrix(0.01953125,0,0,0.01953125,141.9140625,0)" xlink:href="#M"/><use transform="matrix(0.01953125,0,0,0.01953125,161.50390625,0)" xlink:href="#N"/><use transform="matrix(0.01953125,0,0,0.01953125,186.8359375,0)" xlink:href="#O"/><use transform="matrix(0.01953125,0,0,0.01953125,210.15625,0)" xlink:href="#P"/><use transform="matrix(0.01953125,0,0,0.01953125,225.21484375,0)" xlink:href="#Q"/><use transform="matrix(0.01953125,0,0,0.01953125,246.328125,0)" xlink:href="#J"/><use transform="matrix(0.01953125,0,0,0.01953125,256.015625,0)" xlink:href="#Q"/><use transform="matrix(0.01953125,0,0,0.01953125,277.12890625,0)" xlink:href="#R"/><use transform="matrix(0.01953125,0,0,0.01953125,289.82421875,0)" xlink:href="#O"/><use transform="matrix(0.01953125,0,0,0.01953125,313.14453125,0)" xlink:href="#K"/><use transform="matrix(0.01953125,0,0,0.01953125,336.77734375,0)" xlink:href="#S"/><use transform="matrix(0.01953125,0,0,0.01953125,359.62890625,0)" xlink:href="#O"/></g><path d="M98-1322v-168h1126v168H757V0H567v-1322H98" id="T"/><path d="M158 0v-1118h174v172h12c41-113 157-188 290-188 26 0 70 2 91 3v181c-11-2-60-10-108-10-161 0-279 109-279 260V0H158" id="U"/><path d="M158 0v-1118h180V0H158zm91-1301c-68 0-125-53-125-119s57-119 125-119c69 0 126 53 126 119s-57 119-126 119" id="V"/><path d="M611 442c-248 0-391-105-460-228l146-94c47 65 117 165 314 165 178 0 307-82 307-266v-224h-17C863-141 792-18 576-18c-268 0-472-195-472-546 0-346 197-568 476-568 216 0 288 133 326 193h17v-179h175V29c0 289-215 413-487 413zm-5-620c203 0 314-146 314-390 0-237-108-403-314-403-213 0-319 180-319 403 0 230 109 390 319 390" id="W"/><path d="M628 24c-324 0-524-230-524-574 0-343 198-582 503-582 237 0 487 146 487 559v75H286c9 234 145 362 343 362 132 0 231-58 273-172l174 48C1024-91 857 24 628 24zM287-650h624c-17-190-120-322-304-322-192 0-309 151-320 322" id="X"/><path d="M538 24C308 24 148-78 108-271l171-41c32 123 123 178 257 178 156 0 256-77 256-169 0-77-54-128-164-154l-186-44c-203-48-300-148-300-305 0-192 176-326 414-326 230 0 351 112 402 269l-163 42c-31-80-94-158-238-158-133 0-233 69-233 162 0 83 57 129 188 160l169 40c203 48 298 149 298 302 0 196-179 339-441 339" id="Y"/><g id="b"><use transform="matrix(0.008680555555555556,0,0,0.008680555555555556,0,0)" xlink:href="#T"/><use transform="matrix(0.008680555555555556,0,0,0.008680555555555556,10.46875,0)" xlink:href="#U"/><use transform="matrix(0.008680555555555556,0,0,0.008680555555555556,17.439236111111114,0)" xlink:href="#V"/><use transform="matrix(0.008680555555555556,0,0,0.008680555555555556,21.74479166666667,0)" xlink:href="#W"/><use transform="matrix(0.008680555555555556,0,0,0.008680555555555556,32.64756944444445,0)" xlink:href="#W"/><use transform="matrix(0.008680555555555556,0,0,0.008680555555555556,43.55034722222223,0)" xlink:href="#X"/><use transform="matrix(0.008680555555555556,0,0,0.008680555555555556,53.914930555555564,0)" xlink:href="#U"/><use transform="matrix(0.008680555555555556,0,0,0.008680555555555556,60.6076388888889,0)" xlink:href="#Y"/></g><path d="M783 20c-382 0-661-292-661-764 0-473 279-766 661-766 302 0 548 182 601 489h-190c-42-204-217-313-411-313-268 0-476 208-476 590 0 381 209 588 476 588 195 0 369-110 411-313h190c-52 303-296 489-601 489" id="Z"/><path d="M338-1490V0H158v-1490h180" id="aa"/><path d="M338-670V0H158v-1118h173l1 207c72-158 192-221 342-221 226 0 378 139 378 422V0H872v-695c0-172-96-275-252-275-161 0-282 109-282 300" id="ab"/><path d="M598-1118v154H368v674c0 100 37 144 132 144 23 0 62-6 92-12L629-6c-37 13-88 20-134 20-193 0-307-107-307-290v-688H20v-154h168v-266h180v266h230" id="ac"/><path d="M295 13c-75 0-135-60-135-135s60-135 135-135 135 60 135 135S370 13 295 13zm0-809c-75 0-135-60-135-135s60-135 135-135 135 60 135 135-60 135-135 135" id="ad"/><g id="c"><use transform="matrix(0.008680555555555556,0,0,0.008680555555555556,0,0)" xlink:href="#Z"/><use transform="matrix(0.008680555555555556,0,0,0.008680555555555556,12.986111111111112,0)" xlink:href="#aa"/><use transform="matrix(0.008680555555555556,0,0,0.008680555555555556,17.291666666666668,0)" xlink:href="#V"/><use transform="matrix(0.008680555555555556,0,0,0.008680555555555556,21.59722222222222,0)" xlink:href="#X"/><use transform="matrix(0.008680555555555556,0,0,0.008680555555555556,31.961805555555557,0)" xlink:href="#ab"/><use transform="matrix(0.008680555555555556,0,0,0.008680555555555556,42.46527777777778,0)" xlink:href="#ac"/><use transform="matrix(0.008680555555555556,0,0,0.008680555555555556,48.28125,0)" xlink:href="#ad"/></g><path d="M180 0v-1490h190v1322h690V0H180" id="ae"/><path d="M613 24c-304 0-509-231-509-576 0-350 205-580 509-580 305 0 511 230 511 580 0 345-206 576-511 576zm0-161c226 0 329-195 329-415 0-222-103-419-329-419-223 0-326 196-326 419 0 220 103 415 326 415" id="af"/><path d="M613 24c-304 0-509-231-509-576 0-350 205-580 509-580 216 0 392 114 453 309l-173 49c-33-115-133-197-280-197-223 0-326 196-326 419 0 220 103 415 326 415 150 0 252-85 285-206l172 49C1010-95 832 24 613 24" id="ag"/><path d="M471 26C259 26 90-98 90-318c0-256 228-303 435-329 202-27 287-16 287-108 0-139-79-219-234-219-161 0-248 86-283 164l-173-57c86-203 278-265 451-265 150 0 419 46 419 395V0H815v-152h-12C765-73 660 26 471 26zm31-159c199 0 310-134 310-271v-155c-30 35-226 55-295 64-131 17-246 59-246 186 0 116 97 176 231 176" id="ah"/><g id="d"><use transform="matrix(0.008680555555555556,0,0,0.008680555555555556,0,0)" xlink:href="#ae"/><use transform="matrix(0.008680555555555556,0,0,0.008680555555555556,10.052083333333334,0)" xlink:href="#af"/><use transform="matrix(0.008680555555555556,0,0,0.008680555555555556,20.711805555555557,0)" xlink:href="#ag"/><use transform="matrix(0.008680555555555556,0,0,0.008680555555555556,31.041666666666668,0)" xlink:href="#ah"/><use transform="matrix(0.008680555555555556,0,0,0.008680555555555556,41.02430555555556,0)" xlink:href="#aa"/></g><path d="M657 26c-323 0-524-166-541-416h195c15 169 171 246 346 246 202 0 356-106 356-265 5-203-294-238-475-293-239-73-380-191-380-389 0-252 224-419 512-419 294 0 499 171 508 396H992c-17-145-151-228-328-228-193 0-321 102-321 242 0 156 175 211 284 241l149 41c160 44 422 134 422 412 0 244-197 432-541 432" id="ai"/><g id="e"><use transform="matrix(0.008680555555555556,0,0,0.008680555555555556,0,0)" xlink:href="#ai"/><use transform="matrix(0.008680555555555556,0,0,0.008680555555555556,11.40625,0)" xlink:href="#ac"/><use transform="matrix(0.008680555555555556,0,0,0.008680555555555556,17.04861111111111,0)" xlink:href="#af"/><use transform="matrix(0.008680555555555556,0,0,0.008680555555555556,27.708333333333336,0)" xlink:href="#U"/><use transform="matrix(0.008680555555555556,0,0,0.008680555555555556,34.40104166666667,0)" xlink:href="#ah"/><use transform="matrix(0.008680555555555556,0,0,0.008680555555555556,44.38368055555556,0)" xlink:href="#W"/><use transform="matrix(0.008680555555555556,0,0,0.008680555555555556,55.286458333333336,0)" xlink:href="#X"/></g><path d="M481 0L54-1118h197c107 314 236 620 325 951 87-331 217-637 324-951h197L670 0H481" id="aj"/><g id="f"><use transform="matrix(0.008680555555555556,0,0,0.008680555555555556,0,0)" xlink:href="#ai"/><use transform="matrix(0.008680555555555556,0,0,0.008680555555555556,11.40625,0)" xlink:href="#X"/><use transform="matrix(0.008680555555555556,0,0,0.008680555555555556,21.770833333333336,0)" xlink:href="#U"/><use transform="matrix(0.008680555555555556,0,0,0.008680555555555556,28.74131944444445,0)" xlink:href="#aj"/><use transform="matrix(0.008680555555555556,0,0,0.008680555555555556,38.38541666666667,0)" xlink:href="#X"/><use transform="matrix(0.008680555555555556,0,0,0.008680555555555556,48.75000000000001,0)" xlink:href="#U"/><use transform="matrix(0.008680555555555556,0,0,0.008680555555555556,55.44270833333334,0)" xlink:href="#ad"/></g><path d="M180 0v-1490h901v168H370v510h643v168H370V0H180" id="ak"/><g id="g"><use transform="matrix(0.008680555555555556,0,0,0.008680555555555556,0,0)" xlink:href="#ak"/><use transform="matrix(0.008680555555555556,0,0,0.008680555555555556,10.494791666666668,0)" xlink:href="#V"/><use transform="matrix(0.008680555555555556,0,0,0.008680555555555556,14.800347222222223,0)" xlink:href="#aa"/><use transform="matrix(0.008680555555555556,0,0,0.008680555555555556,19.10590277777778,0)" xlink:href="#X"/></g><path d="M140 405l46-156c120 36 205 19 263-150l32-93L54-1118h197c107 313 237 620 324 950 87-331 219-637 326-950h196L606 167c-68 178-176 259-334 259-64 0-113-12-132-21" id="al"/><path d="M158 0v-1118h175l1 205c55-151 181-225 313-225 147 0 245 90 285 228 53-141 190-228 352-228 194 0 352 125 352 384V0h-181v-749c0-161-105-225-225-225-151 0-243 103-243 244V0H807v-767c0-124-93-207-219-207-131 0-250 92-250 270V0H158" id="am"/><g id="h"><use transform="matrix(0.008680555555555556,0,0,0.008680555555555556,0,0)" xlink:href="#ai"/><use transform="matrix(0.008680555555555556,0,0,0.008680555555555556,11.40625,0)" xlink:href="#al"/><use transform="matrix(0.008680555555555556,0,0,0.008680555555555556,21.397569444444443,0)" xlink:href="#Y"/><use transform="matrix(0.008680555555555556,0,0,0.008680555555555556,30.78125,0)" xlink:href="#ac"/><use transform="matrix(0.008680555555555556,0,0,0.008680555555555556,36.423611111111114,0)" xlink:href="#X"/><use transform="matrix(0.008680555555555556,0,0,0.008680555555555556,46.78819444444445,0)" xlink:href="#am"/></g><g id="i"><use transform="matrix(0.010850694444444444,0,0,0.010850694444444444,0,0)" xlink:href="#ai"/><use transform="matrix(0.010850694444444444,0,0,0.010850694444444444,14.2578125,0)" xlink:href="#ac"/><use transform="matrix(0.010850694444444444,0,0,0.010850694444444444,21.63628472222222,0)" xlink:href="#ah"/><use transform="matrix(0.010850694444444444,0,0,0.010850694444444444,34.11458333333333,0)" xlink:href="#U"/><use transform="matrix(0.010850694444444444,0,0,0.010850694444444444,42.827690972222214,0)" xlink:href="#ac"/></g><path d="M180 0v-1490h908v168H370v486h669v168H370v500h727V0H180" id="an"/><path d="M577 24c-279 0-473-224-473-580 0-354 195-576 474-576 218 0 287 134 324 193h14v-551h180V0H922v-173h-20C865-111 790 24 577 24zm27-161c203 0 314-172 314-421 0-247-108-413-314-413-212 0-317 181-317 413 0 235 108 421 317 421" id="ao"/><g id="j"><use transform="matrix(0.010850694444444444,0,0,0.010850694444444444,0,0)" xlink:href="#an"/><use transform="matrix(0.010850694444444444,0,0,0.010850694444444444,13.35720486111111,0)" xlink:href="#ab"/><use transform="matrix(0.010850694444444444,0,0,0.010850694444444444,26.48654513888889,0)" xlink:href="#ao"/></g><path d="M158 0v-1490h180v865h22l478-493h223L593-638 1096 0H865L456-523 338-412V0H158" id="ap"/><g id="k"><use transform="matrix(0.010850694444444444,0,0,0.010850694444444444,0,0)" xlink:href="#ai"/><use transform="matrix(0.010850694444444444,0,0,0.010850694444444444,14.2578125,0)" xlink:href="#ac"/><use transform="matrix(0.010850694444444444,0,0,0.010850694444444444,21.52777777777778,0)" xlink:href="#U"/><use transform="matrix(0.010850694444444444,0,0,0.010850694444444444,29.524739583333336,0)" xlink:href="#af"/><use transform="matrix(0.010850694444444444,0,0,0.010850694444444444,42.849392361111114,0)" xlink:href="#ap"/><use transform="matrix(0.010850694444444444,0,0,0.010850694444444444,54.54644097222223,0)" xlink:href="#X"/></g><g id="l"><use transform="matrix(0.010850694444444444,0,0,0.010850694444444444,0,0)" xlink:href="#an"/><use transform="matrix(0.010850694444444444,0,0,0.010850694444444444,13.35720486111111,0)" xlink:href="#ab"/><use transform="matrix(0.010850694444444444,0,0,0.010850694444444444,26.48654513888889,0)" xlink:href="#ao"/></g><path d="M763 24c-353 0-583-224-583-531v-983h190v968c0 214 149 370 393 370 243 0 391-156 391-370v-968h190v983c0 307-230 531-581 531" id="aq"/><g id="m"><use transform="matrix(0.010850694444444444,0,0,0.010850694444444444,0,0)" xlink:href="#aq"/><use transform="matrix(0.010850694444444444,0,0,0.010850694444444444,16.536458333333332,0)" xlink:href="#ab"/><use transform="matrix(0.010850694444444444,0,0,0.010850694444444444,29.665798611111104,0)" xlink:href="#ao"/><use transform="matrix(0.010850694444444444,0,0,0.010850694444444444,43.27256944444444,0)" xlink:href="#af"/></g><path d="M692-1560L212 224H46l480-1784h166" id="ar"/><use transform="matrix(0.010850694444444444,0,0,0.010850694444444444,0,0)" xlink:href="#ar" id="n"/><path d="M180 0v-1490h510c348 0 508 194 508 460 0 198-88 351-276 417L1256 0h-220L726-579c-117 2-238 0-356 1V0H180zm190-747h312c235 0 327-108 327-283 0-177-92-293-329-293H370v576" id="as"/><g id="o"><use transform="matrix(0.010850694444444444,0,0,0.010850694444444444,0,0)" xlink:href="#as"/><use transform="matrix(0.010850694444444444,0,0,0.010850694444444444,13.975694444444445,0)" xlink:href="#X"/><use transform="matrix(0.010850694444444444,0,0,0.010850694444444444,26.931423611111104,0)" xlink:href="#ao"/><use transform="matrix(0.010850694444444444,0,0,0.010850694444444444,40.53819444444444,0)" xlink:href="#af"/></g><g id="p"><use transform="matrix(0.010850694444444444,0,0,0.010850694444444444,0,0)" xlink:href="#Z"/><use transform="matrix(0.010850694444444444,0,0,0.010850694444444444,16.23263888888889,0)" xlink:href="#aa"/><use transform="matrix(0.010850694444444444,0,0,0.010850694444444444,21.614583333333336,0)" xlink:href="#X"/><use transform="matrix(0.010850694444444444,0,0,0.010850694444444444,34.78732638888889,0)" xlink:href="#ah"/><use transform="matrix(0.010850694444444444,0,0,0.010850694444444444,47.265625,0)" xlink:href="#U"/></g><g id="q"><use transform="matrix(0.010850694444444444,0,0,0.010850694444444444,0,0)" xlink:href="#Z"/><use transform="matrix(0.010850694444444444,0,0,0.010850694444444444,16.23263888888889,0)" xlink:href="#ah"/><use transform="matrix(0.010850694444444444,0,0,0.010850694444444444,28.7109375,0)" xlink:href="#ab"/><use transform="matrix(0.010850694444444444,0,0,0.010850694444444444,41.51475694444444,0)" xlink:href="#aj"/><use transform="matrix(0.010850694444444444,0,0,0.010850694444444444,53.89539930555556,0)" xlink:href="#ah"/><use transform="matrix(0.010850694444444444,0,0,0.010850694444444444,66.37369791666667,0)" xlink:href="#Y"/></g><g id="r"><use transform="matrix(0.010850694444444444,0,0,0.010850694444444444,0,0)" xlink:href="#ai"/><use transform="matrix(0.010850694444444444,0,0,0.010850694444444444,14.2578125,0)" xlink:href="#ah"/><use transform="matrix(0.010850694444444444,0,0,0.010850694444444444,26.41059027777778,0)" xlink:href="#aj"/><use transform="matrix(0.010850694444444444,0,0,0.010850694444444444,38.46571180555556,0)" xlink:href="#X"/></g><path d="M545 20c-263 0-445-160-445-446v-80h190v80c0 182 102 279 255 279 152 0 254-97 254-279v-1064h190v1064c0 286-181 446-444 446" id="at"/><path d="M784 20c-382 0-662-292-662-764 0-473 280-766 662-766s660 293 660 766c0 472-278 764-660 764zm0-176c266 0 475-207 475-588 0-383-209-590-475-590-268 0-477 208-477 590 0 380 209 588 477 588" id="au"/><path d="M180 0v-1490h224l606 953c40 63 108 177 176 312-27-437-7-821-13-1265h190V0h-226C860-448 622-778 356-1262c27 476 11 792 15 1262H180" id="av"/><g id="s"><use transform="matrix(0.010850694444444444,0,0,0.010850694444444444,0,0)" xlink:href="#at"/><use transform="matrix(0.010850694444444444,0,0,0.010850694444444444,12.684461805555555,0)" xlink:href="#ai"/><use transform="matrix(0.010850694444444444,0,0,0.010850694444444444,26.94227430555556,0)" xlink:href="#au"/><use transform="matrix(0.010850694444444444,0,0,0.010850694444444444,43.93446180555556,0)" xlink:href="#av"/></g><g id="t"><use transform="matrix(0.010850694444444444,0,0,0.010850694444444444,0,0)" xlink:href="#ac"/><use transform="matrix(0.010850694444444444,0,0,0.010850694444444444,7.052951388888888,0)" xlink:href="#af"/></g><g id="u"><use transform="matrix(0.010850694444444444,0,0,0.010850694444444444,0,0)" xlink:href="#ae"/><use transform="matrix(0.010850694444444444,0,0,0.010850694444444444,12.565104166666666,0)" xlink:href="#af"/><use transform="matrix(0.010850694444444444,0,0,0.010850694444444444,25.889756944444443,0)" xlink:href="#ag"/><use transform="matrix(0.010850694444444444,0,0,0.010850694444444444,38.80208333333333,0)" xlink:href="#ah"/><use transform="matrix(0.010850694444444444,0,0,0.010850694444444444,51.28038194444444,0)" xlink:href="#aa"/><use transform="matrix(0.010850694444444444,0,0,0.010850694444444444,56.662326388888886,0)" xlink:href="#ai"/><use transform="matrix(0.010850694444444444,0,0,0.010850694444444444,70.92013888888889,0)" xlink:href="#ac"/><use transform="matrix(0.010850694444444444,0,0,0.010850694444444444,77.97309027777777,0)" xlink:href="#af"/><use transform="matrix(0.010850694444444444,0,0,0.010850694444444444,91.29774305555556,0)" xlink:href="#U"/><use transform="matrix(0.010850694444444444,0,0,0.010850694444444444,99.66362847222221,0)" xlink:href="#ah"/><use transform="matrix(0.010850694444444444,0,0,0.010850694444444444,112.14192708333333,0)" xlink:href="#W"/><use transform="matrix(0.010850694444444444,0,0,0.010850694444444444,125.77039930555556,0)" xlink:href="#X"/></g><path d="M180 0v-1490h528c311 0 458 177 458 395 0 191-114 278-244 313v14c139 9 302 137 302 371 0 225-148 397-499 397H180zm190-168h350c232 0 321-102 321-231 0-149-120-277-311-277H370v508zm0-668h328c160 0 286-101 286-255 0-129-87-231-280-231H370v486" id="aw"/><path d="M409 0L70-1118h191c89 329 165 560 243 925 75-353 154-601 240-925h192c85 325 161 564 235 922 77-354 157-598 244-922h191L1267 0h-179c-86-307-176-590-250-913C763-588 675-308 588 0H409" id="ax"/><g id="v"><use transform="matrix(0.010850694444444444,0,0,0.010850694444444444,0,0)" xlink:href="#aw"/><use transform="matrix(0.010850694444444444,0,0,0.010850694444444444,14.539930555555555,0)" xlink:href="#U"/><use transform="matrix(0.010850694444444444,0,0,0.010850694444444444,22.53689236111111,0)" xlink:href="#af"/><use transform="matrix(0.010850694444444444,0,0,0.010850694444444444,35.46006944444444,0)" xlink:href="#ax"/><use transform="matrix(0.010850694444444444,0,0,0.010850694444444444,53.64583333333333,0)" xlink:href="#Y"/><use transform="matrix(0.010850694444444444,0,0,0.010850694444444444,65.37543402777777,0)" xlink:href="#X"/><use transform="matrix(0.010850694444444444,0,0,0.010850694444444444,78.33116319444444,0)" xlink:href="#U"/></g><path d="M537 14c-226 0-379-139-379-422v-710h180v695c0 172 97 275 253 275 160 0 281-109 281-300v-670h181V0H879v-209C806-46 684 14 537 14" id="ay"/><path d="M158 418v-1536h174v179h20c37-59 106-193 324-193 279 0 474 222 474 576 0 356-194 580-473 580-213 0-288-135-325-197h-14v591H158zm492-555c209 0 317-186 317-421 0-232-105-413-317-413-206 0-314 166-314 413 0 249 111 421 314 421" id="az"/><g id="w"><use transform="matrix(0.010850694444444444,0,0,0.010850694444444444,0,0)" xlink:href="#aw"/><use transform="matrix(0.010850694444444444,0,0,0.010850694444444444,14.539930555555555,0)" xlink:href="#ah"/><use transform="matrix(0.010850694444444444,0,0,0.010850694444444444,27.018229166666664,0)" xlink:href="#ag"/><use transform="matrix(0.010850694444444444,0,0,0.010850694444444444,39.713541666666664,0)" xlink:href="#ap"/><use transform="matrix(0.010850694444444444,0,0,0.010850694444444444,51.90972222222222,0)" xlink:href="#ay"/><use transform="matrix(0.010850694444444444,0,0,0.010850694444444444,65.04991319444444,0)" xlink:href="#az"/></g><path d="M126 0v-134l627-806v-11H146v-167h839v143L376-178v11h629V0H126" id="aA"/><g id="x"><use transform="matrix(0.010850694444444444,0,0,0.010850694444444444,0,0)" xlink:href="#ai"/><use transform="matrix(0.010850694444444444,0,0,0.010850694444444444,14.2578125,0)" xlink:href="#X"/><use transform="matrix(0.010850694444444444,0,0,0.010850694444444444,27.213541666666664,0)" xlink:href="#U"/><use transform="matrix(0.010850694444444444,0,0,0.010850694444444444,35.92664930555555,0)" xlink:href="#V"/><use transform="matrix(0.010850694444444444,0,0,0.010850694444444444,41.30859374999999,0)" xlink:href="#ah"/><use transform="matrix(0.010850694444444444,0,0,0.010850694444444444,53.7868923611111,0)" xlink:href="#aa"/><use transform="matrix(0.010850694444444444,0,0,0.010850694444444444,59.16883680555554,0)" xlink:href="#V"/><use transform="matrix(0.010850694444444444,0,0,0.010850694444444444,64.55078124999999,0)" xlink:href="#aA"/><use transform="matrix(0.010850694444444444,0,0,0.010850694444444444,76.49739583333333,0)" xlink:href="#X"/></g><g id="y"><use transform="matrix(0.010850694444444444,0,0,0.010850694444444444,0,0)" xlink:href="#as"/><use transform="matrix(0.010850694444444444,0,0,0.010850694444444444,13.975694444444445,0)" xlink:href="#af"/><use transform="matrix(0.010850694444444444,0,0,0.010850694444444444,27.30034722222222,0)" xlink:href="#af"/><use transform="matrix(0.010850694444444444,0,0,0.010850694444444444,40.625,0)" xlink:href="#am"/></g><g id="z"><use transform="matrix(0.010850694444444444,0,0,0.010850694444444444,0,0)" xlink:href="#ai"/><use transform="matrix(0.010850694444444444,0,0,0.010850694444444444,14.2578125,0)" xlink:href="#ac"/><use transform="matrix(0.010850694444444444,0,0,0.010850694444444444,21.63628472222222,0)" xlink:href="#ah"/><use transform="matrix(0.010850694444444444,0,0,0.010850694444444444,34.11458333333333,0)" xlink:href="#ac"/><use transform="matrix(0.010850694444444444,0,0,0.010850694444444444,41.16753472222222,0)" xlink:href="#X"/></g><path d="M458 0L52-1490h194c108 439 233 855 324 1313 92-459 221-873 331-1313h216c110 438 234 854 330 1307 92-455 216-869 323-1307h196L1558 0h-221l-256-944c-26-95-50-200-73-331-22 122-44 223-73 331L680 0H458" id="aB"/><g id="A"><use transform="matrix(0.010850694444444444,0,0,0.010850694444444444,0,0)" xlink:href="#aB"/><use transform="matrix(0.010850694444444444,0,0,0.010850694444444444,21.14800347222222,0)" xlink:href="#U"/><use transform="matrix(0.010850694444444444,0,0,0.010850694444444444,29.861111111111104,0)" xlink:href="#V"/><use transform="matrix(0.010850694444444444,0,0,0.010850694444444444,35.24305555555555,0)" xlink:href="#ac"/><use transform="matrix(0.010850694444444444,0,0,0.010850694444444444,42.29600694444444,0)" xlink:href="#X"/></g><path d="M295 13c-75 0-135-60-135-135s60-135 135-135 135 60 135 135S370 13 295 13" id="aC"/><path d="M798-719v166H144v-166h654" id="aD"/><path d="M157-1118h181V80c1 225-123 350-364 338V252c126 9 184-48 183-172v-1198zm91-183c-68 0-125-53-125-119s57-119 125-119c69 0 126 53 126 119s-57 119-126 119" id="aE"/><g id="B"><use transform="matrix(0.010850694444444444,0,0,0.010850694444444444,0,0)" xlink:href="#aC"/><use transform="matrix(0.010850694444444444,0,0,0.010850694444444444,6.401909722222222,0)" xlink:href="#ag"/><use transform="matrix(0.010850694444444444,0,0,0.010850694444444444,19.31423611111111,0)" xlink:href="#ah"/><use transform="matrix(0.010850694444444444,0,0,0.010850694444444444,31.79253472222222,0)" xlink:href="#ab"/><use transform="matrix(0.010850694444444444,0,0,0.010850694444444444,44.596354166666664,0)" xlink:href="#aj"/><use transform="matrix(0.010850694444444444,0,0,0.010850694444444444,56.97699652777778,0)" xlink:href="#ah"/><use transform="matrix(0.010850694444444444,0,0,0.010850694444444444,69.45529513888889,0)" xlink:href="#Y"/><use transform="matrix(0.010850694444444444,0,0,0.010850694444444444,81.18489583333333,0)" xlink:href="#aD"/><use transform="matrix(0.010850694444444444,0,0,0.010850694444444444,91.40625,0)" xlink:href="#ao"/><use transform="matrix(0.010850694444444444,0,0,0.010850694444444444,105.01302083333333,0)" xlink:href="#ah"/><use transform="matrix(0.010850694444444444,0,0,0.010850694444444444,117.49131944444444,0)" xlink:href="#ac"/><use transform="matrix(0.010850694444444444,0,0,0.010850694444444444,124.86979166666666,0)" xlink:href="#ah"/><use transform="matrix(0.010850694444444444,0,0,0.010850694444444444,137.34809027777777,0)" xlink:href="#ar"/><use transform="matrix(0.010850694444444444,0,0,0.010850694444444444,145.35590277777777,0)" xlink:href="#U"/><use transform="matrix(0.010850694444444444,0,0,0.010850694444444444,153.35286458333331,0)" xlink:href="#af"/><use transform="matrix(0.010850694444444444,0,0,0.010850694444444444,166.6775173611111,0)" xlink:href="#af"/><use transform="matrix(0.010850694444444444,0,0,0.010850694444444444,180.00217013888883,0)" xlink:href="#am"/><use transform="matrix(0.010850694444444444,0,0,0.010850694444444444,199.46831597222223,0)" xlink:href="#aC"/><use transform="matrix(0.010850694444444444,0,0,0.010850694444444444,205.87022569444443,0)" xlink:href="#aE"/><use transform="matrix(0.010850694444444444,0,0,0.010850694444444444,211.25217013888889,0)" xlink:href="#Y"/><use transform="matrix(0.010850694444444444,0,0,0.010850694444444444,222.98177083333331,0)" xlink:href="#af"/><use transform="matrix(0.010850694444444444,0,0,0.010850694444444444,236.30642361111111,0)" xlink:href="#ab"/></g><path d="M645 0H180v-1490h484c435 0 692 280 692 742 0 466-257 748-711 748zM370-168h263c363 0 539-218 539-580 0-358-176-574-521-574H370v1154" id="aF"/><g id="C"><use transform="matrix(0.010850694444444444,0,0,0.010850694444444444,0,0)" xlink:href="#aF"/><use transform="matrix(0.010850694444444444,0,0,0.010850694444444444,16.03732638888889,0)" xlink:href="#V"/><use transform="matrix(0.010850694444444444,0,0,0.010850694444444444,21.419270833333336,0)" xlink:href="#Y"/><use transform="matrix(0.010850694444444444,0,0,0.010850694444444444,33.14887152777778,0)" xlink:href="#ap"/></g><g id="D"><use transform="matrix(0.010850694444444444,0,0,0.010850694444444444,0,0)" xlink:href="#ai"/><use transform="matrix(0.010850694444444444,0,0,0.010850694444444444,14.2578125,0)" xlink:href="#ac"/><use transform="matrix(0.010850694444444444,0,0,0.010850694444444444,21.31076388888889,0)" xlink:href="#af"/><use transform="matrix(0.010850694444444444,0,0,0.010850694444444444,34.635416666666664,0)" xlink:href="#U"/><use transform="matrix(0.010850694444444444,0,0,0.010850694444444444,43.00130208333333,0)" xlink:href="#ah"/><use transform="matrix(0.010850694444444444,0,0,0.010850694444444444,55.47960069444444,0)" xlink:href="#W"/><use transform="matrix(0.010850694444444444,0,0,0.010850694444444444,69.10807291666666,0)" xlink:href="#X"/></g><path fill="#3a414a" d="M522-1970V480H238v-2450h284" id="aG"/><path fill="#3a414a" d="M49 0l509-1490h400L1480 0h-339l-115-346H497L386 0H49zm524-585h374c-75-213-124-402-192-666-66 268-110 453-182 666" id="aH"/><path fill="#3a414a" d="M572 22C302 22 117-98 78-306l279-48c29 105 101 156 224 156 114 0 185-48 185-115 0-118-228-130-337-155-215-49-322-150-322-317 0-215 187-347 470-347 265 0 424 116 466 298l-266 47c-24-76-87-130-196-130-98 0-174 46-174 113 0 56 38 95 144 117l201 40c216 44 320 143 320 302 0 220-207 367-500 367" id="aI"/><path fill="#3a414a" d="M120 396l69-226c123 42 245 23 254-107l8-60L31-1118h319c87 288 199 559 259 872 72-308 185-583 277-872h315L726 132c-68 181-186 294-410 294-79 0-153-13-196-30" id="aJ"/><path fill="#3a414a" d="M428-647V0H128v-1118h283l4 231c63-156 176-245 348-245 232 0 384 159 384 421V0H847v-659c0-139-76-222-202-222-128 0-217 86-217 234" id="aK"/><path fill="#3a414a" d="M628 22C291 22 81-210 81-554c0-346 210-578 547-578 265 0 455 142 497 372l-279 52c-25-116-99-188-215-188-160 0-244 139-244 341 0 200 84 341 244 341 116 0 193-74 217-195l279 51C1085-123 896 22 628 22" id="aL"/><g id="E"><use transform="matrix(0.008680555555555556,0,0,0.008680555555555556,0,0)" xlink:href="#aG"/><use transform="matrix(0.008680555555555556,0,0,0.008680555555555556,6.605902777777778,0)" xlink:href="#aH"/><use transform="matrix(0.008680555555555556,0,0,0.008680555555555556,19.678819444444443,0)" xlink:href="#aI"/><use transform="matrix(0.008680555555555556,0,0,0.008680555555555556,29.635416666666664,0)" xlink:href="#aJ"/><use transform="matrix(0.008680555555555556,0,0,0.008680555555555556,40.33854166666666,0)" xlink:href="#aK"/><use transform="matrix(0.008680555555555556,0,0,0.008680555555555556,51.40625,0)" xlink:href="#aL"/><use transform="matrix(0.008680555555555556,0,0,0.008680555555555556,61.866319444444436,0)" xlink:href="#aG"/></g><path fill="#3a414a" d="M449 0L49-1490h333c89 395 194 758 253 1185 65-426 176-790 269-1185h317c93 394 201 758 268 1181 60-425 164-788 253-1181h334L1675 0h-348c-90-376-204-711-266-1118C1004-714 886-373 798 0H449" id="aM"/><path fill="#3a414a" d="M633 22C291 22 81-200 81-553c0-345 210-579 537-579 292 0 525 185 525 567v84H378c7 183 109 277 260 277 105 0 184-46 216-132l272 51C1071-99 893 22 633 22zM380-669h474c-15-146-94-237-233-237-143 0-229 99-241 237" id="aN"/><path fill="#3a414a" d="M754 19C571 19 479-89 437-179h-14V0H128v-1490h300v560h9c41-89 129-202 319-202 248 0 453 193 453 575 0 372-197 576-455 576zm-92-241c156 0 240-139 240-336 0-196-83-334-240-334-154 0-241 131-241 334 0 202 88 336 241 336" id="aO"/><path fill="#3a414a" d="M681 22C323 22 94-145 85-462h297c10 151 131 226 296 226 163 0 271-77 271-190 0-102-95-149-257-189l-164-41c-252-61-403-188-403-405 0-269 236-449 560-449 330 0 546 183 551 445H941c-11-119-106-188-259-188-156 0-244 72-244 172-3 156 226 185 373 221 250 61 445 186 445 436 0 271-213 446-575 446" id="aP"/><path fill="#3a414a" d="M628 22C291 22 81-210 81-554c0-346 210-578 547-578 336 0 547 232 547 578 0 344-211 576-547 576zm0-236c160 0 242-146 242-341 0-197-82-341-242-341S387-753 387-555c0 195 81 341 241 341" id="aQ"/><path fill="#3a414a" d="M128 0v-1490h300v802h17l366-430h347L740-633 1179 0H826L514-456l-86 97V0H128" id="aR"/><path fill="#3a414a" d="M683-1118v229H474v562c0 71 29 104 102 104 23 0 73-7 95-13l43 225C647 9 580 16 520 16 296 16 174-96 174-301v-588H20v-229h154v-266h300v266h209" id="aS"/><g id="F"><use transform="matrix(0.008680555555555556,0,0,0.008680555555555556,0,0)" xlink:href="#aG"/><use transform="matrix(0.008680555555555556,0,0,0.008680555555555556,6.605902777777778,0)" xlink:href="#aM"/><use transform="matrix(0.008680555555555556,0,0,0.008680555555555556,24.166666666666668,0)" xlink:href="#aN"/><use transform="matrix(0.008680555555555556,0,0,0.008680555555555556,34.75694444444444,0)" xlink:href="#aO"/><use transform="matrix(0.008680555555555556,0,0,0.008680555555555556,45.963541666666664,0)" xlink:href="#aP"/><use transform="matrix(0.008680555555555556,0,0,0.008680555555555556,57.604166666666664,0)" xlink:href="#aQ"/><use transform="matrix(0.008680555555555556,0,0,0.008680555555555556,68.50694444444444,0)" xlink:href="#aL"/><use transform="matrix(0.008680555555555556,0,0,0.008680555555555556,78.96701388888889,0)" xlink:href="#aR"/><use transform="matrix(0.008680555555555556,0,0,0.008680555555555556,88.88020833333331,0)" xlink:href="#aN"/><use transform="matrix(0.008680555555555556,0,0,0.008680555555555556,99.47048611111111,0)" xlink:href="#aS"/><use transform="matrix(0.008680555555555556,0,0,0.008680555555555556,106.02430555555556,0)" xlink:href="#aG"/></g></defs></g></svg>