<svg xmlns="http://www.w3.org/2000/svg" xmlns:xlink="http://www.w3.org/1999/xlink" xmlns:lucid="lucid" width="4482.8" height="893.55"><g transform="translate(1430.7356984289622 -1001.7513020833333)" lucid:page-tab-id="0_0"><path d="M-1500 1000h5000v1000h-5000z" fill="#fff"/><path d="M-1429.74 1100.15a6 6 0 0 1 6-6h4468.8a6 6 0 0 1 6 6v788.15a6 6 0 0 1-6 6h-4468.8a6 6 0 0 1-6-6z" stroke="#3a414a" stroke-width="2" fill="#fff"/><path d="M-1429.74 1007.75a6 6 0 0 1 6-6h425.32a6 6 0 0 1 6 6v68.4a6 6 0 0 1-6 6h-425.32a6 6 0 0 1-6-6z" fill="#3a414a"/><use xlink:href="#a" transform="matrix(1,0,0,1,-1413.7356984289622,1017.7513020833333) translate(0 39.05078125)"/><path d="M-1349.74 1180.15a6 6 0 0 1 6-6h1052.48a6 6 0 0 1 6 6v296.73a6 6 0 0 1-6 6h-1052.48a6 6 0 0 1-6-6z" stroke="#fc9432" stroke-width="2" fill="#dfe3e8"/><path d="M-1349.74 1130.64a6 6 0 0 1 6-6h102.38a6 6 0 0 1 6 6v25.5a6 6 0 0 1-6 6h-102.38a6 6 0 0 1-6-6z" fill="#fc9432"/><use xlink:href="#b" transform="matrix(1,0,0,1,-1341.7356984289622,1132.6393229166665) translate(0 17.46701388888889)"/><use xlink:href="#c" transform="matrix(1,0,0,1,-1341.7356984289622,1132.6393229166665) translate(44.67013888888889 17.46701388888889)"/><path d="M-1018.07 1180.15a6 6 0 0 1 6-6H433.25a6 6 0 0 1 6 6v628.15a6 6 0 0 1-6 6h-1445.32a6 6 0 0 1-6-6z" stroke="#00c2a8" stroke-width="2" fill="#dfe3e8"/><path d="M-1018.07 1130.64a6 6 0 0 1 6-6h94.24a6 6 0 0 1 6 6v25.5a6 6 0 0 1-6 6h-94.24a6 6 0 0 1-6-6z" fill="#00c2a8"/><use xlink:href="#d" transform="matrix(1,0,0,1,-1010.0726605191262,1132.6393229166665) translate(0 17.46701388888889)"/><use xlink:href="#e" transform="matrix(1,0,0,1,-1010.0726605191262,1132.6393229166665) translate(53.28125 17.46701388888889)"/><path d="M479.25 1180.15a6 6 0 0 1 6-6h1421.53a6 6 0 0 1 6 6v296.73a6 6 0 0 1-6 6H485.25a6 6 0 0 1-6-6z" stroke="#fcce14" stroke-width="2" fill="#dfe3e8"/><path d="M479.25 1130.64a6 6 0 0 1 6-6h59.45a6 6 0 0 1 6 6v25.5a6 6 0 0 1-6 6h-59.45a6 6 0 0 1-6-6z" fill="#fcce14"/><use xlink:href="#f" transform="matrix(1,0,0,1,487.2540841302364,1132.6393229166665) translate(0 17.46701388888889)"/><path d="M1952.78 1180.15a6 6 0 0 1 6-6h1006.3a6 6 0 0 1 6 6v296.73a6 6 0 0 1-6 6h-1006.3a6 6 0 0 1-6-6z" stroke="#e08fff" stroke-width="2" fill="#dfe3e8"/><path d="M1952.78 1130.64a6 6 0 0 1 6-6h87.37a6 6 0 0 1 6 6v25.5a6 6 0 0 1-6 6h-87.37a6 6 0 0 1-6-6z" fill="#e08fff"/><use xlink:href="#g" transform="matrix(1,0,0,1,1960.78109346539,1132.6393229166665) translate(0 17.46701388888889)"/><use xlink:href="#h" transform="matrix(1,0,0,1,1960.78109346539,1132.6393229166665) translate(25.876736111111114 17.46701388888889)"/><path d="M-1269.74 1284.94a6 6 0 0 1 6-6h119.67a6 6 0 0 1 6 6v87.15a6 6 0 0 1-6 6h-119.67a6 6 0 0 1-6-6z" stroke="#1071e5" stroke-width="4" fill="#cfe4ff"/><use xlink:href="#i" transform="matrix(1,0,0,1,-1257.7356984289622,1290.9381510416665) translate(18.388020833333336 31.02777777777778)"/><use xlink:href="#j" transform="matrix(1,0,0,1,-1257.7356984289622,1290.9381510416665) translate(23.862196180555554 63.29340277777778)"/><path d="M-843.72 1257.75a8 8 0 0 1 9.6 0l89.55 67.16a4.5 4.5 0 0 1 0 7.2l-89.55 67.18a8 8 0 0 1-9.6 0l-89.55-67.16a4.5 4.5 0 0 1 0-7.2z" stroke="#d916a8" stroke-width="4" fill="#ff80df"/><use xlink:href="#k" transform="matrix(1,0,0,1,-933.0726605191262,1259.1497395833333) translate(30.01302951388889 77.99652777777777)"/><use xlink:href="#l" transform="matrix(1,0,0,1,-933.0726605191262,1259.1497395833333) translate(107.48698784722222 77.99652777777777)"/><path d="M-518.34 1284.94a6 6 0 0 1 6-6h119.66a6 6 0 0 1 6 6v87.15a6 6 0 0 1-6 6h-119.66a6 6 0 0 1-6-6z" stroke="#1071e5" stroke-width="4" fill="#cfe4ff"/><use xlink:href="#k" transform="matrix(1,0,0,1,-506.34310963114797,1290.9381510416665) translate(0.19140625 45.27777777777778)"/><use xlink:href="#m" transform="matrix(1,0,0,1,-506.34310963114797,1290.9381510416665) translate(77.66536458333333 45.27777777777778)"/><path d="M-920.05 1613.5a6 6 0 0 1 6-6h150.26a6 6 0 0 1 6 6v110.2a6 6 0 0 1-6 6h-150.25a6 6 0 0 1-6-6z" stroke="#1071e5" stroke-width="4" fill="#cfe4ff"/><use xlink:href="#n" transform="matrix(1,0,0,1,-908.0518271857928,1619.4898244598764) translate(20.601345486111107 40.09027777777778)"/><use xlink:href="#o" transform="matrix(1,0,0,1,-908.0518271857928,1619.4898244598764) translate(8.367187500000007 72.35590277777777)"/><path d="M-539.76 1608.88a6 6 0 0 1 6-6h162.5a6 6 0 0 1 6 6v119.42a6 6 0 0 1-6 6h-162.5a6 6 0 0 1-6-6z" stroke="#1071e5" stroke-width="4" fill="#cfe4ff"/><use xlink:href="#p" transform="matrix(1,0,0,1,-527.7653688524595,1614.8802083333333) translate(38.00542534722222 28.27777777777778)"/><use xlink:href="#q" transform="matrix(1,0,0,1,-527.7653688524595,1614.8802083333333) translate(33.83875868055556 60.54340277777778)"/><use xlink:href="#r" transform="matrix(1,0,0,1,-527.7653688524595,1614.8802083333333) translate(42.280598958333336 92.80902777777777)"/><path d="M-165.26 1268.8a6 6 0 0 1 6-6H3.24a6 6 0 0 1 6 6v119.42a6 6 0 0 1-6 6h-162.5a6 6 0 0 1-6-6z" stroke="#1071e5" stroke-width="4" fill="#cfe4ff"/><use xlink:href="#s" transform="matrix(1,0,0,1,-153.25781250000045,1274.8053385416665) translate(4.2109375 45.15277777777778)"/><use xlink:href="#t" transform="matrix(1,0,0,1,-153.25781250000045,1274.8053385416665) translate(80.35026041666667 45.15277777777778)"/><use xlink:href="#u" transform="matrix(1,0,0,1,-153.25781250000045,1274.8053385416665) translate(41.04904513888889 77.41840277777777)"/><path d="M209.25 1278.03a6 6 0 0 1 6-6h138a6 6 0 0 1 6 6V1379a6 6 0 0 1-6 6h-138a6 6 0 0 1-6-6z" stroke="#1071e5" stroke-width="4" fill="#cfe4ff"/><use xlink:href="#v" transform="matrix(1,0,0,1,221.24974385245855,1284.0318581747256) translate(40.76236979166667 35.43402777777778)"/><use xlink:href="#w" transform="matrix(1,0,0,1,221.24974385245855,1284.0318581747256) translate(8.497829861111121 67.69965277777777)"/><path d="M559.25 1278.03a6 6 0 0 1 6-6h138a6 6 0 0 1 6 6V1379a6 6 0 0 1-6 6h-138a6 6 0 0 1-6-6z" stroke="#1071e5" stroke-width="4" fill="#cfe4ff"/><use xlink:href="#x" transform="matrix(1,0,0,1,571.2540841302364,1284.0318581747256) translate(22.01236979166667 35.43402777777778)"/><use xlink:href="#w" transform="matrix(1,0,0,1,571.2540841302364,1284.0318581747256) translate(8.497829861111121 67.69965277777777)"/><path d="M909.26 1268.8a6 6 0 0 1 6-6h162.5a6 6 0 0 1 6 6v119.42a6 6 0 0 1-6 6h-162.5a6 6 0 0 1-6-6z" stroke="#1071e5" stroke-width="4" fill="#cfe4ff"/><use xlink:href="#y" transform="matrix(1,0,0,1,921.258424408014,1274.8053385416665) translate(7.742838541666671 45.15277777777778)"/><use xlink:href="#z" transform="matrix(1,0,0,1,921.258424408014,1274.8053385416665) translate(56.538411458333336 45.15277777777778)"/><use xlink:href="#A" transform="matrix(1,0,0,1,921.258424408014,1274.8053385416665) translate(83.166015625 45.15277777777778)"/><use xlink:href="#B" transform="matrix(1,0,0,1,921.258424408014,1274.8053385416665) translate(48.43836805555556 77.41840277777777)"/><path d="M1283.77 1268.8a6 6 0 0 1 6-6h162.5a6 6 0 0 1 6 6v119.42a6 6 0 0 1-6 6h-162.5a6 6 0 0 1-6-6z" stroke="#1071e5" stroke-width="4" fill="#cfe4ff"/><use xlink:href="#C" transform="matrix(1,0,0,1,1295.7659807604728,1274.8053385416665) translate(36.08485243055556 28.27777777777778)"/><use xlink:href="#D" transform="matrix(1,0,0,1,1295.7659807604728,1274.8053385416665) translate(94.53754340277777 28.27777777777778)"/><use xlink:href="#E" transform="matrix(1,0,0,1,1295.7659807604728,1274.8053385416665) translate(23.747612847222236 60.54340277777778)"/><use xlink:href="#F" transform="matrix(1,0,0,1,1295.7659807604728,1274.8053385416665) translate(37.89691840277778 92.80902777777777)"/><path d="M1658.27 1268.8a6 6 0 0 1 6-6h162.5a6 6 0 0 1 6 6v119.42a6 6 0 0 1-6 6h-162.5a6 6 0 0 1-6-6z" stroke="#1071e5" stroke-width="4" fill="#cfe4ff"/><use xlink:href="#G" transform="matrix(1,0,0,1,1670.2735371129315,1274.8053385416665) translate(8.909288194444457 45.15277777777778)"/><use xlink:href="#D" transform="matrix(1,0,0,1,1670.2735371129315,1274.8053385416665) translate(121.71310763888889 45.15277777777778)"/><use xlink:href="#H" transform="matrix(1,0,0,1,1670.2735371129315,1274.8053385416665) translate(23.39496527777778 77.41840277777777)"/><use xlink:href="#I" transform="matrix(1,0,0,1,1670.2735371129315,1274.8053385416665) translate(55.740885416666664 77.41840277777777)"/><path d="M2032.78 1278.03a6 6 0 0 1 6-6h138a6 6 0 0 1 6 6V1379a6 6 0 0 1-6 6h-138a6 6 0 0 1-6-6z" stroke="#1071e5" stroke-width="4" fill="#cfe4ff"/><use xlink:href="#x" transform="matrix(1,0,0,1,2044.7810934653903,1284.0318581747256) translate(22.01236979166667 35.43402777777778)"/><use xlink:href="#w" transform="matrix(1,0,0,1,2044.7810934653903,1284.0318581747256) translate(8.497829861111121 67.69965277777777)"/><path d="M2382.78 1268.8a6 6 0 0 1 6-6h162.5a6 6 0 0 1 6 6v119.42a6 6 0 0 1-6 6h-162.5a6 6 0 0 1-6-6z" stroke="#1071e5" stroke-width="4" fill="#cfe4ff"/><use xlink:href="#J" transform="matrix(1,0,0,1,2394.785433743168,1274.8053385416665) translate(2.8600260416666714 45.15277777777778)"/><use xlink:href="#K" transform="matrix(1,0,0,1,2394.785433743168,1274.8053385416665) translate(88.67816840277777 45.15277777777778)"/><use xlink:href="#L" transform="matrix(1,0,0,1,2394.785433743168,1274.8053385416665) translate(36.44835069444444 77.41840277777777)"/><path d="M2857.63 1295.07c18.47 0 33.44 14.97 33.44 33.45 0 18.47-14.97 33.44-33.45 33.44h-66.88c-18.47 0-33.45-14.97-33.45-33.44 0-18.48 14.97-33.45 33.44-33.45z" stroke="#1071e5" stroke-width="4" fill="#6db1ff"/><use xlink:href="#M" transform="matrix(1,0,0,1,2762.2929900956274,1300.0709635416665) translate(41.95334201388889 35.77777777777778)"/><path d="M-1134.07 1328.52h174.25" stroke="#3a414a" stroke-width="4" fill="none"/><path d="M-1134.02 1330.5h-2.05v-3.96h2.05z" stroke="#3a414a" stroke-width=".05" fill="#3a414a"/><path d="M-943.55 1328.52l-14.27 4.63v-9.27z" stroke="#3a414a" stroke-width="4" fill="#3a414a"/><path d="M-738.76 1328.52h195.68" stroke="#3a414a" stroke-width="4" fill="none"/><path d="M-738.7 1330.5h-2.4l.23-.8.1-1.18-.1-1.2-.22-.78h2.4z" stroke="#3a414a" stroke-width=".05" fill="#3a414a"/><path d="M-526.82 1328.52l-14.26 4.63v-9.27z" stroke="#3a414a" stroke-width="4" fill="#3a414a"/><path d="M-836.94 1582.75h-3.95v-67.8h3.96zm0-89.32h-3.95v-88.55h3.96z" stroke="#3a414a" stroke-width=".05" fill="#3a414a"/><path d="M-840.2 1402.8l1.28.08 1.28-.08.7-.13v2.27h-3.95v-2.27z" fill="#3a414a"/><path stroke="#3a414a" stroke-width=".05" fill="#3a414a"/><path d="M-838.92 1599.02l-4.63-14.27h9.27z" fill="#3a414a"/><path d="M-838.92 1605.4l-7.35-22.62h14.7zm-1.92-18.67l1.92 5.9 1.92-5.9z" stroke="#3a414a" stroke-width=".05" fill="#3a414a"/><use xlink:href="#N" transform="matrix(1,0,0,1,-889.1750910746817,1493.4318972599876) translate(0 17.22222222222222)"/><path d="M-753.8 1668.6h189.3" stroke="#3a414a" stroke-width="4" fill="none"/><path d="M-753.74 1670.57h-2.05v-3.95h2.06z" stroke="#3a414a" stroke-width=".05" fill="#3a414a"/><path d="M-548.24 1668.6l-14.26 4.63v-9.28z" stroke="#3a414a" stroke-width="4" fill="#3a414a"/><path d="M-382.68 1328.52H-190" stroke="#3a414a" stroke-width="4" fill="none"/><path d="M-382.63 1330.5h-2.05v-3.96h2.05z" stroke="#3a414a" stroke-width=".05" fill="#3a414a"/><path d="M-173.73 1328.52l-14.27 4.63v-9.27z" stroke="#3a414a" stroke-width="4" fill="#3a414a"/><path d="M13.25 1328.52H184.5" stroke="#3a414a" stroke-width="4" fill="none"/><path d="M13.3 1330.5h-2.05v-3.96h2.05z" stroke="#3a414a" stroke-width=".05" fill="#3a414a"/><path d="M200.78 1328.52l-14.27 4.63v-9.27z" stroke="#3a414a" stroke-width="4" fill="#3a414a"/><path d="M713.26 1328.52h171.26" stroke="#3a414a" stroke-width="4" fill="none"/><path d="M713.3 1330.5h-2.04v-3.96h2.05z" stroke="#3a414a" stroke-width=".05" fill="#3a414a"/><path d="M900.8 1328.52l-14.28 4.63v-9.27z" stroke="#3a414a" stroke-width="4" fill="#3a414a"/><path d="M1087.77 1328.52h171.26" stroke="#3a414a" stroke-width="4" fill="none"/><path d="M1087.82 1330.5h-2.05v-3.96h2.05z" stroke="#3a414a" stroke-width=".05" fill="#3a414a"/><path d="M1275.3 1328.52l-14.27 4.63v-9.27z" stroke="#3a414a" stroke-width="4" fill="#3a414a"/><path d="M1462.27 1328.52h171.27" stroke="#3a414a" stroke-width="4" fill="none"/><path d="M1462.33 1330.5h-2.06v-3.96h2.06z" stroke="#3a414a" stroke-width=".05" fill="#3a414a"/><path d="M1649.8 1328.52l-14.26 4.63v-9.27z" stroke="#3a414a" stroke-width="4" fill="#3a414a"/><path d="M2186.78 1328.52h171.27" stroke="#3a414a" stroke-width="4" fill="none"/><path d="M2186.84 1330.5h-2.06v-3.96h2.06z" stroke="#3a414a" stroke-width=".05" fill="#3a414a"/><path d="M2374.3 1328.52l-14.25 4.63v-9.27z" stroke="#3a414a" stroke-width="4" fill="#3a414a"/><path d="M2561.3 1328.52h171.25" stroke="#3a414a" stroke-width="4" fill="none"/><path d="M2561.34 1330.5h-2.05v-3.96h2.04z" stroke="#3a414a" stroke-width=".05" fill="#3a414a"/><path d="M2748.82 1328.52l-14.27 4.63v-9.27z" stroke="#3a414a" stroke-width="4" fill="#3a414a"/><path d="M409.57 1330.5h-46.32v-3.96h46.32zm124.95 0h-25.58v-3.96h25.58z" stroke="#3a414a" stroke-width=".05" fill="#3a414a"/><path d="M363.3 1330.5h-2.05v-3.96h2.06z" fill="#3a414a"/><path stroke="#3a414a" stroke-width=".05" fill="#3a414a"/><path d="M550.78 1328.52l-14.26 4.63v-9.27z" fill="#3a414a"/><path d="M557.17 1328.52l-22.63 7.35v-14.7zm-18.68 1.9l5.9-1.9-5.9-1.92z" stroke="#3a414a" stroke-width=".05" fill="#3a414a"/><g><use xlink:href="#O" transform="matrix(1,0,0,1,409.5665839913472,1317.759765625) translate(0 17.22222222222222)"/></g><path d="M1883.1 1330.5h-46.32v-3.96h46.3zm124.94 0h-25.57v-3.96h25.57z" stroke="#3a414a" stroke-width=".05" fill="#3a414a"/><path d="M1836.83 1330.5h-2.05v-3.96h2.05z" fill="#3a414a"/><path stroke="#3a414a" stroke-width=".05" fill="#3a414a"/><path d="M2024.3 1328.52l-14.26 4.63v-9.27z" fill="#3a414a"/><path d="M2030.7 1328.52l-22.63 7.35v-14.7zm-18.68 1.9l5.9-1.9-5.9-1.92z" stroke="#3a414a" stroke-width=".05" fill="#3a414a"/><g><use xlink:href="#O" transform="matrix(1,0,0,1,1883.0935932891607,1317.759765625) translate(0 17.22222222222222)"/></g><defs><path fill="#fff" d="M657 26c-323 0-524-166-541-416h195c15 169 171 246 346 246 202 0 356-106 356-265 5-203-294-238-475-293-239-73-380-191-380-389 0-252 224-419 512-419 294 0 499 171 508 396H992c-17-145-151-228-328-228-193 0-321 102-321 242 0 156 175 211 284 241l149 41c160 44 422 134 422 412 0 244-197 432-541 432" id="P"/><path fill="#fff" d="M338-670V0H158v-1490h180v566c73-149 190-208 336-208 226 0 379 139 379 422V0H872v-695c0-172-96-275-252-275-161 0-282 109-282 300" id="Q"/><path fill="#fff" d="M471 26C259 26 90-98 90-318c0-256 228-303 435-329 202-27 287-16 287-108 0-139-79-219-234-219-161 0-248 86-283 164l-173-57c86-203 278-265 451-265 150 0 419 46 419 395V0H815v-152h-12C765-73 660 26 471 26zm31-159c199 0 310-134 310-271v-155c-30 35-226 55-295 64-131 17-246 59-246 186 0 116 97 176 231 176" id="R"/><path fill="#fff" d="M158 418v-1536h174v179h20c37-59 106-193 324-193 279 0 474 222 474 576 0 356-194 580-473 580-213 0-288-135-325-197h-14v591H158zm492-555c209 0 317-186 317-421 0-232-105-413-317-413-206 0-314 166-314 413 0 249 111 421 314 421" id="S"/><path fill="#fff" d="M628 24c-324 0-524-230-524-574 0-343 198-582 503-582 237 0 487 146 487 559v75H286c9 234 145 362 343 362 132 0 231-58 273-172l174 48C1024-91 857 24 628 24zM287-650h624c-17-190-120-322-304-322-192 0-309 151-320 322" id="T"/><path fill="#fff" d="M934 0v166H0V0h934" id="U"/><path fill="#fff" d="M783 20c-382 0-661-292-661-764 0-473 279-766 661-766 302 0 548 182 601 489h-190c-42-204-217-313-411-313-268 0-476 208-476 590 0 381 209 588 476 588 195 0 369-110 411-313h190c-52 303-296 489-601 489" id="V"/><path fill="#fff" d="M158 0v-1118h174v172h12c41-113 157-188 290-188 26 0 70 2 91 3v181c-11-2-60-10-108-10-161 0-279 109-279 260V0H158" id="W"/><path fill="#fff" d="M598-1118v154H368v674c0 100 37 144 132 144 23 0 62-6 92-12L629-6c-37 13-88 20-134 20-193 0-307-107-307-290v-688H20v-154h168v-266h180v266h230" id="X"/><path fill="#fff" d="M158 0v-1118h180V0H158zm91-1301c-68 0-125-53-125-119s57-119 125-119c69 0 126 53 126 119s-57 119-126 119" id="Y"/><path fill="#fff" d="M613 24c-304 0-509-231-509-576 0-350 205-580 509-580 305 0 511 230 511 580 0 345-206 576-511 576zm0-161c226 0 329-195 329-415 0-222-103-419-329-419-223 0-326 196-326 419 0 220 103 415 326 415" id="Z"/><path fill="#fff" d="M338-670V0H158v-1118h173l1 207c72-158 192-221 342-221 226 0 378 139 378 422V0H872v-695c0-172-96-275-252-275-161 0-282 109-282 300" id="aa"/><path fill="#fff" d="M180 0v-1490h901v168H370v510h643v168H370V0H180" id="ab"/><path fill="#fff" d="M338-1490V0H158v-1490h180" id="ac"/><path fill="#fff" d="M409 0L70-1118h191c89 329 165 560 243 925 75-353 154-601 240-925h192c85 325 161 564 235 922 77-354 157-598 244-922h191L1267 0h-179c-86-307-176-590-250-913C763-588 675-308 588 0H409" id="ad"/><g id="a"><use transform="matrix(0.01953125,0,0,0.01953125,0,0)" xlink:href="#P"/><use transform="matrix(0.01953125,0,0,0.01953125,25.6640625,0)" xlink:href="#Q"/><use transform="matrix(0.01953125,0,0,0.01953125,49.31640625,0)" xlink:href="#R"/><use transform="matrix(0.01953125,0,0,0.01953125,71.77734375,0)" xlink:href="#S"/><use transform="matrix(0.01953125,0,0,0.01953125,96.26953125,0)" xlink:href="#T"/><use transform="matrix(0.01953125,0,0,0.01953125,119.58984375,0)" xlink:href="#U"/><use transform="matrix(0.01953125,0,0,0.01953125,136.25,0)" xlink:href="#V"/><use transform="matrix(0.01953125,0,0,0.01953125,165.46875,0)" xlink:href="#W"/><use transform="matrix(0.01953125,0,0,0.01953125,179.86328125,0)" xlink:href="#T"/><use transform="matrix(0.01953125,0,0,0.01953125,203.57421875,0)" xlink:href="#R"/><use transform="matrix(0.01953125,0,0,0.01953125,226.03515625,0)" xlink:href="#X"/><use transform="matrix(0.01953125,0,0,0.01953125,239.12109375,0)" xlink:href="#Y"/><use transform="matrix(0.01953125,0,0,0.01953125,248.80859375,0)" xlink:href="#Z"/><use transform="matrix(0.01953125,0,0,0.01953125,272.79296875,0)" xlink:href="#aa"/><use transform="matrix(0.01953125,0,0,0.01953125,296.42578125,0)" xlink:href="#U"/><use transform="matrix(0.01953125,0,0,0.01953125,316.015625,0)" xlink:href="#ab"/><use transform="matrix(0.01953125,0,0,0.01953125,339.62890625,0)" xlink:href="#ac"/><use transform="matrix(0.01953125,0,0,0.01953125,349.31640625,0)" xlink:href="#Z"/><use transform="matrix(0.01953125,0,0,0.01953125,372.578125,0)" xlink:href="#ad"/></g><path d="M763 24c-353 0-583-224-583-531v-983h190v968c0 214 149 370 393 370 243 0 391-156 391-370v-968h190v983c0 307-230 531-581 531" id="ae"/><path d="M538 24C308 24 148-78 108-271l171-41c32 123 123 178 257 178 156 0 256-77 256-169 0-77-54-128-164-154l-186-44c-203-48-300-148-300-305 0-192 176-326 414-326 230 0 351 112 402 269l-163 42c-31-80-94-158-238-158-133 0-233 69-233 162 0 83 57 129 188 160l169 40c203 48 298 149 298 302 0 196-179 339-441 339" id="af"/><path d="M628 24c-324 0-524-230-524-574 0-343 198-582 503-582 237 0 487 146 487 559v75H286c9 234 145 362 343 362 132 0 231-58 273-172l174 48C1024-91 857 24 628 24zM287-650h624c-17-190-120-322-304-322-192 0-309 151-320 322" id="ag"/><path d="M158 0v-1118h174v172h12c41-113 157-188 290-188 26 0 70 2 91 3v181c-11-2-60-10-108-10-161 0-279 109-279 260V0H158" id="ah"/><g id="b"><use transform="matrix(0.008680555555555556,0,0,0.008680555555555556,0,0)" xlink:href="#ae"/><use transform="matrix(0.008680555555555556,0,0,0.008680555555555556,13.229166666666668,0)" xlink:href="#af"/><use transform="matrix(0.008680555555555556,0,0,0.008680555555555556,22.612847222222225,0)" xlink:href="#ag"/><use transform="matrix(0.008680555555555556,0,0,0.008680555555555556,32.97743055555556,0)" xlink:href="#ah"/></g><path d="M52 0l541-1490h220L1361 0h-200l-149-416H398L254 0H52zm404-582h497c-103-290-145-390-251-756-108 377-145 460-246 756" id="ai"/><path d="M613 24c-304 0-509-231-509-576 0-350 205-580 509-580 216 0 392 114 453 309l-173 49c-33-115-133-197-280-197-223 0-326 196-326 419 0 220 103 415 326 415 150 0 252-85 285-206l172 49C1010-95 832 24 613 24" id="aj"/><path d="M598-1118v154H368v674c0 100 37 144 132 144 23 0 62-6 92-12L629-6c-37 13-88 20-134 20-193 0-307-107-307-290v-688H20v-154h168v-266h180v266h230" id="ak"/><path d="M158 0v-1118h180V0H158zm91-1301c-68 0-125-53-125-119s57-119 125-119c69 0 126 53 126 119s-57 119-126 119" id="al"/><path d="M613 24c-304 0-509-231-509-576 0-350 205-580 509-580 305 0 511 230 511 580 0 345-206 576-511 576zm0-161c226 0 329-195 329-415 0-222-103-419-329-419-223 0-326 196-326 419 0 220 103 415 326 415" id="am"/><path d="M338-670V0H158v-1118h173l1 207c72-158 192-221 342-221 226 0 378 139 378 422V0H872v-695c0-172-96-275-252-275-161 0-282 109-282 300" id="an"/><g id="c"><use transform="matrix(0.008680555555555556,0,0,0.008680555555555556,0,0)" xlink:href="#ai"/><use transform="matrix(0.008680555555555556,0,0,0.008680555555555556,12.265625,0)" xlink:href="#aj"/><use transform="matrix(0.008680555555555556,0,0,0.008680555555555556,22.421875,0)" xlink:href="#ak"/><use transform="matrix(0.008680555555555556,0,0,0.008680555555555556,28.237847222222218,0)" xlink:href="#al"/><use transform="matrix(0.008680555555555556,0,0,0.008680555555555556,32.54340277777778,0)" xlink:href="#am"/><use transform="matrix(0.008680555555555556,0,0,0.008680555555555556,43.203125,0)" xlink:href="#an"/></g><path d="M783 20c-382 0-661-292-661-764 0-473 279-766 661-766 302 0 548 182 601 489h-190c-42-204-217-313-411-313-268 0-476 208-476 590 0 381 209 588 476 588 195 0 369-110 411-313h190c-52 303-296 489-601 489" id="ao"/><path d="M338-1490V0H158v-1490h180" id="ap"/><g id="d"><use transform="matrix(0.008680555555555556,0,0,0.008680555555555556,0,0)" xlink:href="#ao"/><use transform="matrix(0.008680555555555556,0,0,0.008680555555555556,12.986111111111112,0)" xlink:href="#ap"/><use transform="matrix(0.008680555555555556,0,0,0.008680555555555556,17.291666666666668,0)" xlink:href="#al"/><use transform="matrix(0.008680555555555556,0,0,0.008680555555555556,21.59722222222222,0)" xlink:href="#ag"/><use transform="matrix(0.008680555555555556,0,0,0.008680555555555556,31.961805555555557,0)" xlink:href="#an"/><use transform="matrix(0.008680555555555556,0,0,0.008680555555555556,42.46527777777778,0)" xlink:href="#ak"/></g><path d="M657 26c-323 0-524-166-541-416h195c15 169 171 246 346 246 202 0 356-106 356-265 5-203-294-238-475-293-239-73-380-191-380-389 0-252 224-419 512-419 294 0 499 171 508 396H992c-17-145-151-228-328-228-193 0-321 102-321 242 0 156 175 211 284 241l149 41c160 44 422 134 422 412 0 244-197 432-541 432" id="aq"/><path d="M577 24c-279 0-473-224-473-580 0-354 195-576 474-576 218 0 287 134 324 193h14v-551h180V0H922v-173h-20C865-111 790 24 577 24zm27-161c203 0 314-172 314-421 0-247-108-413-314-413-212 0-317 181-317 413 0 235 108 421 317 421" id="ar"/><g id="e"><use transform="matrix(0.008680555555555556,0,0,0.008680555555555556,0,0)" xlink:href="#aq"/><use transform="matrix(0.008680555555555556,0,0,0.008680555555555556,11.40625,0)" xlink:href="#al"/><use transform="matrix(0.008680555555555556,0,0,0.008680555555555556,15.711805555555557,0)" xlink:href="#ar"/><use transform="matrix(0.008680555555555556,0,0,0.008680555555555556,26.597222222222225,0)" xlink:href="#ag"/></g><path d="M481 0L54-1118h197c107 314 236 620 325 951 87-331 217-637 324-951h197L670 0H481" id="as"/><g id="f"><use transform="matrix(0.008680555555555556,0,0,0.008680555555555556,0,0)" xlink:href="#aq"/><use transform="matrix(0.008680555555555556,0,0,0.008680555555555556,11.40625,0)" xlink:href="#ag"/><use transform="matrix(0.008680555555555556,0,0,0.008680555555555556,21.770833333333336,0)" xlink:href="#ah"/><use transform="matrix(0.008680555555555556,0,0,0.008680555555555556,28.74131944444445,0)" xlink:href="#as"/><use transform="matrix(0.008680555555555556,0,0,0.008680555555555556,38.38541666666667,0)" xlink:href="#ag"/><use transform="matrix(0.008680555555555556,0,0,0.008680555555555556,48.75000000000001,0)" xlink:href="#ah"/></g><g id="g"><use transform="matrix(0.008680555555555556,0,0,0.008680555555555556,0,0)" xlink:href="#ai"/><use transform="matrix(0.008680555555555556,0,0,0.008680555555555556,12.265625,0)" xlink:href="#ap"/><use transform="matrix(0.008680555555555556,0,0,0.008680555555555556,16.571180555555557,0)" xlink:href="#ap"/></g><g id="h"><use transform="matrix(0.008680555555555556,0,0,0.008680555555555556,0,0)" xlink:href="#ao"/><use transform="matrix(0.008680555555555556,0,0,0.008680555555555556,12.986111111111112,0)" xlink:href="#ap"/><use transform="matrix(0.008680555555555556,0,0,0.008680555555555556,17.291666666666668,0)" xlink:href="#al"/><use transform="matrix(0.008680555555555556,0,0,0.008680555555555556,21.59722222222222,0)" xlink:href="#ag"/><use transform="matrix(0.008680555555555556,0,0,0.008680555555555556,31.961805555555557,0)" xlink:href="#an"/><use transform="matrix(0.008680555555555556,0,0,0.008680555555555556,42.46527777777778,0)" xlink:href="#ak"/><use transform="matrix(0.008680555555555556,0,0,0.008680555555555556,48.107638888888886,0)" xlink:href="#af"/></g><path d="M180 0v-1490h270l367 940c28 72 75 218 110 339 35-117 81-264 110-339l362-940h271V0h-187c2-448-5-837 7-1287-157 497-311 829-483 1287H842C666-458 514-784 354-1284c12 438 5 843 7 1284H180" id="at"/><path d="M537 14c-226 0-379-139-379-422v-710h180v695c0 172 97 275 253 275 160 0 281-109 281-300v-670h181V0H879v-209C806-46 684 14 537 14" id="au"/><g id="i"><use transform="matrix(0.010850694444444444,0,0,0.010850694444444444,0,0)" xlink:href="#at"/><use transform="matrix(0.010850694444444444,0,0,0.010850694444444444,20.07378472222222,0)" xlink:href="#am"/><use transform="matrix(0.010850694444444444,0,0,0.010850694444444444,33.3984375,0)" xlink:href="#au"/><use transform="matrix(0.010850694444444444,0,0,0.010850694444444444,46.53862847222222,0)" xlink:href="#af"/><use transform="matrix(0.010850694444444444,0,0,0.010850694444444444,58.268229166666664,0)" xlink:href="#ag"/></g><path d="M645 0H180v-1490h484c435 0 692 280 692 742 0 466-257 748-711 748zM370-168h263c363 0 539-218 539-580 0-358-176-574-521-574H370v1154" id="av"/><path d="M409 0L70-1118h191c89 329 165 560 243 925 75-353 154-601 240-925h192c85 325 161 564 235 922 77-354 157-598 244-922h191L1267 0h-179c-86-307-176-590-250-913C763-588 675-308 588 0H409" id="aw"/><g id="j"><use transform="matrix(0.010850694444444444,0,0,0.010850694444444444,0,0)" xlink:href="#av"/><use transform="matrix(0.010850694444444444,0,0,0.010850694444444444,16.03732638888889,0)" xlink:href="#am"/><use transform="matrix(0.010850694444444444,0,0,0.010850694444444444,28.96050347222222,0)" xlink:href="#aw"/><use transform="matrix(0.010850694444444444,0,0,0.010850694444444444,47.14626736111111,0)" xlink:href="#an"/></g><g id="k"><use transform="matrix(0.010850694444444444,0,0,0.010850694444444444,0,0)" xlink:href="#at"/><use transform="matrix(0.010850694444444444,0,0,0.010850694444444444,20.07378472222222,0)" xlink:href="#am"/><use transform="matrix(0.010850694444444444,0,0,0.010850694444444444,33.3984375,0)" xlink:href="#au"/><use transform="matrix(0.010850694444444444,0,0,0.010850694444444444,46.53862847222222,0)" xlink:href="#af"/><use transform="matrix(0.010850694444444444,0,0,0.010850694444444444,58.268229166666664,0)" xlink:href="#ag"/></g><path d="M471 26C259 26 90-98 90-318c0-256 228-303 435-329 202-27 287-16 287-108 0-139-79-219-234-219-161 0-248 86-283 164l-173-57c86-203 278-265 451-265 150 0 419 46 419 395V0H815v-152h-12C765-73 660 26 471 26zm31-159c199 0 310-134 310-271v-155c-30 35-226 55-295 64-131 17-246 59-246 186 0 116 97 176 231 176" id="ax"/><path d="M611 442c-248 0-391-105-460-228l146-94c47 65 117 165 314 165 178 0 307-82 307-266v-224h-17C863-141 792-18 576-18c-268 0-472-195-472-546 0-346 197-568 476-568 216 0 288 133 326 193h17v-179h175V29c0 289-215 413-487 413zm-5-620c203 0 314-146 314-390 0-237-108-403-314-403-213 0-319 180-319 403 0 230 109 390 319 390" id="ay"/><g id="l"><use transform="matrix(0.010850694444444444,0,0,0.010850694444444444,0,0)" xlink:href="#av"/><use transform="matrix(0.010850694444444444,0,0,0.010850694444444444,16.03732638888889,0)" xlink:href="#ah"/><use transform="matrix(0.010850694444444444,0,0,0.010850694444444444,24.403211805555554,0)" xlink:href="#ax"/><use transform="matrix(0.010850694444444444,0,0,0.010850694444444444,36.88151041666667,0)" xlink:href="#ay"/></g><path d="M158 418v-1536h174v179h20c37-59 106-193 324-193 279 0 474 222 474 576 0 356-194 580-473 580-213 0-288-135-325-197h-14v591H158zm492-555c209 0 317-186 317-421 0-232-105-413-317-413-206 0-314 166-314 413 0 249 111 421 314 421" id="az"/><g id="m"><use transform="matrix(0.010850694444444444,0,0,0.010850694444444444,0,0)" xlink:href="#ae"/><use transform="matrix(0.010850694444444444,0,0,0.010850694444444444,16.536458333333332,0)" xlink:href="#az"/></g><g id="n"><use transform="matrix(0.010850694444444444,0,0,0.010850694444444444,0,0)" xlink:href="#ao"/><use transform="matrix(0.010850694444444444,0,0,0.010850694444444444,16.23263888888889,0)" xlink:href="#ax"/><use transform="matrix(0.010850694444444444,0,0,0.010850694444444444,28.7109375,0)" xlink:href="#ap"/><use transform="matrix(0.010850694444444444,0,0,0.010850694444444444,34.09288194444444,0)" xlink:href="#aj"/><use transform="matrix(0.010850694444444444,0,0,0.010850694444444444,46.78819444444444,0)" xlink:href="#au"/><use transform="matrix(0.010850694444444444,0,0,0.010850694444444444,59.928385416666664,0)" xlink:href="#ap"/><use transform="matrix(0.010850694444444444,0,0,0.010850694444444444,65.31032986111111,0)" xlink:href="#ax"/><use transform="matrix(0.010850694444444444,0,0,0.010850694444444444,77.78862847222223,0)" xlink:href="#ak"/><use transform="matrix(0.010850694444444444,0,0,0.010850694444444444,84.84157986111111,0)" xlink:href="#ag"/></g><path d="M158 0v-1118h175l1 205c55-151 181-225 313-225 147 0 245 90 285 228 53-141 190-228 352-228 194 0 352 125 352 384V0h-181v-749c0-161-105-225-225-225-151 0-243 103-243 244V0H807v-767c0-124-93-207-219-207-131 0-250 92-250 270V0H158" id="aA"/><g id="o"><use transform="matrix(0.010850694444444444,0,0,0.010850694444444444,0,0)" xlink:href="#av"/><use transform="matrix(0.010850694444444444,0,0,0.010850694444444444,16.03732638888889,0)" xlink:href="#al"/><use transform="matrix(0.010850694444444444,0,0,0.010850694444444444,21.419270833333336,0)" xlink:href="#aA"/><use transform="matrix(0.010850694444444444,0,0,0.010850694444444444,40.88541666666667,0)" xlink:href="#ag"/><use transform="matrix(0.010850694444444444,0,0,0.010850694444444444,53.84114583333333,0)" xlink:href="#an"/><use transform="matrix(0.010850694444444444,0,0,0.010850694444444444,66.97048611111111,0)" xlink:href="#af"/><use transform="matrix(0.010850694444444444,0,0,0.010850694444444444,78.70008680555556,0)" xlink:href="#al"/><use transform="matrix(0.010850694444444444,0,0,0.010850694444444444,84.08203125,0)" xlink:href="#am"/><use transform="matrix(0.010850694444444444,0,0,0.010850694444444444,97.40668402777777,0)" xlink:href="#an"/><use transform="matrix(0.010850694444444444,0,0,0.010850694444444444,110.53602430555556,0)" xlink:href="#af"/></g><path d="M180 0v-1490h510c348 0 508 194 508 460 0 198-88 351-276 417L1256 0h-220L726-579c-117 2-238 0-356 1V0H180zm190-747h312c235 0 327-108 327-283 0-177-92-293-329-293H370v576" id="aB"/><g id="p"><use transform="matrix(0.010850694444444444,0,0,0.010850694444444444,0,0)" xlink:href="#aB"/><use transform="matrix(0.010850694444444444,0,0,0.010850694444444444,13.975694444444445,0)" xlink:href="#ag"/><use transform="matrix(0.010850694444444444,0,0,0.010850694444444444,26.931423611111104,0)" xlink:href="#an"/><use transform="matrix(0.010850694444444444,0,0,0.010850694444444444,40.060763888888886,0)" xlink:href="#ar"/><use transform="matrix(0.010850694444444444,0,0,0.010850694444444444,53.66753472222221,0)" xlink:href="#ag"/><use transform="matrix(0.010850694444444444,0,0,0.010850694444444444,66.62326388888889,0)" xlink:href="#ah"/></g><path d="M180 0v-1490h510c348 0 508 209 508 474 0 266-160 477-507 477H370V0H180zm190-706h312c236 0 327-133 327-310 0-176-91-307-329-307H370v617" id="aC"/><g id="q"><use transform="matrix(0.010850694444444444,0,0,0.010850694444444444,0,0)" xlink:href="#aC"/><use transform="matrix(0.010850694444444444,0,0,0.010850694444444444,14.192708333333332,0)" xlink:href="#ah"/><use transform="matrix(0.010850694444444444,0,0,0.010850694444444444,22.189670138888886,0)" xlink:href="#ag"/><use transform="matrix(0.010850694444444444,0,0,0.010850694444444444,34.71137152777777,0)" xlink:href="#as"/><use transform="matrix(0.010850694444444444,0,0,0.010850694444444444,47.20052083333333,0)" xlink:href="#al"/><use transform="matrix(0.010850694444444444,0,0,0.010850694444444444,52.58246527777778,0)" xlink:href="#ag"/><use transform="matrix(0.010850694444444444,0,0,0.010850694444444444,65.13671875,0)" xlink:href="#aw"/></g><path d="M338-670V0H158v-1490h180v566c73-149 190-208 336-208 226 0 379 139 379 422V0H872v-695c0-172-96-275-252-275-161 0-282 109-282 300" id="aD"/><g id="r"><use transform="matrix(0.010850694444444444,0,0,0.010850694444444444,0,0)" xlink:href="#aq"/><use transform="matrix(0.010850694444444444,0,0,0.010850694444444444,14.2578125,0)" xlink:href="#aD"/><use transform="matrix(0.010850694444444444,0,0,0.010850694444444444,27.39800347222222,0)" xlink:href="#ax"/><use transform="matrix(0.010850694444444444,0,0,0.010850694444444444,39.87630208333333,0)" xlink:href="#az"/><use transform="matrix(0.010850694444444444,0,0,0.010850694444444444,53.48307291666666,0)" xlink:href="#ag"/></g><g id="s"><use transform="matrix(0.010850694444444444,0,0,0.010850694444444444,0,0)" xlink:href="#ao"/><use transform="matrix(0.010850694444444444,0,0,0.010850694444444444,16.23263888888889,0)" xlink:href="#ah"/><use transform="matrix(0.010850694444444444,0,0,0.010850694444444444,24.229600694444443,0)" xlink:href="#ag"/><use transform="matrix(0.010850694444444444,0,0,0.010850694444444444,37.40234375,0)" xlink:href="#ax"/><use transform="matrix(0.010850694444444444,0,0,0.010850694444444444,49.88064236111111,0)" xlink:href="#ak"/><use transform="matrix(0.010850694444444444,0,0,0.010850694444444444,56.93359375000001,0)" xlink:href="#ag"/></g><g id="t"><use transform="matrix(0.010850694444444444,0,0,0.010850694444444444,0,0)" xlink:href="#aq"/><use transform="matrix(0.010850694444444444,0,0,0.010850694444444444,14.2578125,0)" xlink:href="#aD"/><use transform="matrix(0.010850694444444444,0,0,0.010850694444444444,27.39800347222222,0)" xlink:href="#ax"/><use transform="matrix(0.010850694444444444,0,0,0.010850694444444444,39.87630208333333,0)" xlink:href="#az"/><use transform="matrix(0.010850694444444444,0,0,0.010850694444444444,53.48307291666666,0)" xlink:href="#ag"/></g><path d="M784 20c-382 0-662-292-662-764 0-473 280-766 662-766s660 293 660 766c0 472-278 764-660 764zm0-176c266 0 475-207 475-588 0-383-209-590-475-590-268 0-477 208-477 590 0 380 209 588 477 588" id="aE"/><path d="M677 24c-213 0-288-135-325-197h-20V0H158v-1490h180v551h14c37-59 106-193 324-193 279 0 474 222 474 576 0 356-194 580-473 580zm-27-161c209 0 317-186 317-421 0-232-105-413-317-413-206 0-314 166-314 413 0 249 111 421 314 421" id="aF"/><path d="M157-1118h181V80c1 225-123 350-364 338V252c126 9 184-48 183-172v-1198zm91-183c-68 0-125-53-125-119s57-119 125-119c69 0 126 53 126 119s-57 119-126 119" id="aG"/><g id="u"><use transform="matrix(0.010850694444444444,0,0,0.010850694444444444,0,0)" xlink:href="#aE"/><use transform="matrix(0.010850694444444444,0,0,0.010850694444444444,16.9921875,0)" xlink:href="#aF"/><use transform="matrix(0.010850694444444444,0,0,0.010850694444444444,30.598958333333332,0)" xlink:href="#aG"/><use transform="matrix(0.010850694444444444,0,0,0.010850694444444444,35.98090277777778,0)" xlink:href="#ag"/><use transform="matrix(0.010850694444444444,0,0,0.010850694444444444,48.93663194444444,0)" xlink:href="#aj"/><use transform="matrix(0.010850694444444444,0,0,0.010850694444444444,61.63194444444444,0)" xlink:href="#ak"/></g><path d="M180 0v-1490h908v168H370v486h669v168H370v500h727V0H180" id="aH"/><g id="v"><use transform="matrix(0.010850694444444444,0,0,0.010850694444444444,0,0)" xlink:href="#aH"/><use transform="matrix(0.010850694444444444,0,0,0.010850694444444444,13.35720486111111,0)" xlink:href="#aA"/><use transform="matrix(0.010850694444444444,0,0,0.010850694444444444,32.82335069444444,0)" xlink:href="#al"/><use transform="matrix(0.010850694444444444,0,0,0.010850694444444444,38.205295138888886,0)" xlink:href="#ak"/></g><path d="M295 13c-75 0-135-60-135-135s60-135 135-135 135 60 135 135S370 13 295 13zm0-809c-75 0-135-60-135-135s60-135 135-135 135 60 135 135-60 135-135 135" id="aI"/><g id="w"><use transform="matrix(0.010850694444444444,0,0,0.010850694444444444,0,0)" xlink:href="#af"/><use transform="matrix(0.010850694444444444,0,0,0.010850694444444444,11.729600694444445,0)" xlink:href="#aD"/><use transform="matrix(0.010850694444444444,0,0,0.010850694444444444,24.869791666666664,0)" xlink:href="#ax"/><use transform="matrix(0.010850694444444444,0,0,0.010850694444444444,37.34809027777777,0)" xlink:href="#az"/><use transform="matrix(0.010850694444444444,0,0,0.010850694444444444,50.9548611111111,0)" xlink:href="#ag"/><use transform="matrix(0.010850694444444444,0,0,0.010850694444444444,63.910590277777764,0)" xlink:href="#aI"/><use transform="matrix(0.010850694444444444,0,0,0.010850694444444444,70.31249999999999,0)" xlink:href="#ax"/><use transform="matrix(0.010850694444444444,0,0,0.010850694444444444,82.7907986111111,0)" xlink:href="#ar"/><use transform="matrix(0.010850694444444444,0,0,0.010850694444444444,96.39756944444441,0)" xlink:href="#ar"/></g><g id="x"><use transform="matrix(0.010850694444444444,0,0,0.010850694444444444,0,0)" xlink:href="#aB"/><use transform="matrix(0.010850694444444444,0,0,0.010850694444444444,13.975694444444445,0)" xlink:href="#ag"/><use transform="matrix(0.010850694444444444,0,0,0.010850694444444444,26.931423611111104,0)" xlink:href="#aj"/><use transform="matrix(0.010850694444444444,0,0,0.010850694444444444,39.62673611111111,0)" xlink:href="#ag"/><use transform="matrix(0.010850694444444444,0,0,0.010850694444444444,52.58246527777778,0)" xlink:href="#al"/><use transform="matrix(0.010850694444444444,0,0,0.010850694444444444,57.96440972222221,0)" xlink:href="#as"/><use transform="matrix(0.010850694444444444,0,0,0.010850694444444444,70.01953124999999,0)" xlink:href="#ag"/></g><g id="y"><use transform="matrix(0.010850694444444444,0,0,0.010850694444444444,0,0)" xlink:href="#ai"/><use transform="matrix(0.010850694444444444,0,0,0.010850694444444444,15.33203125,0)" xlink:href="#ar"/><use transform="matrix(0.010850694444444444,0,0,0.010850694444444444,28.938802083333332,0)" xlink:href="#ar"/></g><g id="z"><use transform="matrix(0.010850694444444444,0,0,0.010850694444444444,0,0)" xlink:href="#ak"/><use transform="matrix(0.010850694444444444,0,0,0.010850694444444444,7.052951388888888,0)" xlink:href="#am"/></g><g id="A"><use transform="matrix(0.010850694444444444,0,0,0.010850694444444444,0,0)" xlink:href="#aB"/><use transform="matrix(0.010850694444444444,0,0,0.010850694444444444,13.975694444444445,0)" xlink:href="#am"/><use transform="matrix(0.010850694444444444,0,0,0.010850694444444444,27.30034722222222,0)" xlink:href="#am"/><use transform="matrix(0.010850694444444444,0,0,0.010850694444444444,40.625,0)" xlink:href="#aA"/></g><g id="B"><use transform="matrix(0.010850694444444444,0,0,0.010850694444444444,0,0)" xlink:href="#aq"/><use transform="matrix(0.010850694444444444,0,0,0.010850694444444444,14.2578125,0)" xlink:href="#ak"/><use transform="matrix(0.010850694444444444,0,0,0.010850694444444444,21.63628472222222,0)" xlink:href="#ax"/><use transform="matrix(0.010850694444444444,0,0,0.010850694444444444,34.11458333333333,0)" xlink:href="#ak"/><use transform="matrix(0.010850694444444444,0,0,0.010850694444444444,41.16753472222222,0)" xlink:href="#ag"/></g><g id="C"><use transform="matrix(0.010850694444444444,0,0,0.010850694444444444,0,0)" xlink:href="#aC"/><use transform="matrix(0.010850694444444444,0,0,0.010850694444444444,14.192708333333332,0)" xlink:href="#au"/><use transform="matrix(0.010850694444444444,0,0,0.010850694444444444,27.332899305555554,0)" xlink:href="#af"/><use transform="matrix(0.010850694444444444,0,0,0.010850694444444444,39.0625,0)" xlink:href="#aD"/></g><g id="D"><use transform="matrix(0.010850694444444444,0,0,0.010850694444444444,0,0)" xlink:href="#ak"/><use transform="matrix(0.010850694444444444,0,0,0.010850694444444444,7.052951388888888,0)" xlink:href="#am"/></g><g id="E"><use transform="matrix(0.010850694444444444,0,0,0.010850694444444444,0,0)" xlink:href="#aE"/><use transform="matrix(0.010850694444444444,0,0,0.010850694444444444,16.9921875,0)" xlink:href="#az"/><use transform="matrix(0.010850694444444444,0,0,0.010850694444444444,30.598958333333332,0)" xlink:href="#ag"/><use transform="matrix(0.010850694444444444,0,0,0.010850694444444444,43.5546875,0)" xlink:href="#ah"/><use transform="matrix(0.010850694444444444,0,0,0.010850694444444444,51.920572916666664,0)" xlink:href="#ax"/><use transform="matrix(0.010850694444444444,0,0,0.010850694444444444,64.39887152777777,0)" xlink:href="#ak"/><use transform="matrix(0.010850694444444444,0,0,0.010850694444444444,71.66883680555554,0)" xlink:href="#al"/><use transform="matrix(0.010850694444444444,0,0,0.010850694444444444,77.05078124999999,0)" xlink:href="#am"/><use transform="matrix(0.010850694444444444,0,0,0.010850694444444444,90.37543402777776,0)" xlink:href="#an"/></g><path d="M180 0v-1490h190v644h782v-644h190V0h-190v-678H370V0H180" id="aJ"/><path d="M140 405l46-156c120 36 205 19 263-150l32-93L54-1118h197c107 313 237 620 324 950 87-331 219-637 326-950h196L606 167c-68 178-176 259-334 259-64 0-113-12-132-21" id="aK"/><g id="F"><use transform="matrix(0.010850694444444444,0,0,0.010850694444444444,0,0)" xlink:href="#aJ"/><use transform="matrix(0.010850694444444444,0,0,0.010850694444444444,16.514756944444443,0)" xlink:href="#al"/><use transform="matrix(0.010850694444444444,0,0,0.010850694444444444,21.896701388888886,0)" xlink:href="#af"/><use transform="matrix(0.010850694444444444,0,0,0.010850694444444444,33.62630208333333,0)" xlink:href="#ak"/><use transform="matrix(0.010850694444444444,0,0,0.010850694444444444,40.67925347222222,0)" xlink:href="#am"/><use transform="matrix(0.010850694444444444,0,0,0.010850694444444444,54.00390625,0)" xlink:href="#ah"/><use transform="matrix(0.010850694444444444,0,0,0.010850694444444444,62.717013888888886,0)" xlink:href="#aK"/></g><path d="M180 0v-1490h528c311 0 458 177 458 395 0 191-114 278-244 313v14c139 9 302 137 302 371 0 225-148 397-499 397H180zm190-168h350c232 0 321-102 321-231 0-149-120-277-311-277H370v508zm0-668h328c160 0 286-101 286-255 0-129-87-231-280-231H370v486" id="aL"/><g id="G"><use transform="matrix(0.010850694444444444,0,0,0.010850694444444444,0,0)" xlink:href="#aL"/><use transform="matrix(0.010850694444444444,0,0,0.010850694444444444,14.539930555555555,0)" xlink:href="#ah"/><use transform="matrix(0.010850694444444444,0,0,0.010850694444444444,22.53689236111111,0)" xlink:href="#am"/><use transform="matrix(0.010850694444444444,0,0,0.010850694444444444,36.07855902777778,0)" xlink:href="#ax"/><use transform="matrix(0.010850694444444444,0,0,0.010850694444444444,48.556857638888886,0)" xlink:href="#ar"/><use transform="matrix(0.010850694444444444,0,0,0.010850694444444444,62.16362847222221,0)" xlink:href="#aj"/><use transform="matrix(0.010850694444444444,0,0,0.010850694444444444,75.0759548611111,0)" xlink:href="#ax"/><use transform="matrix(0.010850694444444444,0,0,0.010850694444444444,87.55425347222221,0)" xlink:href="#af"/><use transform="matrix(0.010850694444444444,0,0,0.010850694444444444,99.28385416666666,0)" xlink:href="#ak"/></g><g id="H"><use transform="matrix(0.010850694444444444,0,0,0.010850694444444444,0,0)" xlink:href="#ai"/><use transform="matrix(0.010850694444444444,0,0,0.010850694444444444,15.33203125,0)" xlink:href="#ap"/><use transform="matrix(0.010850694444444444,0,0,0.010850694444444444,20.713975694444443,0)" xlink:href="#ap"/></g><g id="I"><use transform="matrix(0.010850694444444444,0,0,0.010850694444444444,0,0)" xlink:href="#ao"/><use transform="matrix(0.010850694444444444,0,0,0.010850694444444444,16.23263888888889,0)" xlink:href="#ap"/><use transform="matrix(0.010850694444444444,0,0,0.010850694444444444,21.614583333333336,0)" xlink:href="#al"/><use transform="matrix(0.010850694444444444,0,0,0.010850694444444444,26.99652777777778,0)" xlink:href="#ag"/><use transform="matrix(0.010850694444444444,0,0,0.010850694444444444,39.95225694444444,0)" xlink:href="#an"/><use transform="matrix(0.010850694444444444,0,0,0.010850694444444444,53.08159722222222,0)" xlink:href="#ak"/><use transform="matrix(0.010850694444444444,0,0,0.010850694444444444,60.13454861111112,0)" xlink:href="#af"/></g><g id="J"><use transform="matrix(0.010850694444444444,0,0,0.010850694444444444,0,0)" xlink:href="#aB"/><use transform="matrix(0.010850694444444444,0,0,0.010850694444444444,13.975694444444445,0)" xlink:href="#ag"/><use transform="matrix(0.010850694444444444,0,0,0.010850694444444444,26.931423611111104,0)" xlink:href="#ar"/><use transform="matrix(0.010850694444444444,0,0,0.010850694444444444,40.53819444444444,0)" xlink:href="#ah"/><use transform="matrix(0.010850694444444444,0,0,0.010850694444444444,48.90407986111111,0)" xlink:href="#ax"/><use transform="matrix(0.010850694444444444,0,0,0.010850694444444444,61.38237847222221,0)" xlink:href="#aw"/></g><g id="K"><use transform="matrix(0.010850694444444444,0,0,0.010850694444444444,0,0)" xlink:href="#aq"/><use transform="matrix(0.010850694444444444,0,0,0.010850694444444444,14.2578125,0)" xlink:href="#ak"/><use transform="matrix(0.010850694444444444,0,0,0.010850694444444444,21.63628472222222,0)" xlink:href="#ax"/><use transform="matrix(0.010850694444444444,0,0,0.010850694444444444,34.11458333333333,0)" xlink:href="#ak"/><use transform="matrix(0.010850694444444444,0,0,0.010850694444444444,41.38454861111111,0)" xlink:href="#al"/><use transform="matrix(0.010850694444444444,0,0,0.010850694444444444,46.76649305555556,0)" xlink:href="#aj"/></g><g id="L"><use transform="matrix(0.010850694444444444,0,0,0.010850694444444444,0,0)" xlink:href="#ao"/><use transform="matrix(0.010850694444444444,0,0,0.010850694444444444,16.23263888888889,0)" xlink:href="#ax"/><use transform="matrix(0.010850694444444444,0,0,0.010850694444444444,28.7109375,0)" xlink:href="#an"/><use transform="matrix(0.010850694444444444,0,0,0.010850694444444444,41.51475694444444,0)" xlink:href="#as"/><use transform="matrix(0.010850694444444444,0,0,0.010850694444444444,53.89539930555556,0)" xlink:href="#ax"/><use transform="matrix(0.010850694444444444,0,0,0.010850694444444444,66.37369791666667,0)" xlink:href="#af"/></g><g id="M"><use transform="matrix(0.010850694444444444,0,0,0.010850694444444444,0,0)" xlink:href="#aH"/><use transform="matrix(0.010850694444444444,0,0,0.010850694444444444,13.35720486111111,0)" xlink:href="#an"/><use transform="matrix(0.010850694444444444,0,0,0.010850694444444444,26.48654513888889,0)" xlink:href="#ar"/></g><path fill="#3a414a" d="M786 20C389 20 94-260 94-744c0-487 299-766 692-766 339 0 597 194 641 529h-309c-28-162-156-258-326-258-233 0-388 179-388 495 0 323 157 493 387 493 170 0 298-97 328-259h309c-34 277-266 530-642 530" id="aM"/><path fill="#3a414a" d="M628 22C291 22 81-210 81-554c0-346 210-578 547-578 336 0 547 232 547 578 0 344-211 576-547 576zm0-236c160 0 242-146 242-341 0-197-82-341-242-341S387-753 387-555c0 195 81 341 241 341" id="aN"/><path fill="#3a414a" d="M428-647V0H128v-1118h283l4 231c63-156 176-245 348-245 232 0 384 159 384 421V0H847v-659c0-139-76-222-202-222-128 0-217 86-217 234" id="aO"/><path fill="#3a414a" d="M683-1118v229H474v562c0 71 29 104 102 104 23 0 73-7 95-13l43 225C647 9 580 16 520 16 296 16 174-96 174-301v-588H20v-229h154v-266h300v266h209" id="aP"/><path fill="#3a414a" d="M128 0v-1118h300V0H128zm150-1264c-91 0-165-68-165-154 0-85 74-154 165-154 90 0 165 69 165 154 0 86-75 154-165 154" id="aQ"/><path fill="#3a414a" d="M513 14c-232 0-385-159-385-421v-711h300v659c0 139 76 222 202 222 127 0 217-86 217-234v-647h301V0H864l-4-232C797-74 683 14 513 14" id="aR"/><path fill="#3a414a" d="M572 22C302 22 117-98 78-306l279-48c29 105 101 156 224 156 114 0 185-48 185-115 0-118-228-130-337-155-215-49-322-150-322-317 0-215 187-347 470-347 265 0 424 116 466 298l-266 47c-24-76-87-130-196-130-98 0-174 46-174 113 0 56 38 95 144 117l201 40c216 44 320 143 320 302 0 220-207 367-500 367" id="aS"/><g id="N"><use transform="matrix(0.008680555555555556,0,0,0.008680555555555556,0,0)" xlink:href="#aM"/><use transform="matrix(0.008680555555555556,0,0,0.008680555555555556,13.151041666666668,0)" xlink:href="#aN"/><use transform="matrix(0.008680555555555556,0,0,0.008680555555555556,24.053819444444446,0)" xlink:href="#aO"/><use transform="matrix(0.008680555555555556,0,0,0.008680555555555556,35.12152777777778,0)" xlink:href="#aP"/><use transform="matrix(0.008680555555555556,0,0,0.008680555555555556,41.63194444444444,0)" xlink:href="#aQ"/><use transform="matrix(0.008680555555555556,0,0,0.008680555555555556,46.44965277777778,0)" xlink:href="#aO"/><use transform="matrix(0.008680555555555556,0,0,0.008680555555555556,57.517361111111114,0)" xlink:href="#aR"/><use transform="matrix(0.008680555555555556,0,0,0.008680555555555556,68.58506944444444,0)" xlink:href="#aN"/><use transform="matrix(0.008680555555555556,0,0,0.008680555555555556,79.48784722222223,0)" xlink:href="#aR"/><use transform="matrix(0.008680555555555556,0,0,0.008680555555555556,90.55555555555556,0)" xlink:href="#aS"/></g><path fill="#3a414a" d="M449 0L49-1490h333c89 395 194 758 253 1185 65-426 176-790 269-1185h317c93 394 201 758 268 1181 60-425 164-788 253-1181h334L1675 0h-348c-90-376-204-711-266-1118C1004-714 886-373 798 0H449" id="aT"/><path fill="#3a414a" d="M633 22C291 22 81-200 81-553c0-345 210-579 537-579 292 0 525 185 525 567v84H378c7 183 109 277 260 277 105 0 184-46 216-132l272 51C1071-99 893 22 633 22zM380-669h474c-15-146-94-237-233-237-143 0-229 99-241 237" id="aU"/><path fill="#3a414a" d="M754 19C571 19 479-89 437-179h-14V0H128v-1490h300v560h9c41-89 129-202 319-202 248 0 453 193 453 575 0 372-197 576-455 576zm-92-241c156 0 240-139 240-336 0-196-83-334-240-334-154 0-241 131-241 334 0 202 88 336 241 336" id="aV"/><path fill="#3a414a" d="M681 22C323 22 94-145 85-462h297c10 151 131 226 296 226 163 0 271-77 271-190 0-102-95-149-257-189l-164-41c-252-61-403-188-403-405 0-269 236-449 560-449 330 0 546 183 551 445H941c-11-119-106-188-259-188-156 0-244 72-244 172-3 156 226 185 373 221 250 61 445 186 445 436 0 271-213 446-575 446" id="aW"/><path fill="#3a414a" d="M628 22C291 22 81-210 81-554c0-346 210-578 547-578 265 0 455 142 497 372l-279 52c-25-116-99-188-215-188-160 0-244 139-244 341 0 200 84 341 244 341 116 0 193-74 217-195l279 51C1085-123 896 22 628 22" id="aX"/><path fill="#3a414a" d="M128 0v-1490h300v802h17l366-430h347L740-633 1179 0H826L514-456l-86 97V0H128" id="aY"/><g id="O"><use transform="matrix(0.008680555555555556,0,0,0.008680555555555556,0,0)" xlink:href="#aT"/><use transform="matrix(0.008680555555555556,0,0,0.008680555555555556,17.56076388888889,0)" xlink:href="#aU"/><use transform="matrix(0.008680555555555556,0,0,0.008680555555555556,28.151041666666668,0)" xlink:href="#aV"/><use transform="matrix(0.008680555555555556,0,0,0.008680555555555556,39.35763888888889,0)" xlink:href="#aW"/><use transform="matrix(0.008680555555555556,0,0,0.008680555555555556,50.99826388888889,0)" xlink:href="#aN"/><use transform="matrix(0.008680555555555556,0,0,0.008680555555555556,61.90104166666667,0)" xlink:href="#aX"/><use transform="matrix(0.008680555555555556,0,0,0.008680555555555556,72.36111111111111,0)" xlink:href="#aY"/><use transform="matrix(0.008680555555555556,0,0,0.008680555555555556,82.27430555555556,0)" xlink:href="#aU"/><use transform="matrix(0.008680555555555556,0,0,0.008680555555555556,92.86458333333334,0)" xlink:href="#aP"/></g></defs></g></svg>